<svg xmlns="http://www.w3.org/2000/svg" viewBox="0 0 157.72 112.34"><title>old-mark</title><g style="isolation:isolate"><path d="M15,43.18a13.38,13.38,0,1,1,18.91,0A13.39,13.39,0,0,1,15,43.18Z" style="fill:#109e4d;mix-blend-mode:multiply"/><path d="M9.9,85.11a9.44,9.44,0,1,1,13.34,0A9.42,9.42,0,0,1,9.9,85.11Z" style="fill:#83c67b;mix-blend-mode:multiply"/><path d="M1.63,15.54a5.5,5.5,0,0,1-.06-7.76,5.5,5.5,0,0,1,7.76.05,5.49,5.49,0,0,1,.07,7.78A5.5,5.5,0,0,1,1.63,15.54Z" style="fill:#55ba6f;mix-blend-mode:multiply"/><path d="M29.53,65.81a26.39,26.39,0,1,1,37.29,0A26.38,26.38,0,0,1,29.53,65.81Z" style="fill:#83c67b;mix-blend-mode:multiply"/><path d="M93,81.59c-11-12-16.49-23.22-16.4-33.18C76.75,36.1,87.16,26.17,99.82,26.3a23.14,23.14,0,0,1,19,10.13,23.11,23.11,0,0,1,19.21-9.78A23.59,23.59,0,0,1,142,27C141.81,12.47,129.66.6,114.62.44A27.8,27.8,0,0,0,91.51,12.19,27.77,27.77,0,0,0,68.65,0C53.41-.15,40.9,11.8,40.76,26.59c-.12,12,6.52,25.42,19.72,39.91,8,8.75,25.29,21.77,30.31,21.84,1.37,0,3.71-1,6.52-2.53C95.71,84.35,94.24,82.91,93,81.59Z" style="fill:#43aa4c;mix-blend-mode:multiply"/><path d="M118.85,36.43A22.93,22.93,0,0,1,122,32.85a26.11,26.11,0,0,0-8.53-2A23.62,23.62,0,0,1,118.85,36.43Z" style="fill:#55ba6f;mix-blend-mode:multiply"/><path d="M93,81.59c-11-12-16.49-23.22-16.4-33.18a21.86,21.86,0,0,1,5.69-14.46,25.44,25.44,0,0,0-13-3.6C55.16,30.22,43.54,41.3,43.43,55c-.11,11.12,6,23.59,18.29,37,7.41,8.12,23.48,20.2,28.14,20.27,3.71,0,15-7.57,23.17-14.69A99.93,99.93,0,0,1,93,81.59Z" style="fill:#55ba6f;mix-blend-mode:multiply"/><path d="M143.77,82.08c-6.75,7.14-21.38,17.69-25.52,17.67S99.68,88.87,93,81.59C86.12,74,81.38,66.76,78.83,59.94c1.67,8,6.71,16.61,15.08,25.8,6.36,7,20.16,17.34,24.16,17.4s18-10.09,24.46-16.93c8-8.43,13.06-16.44,15.19-23.91C154.94,68.59,150.29,75.2,143.77,82.08Z" style="fill:#83c67b;mix-blend-mode:multiply"/></g></svg>