<svg xmlns="http://www.w3.org/2000/svg" viewBox="0 0 32 32">
  <rect class="hidden-when-flat" x="1" y="9.81" width="30" height="12.12" fill="#fff"/>
  <path class="currentColor-when-flat currentColor-when-mono" d="M31,22.19v-.92a2.87,2.87,0,0,1-1.24.22H27.58v-.31a1.84,1.84,0,0,1-1.15.31H19.54V20.36a.12.12,0,0,0-.16-.16h-.1v1.29H17V20.17a3.16,3.16,0,0,1-1.17.17h-.27v1.16H12.82l-.68-.77-.72.77H7V16.57h4.54l.65.76.7-.76h3a1.77,1.77,0,0,1,1.18.29v-.29h2.72a1.93,1.93,0,0,1,1.13.29v-.29h4.11v.29a1.45,1.45,0,0,1,1-.29h2.3v.29a1.75,1.75,0,0,1,1.05-.29H31V9.81A3.91,3.91,0,0,0,27,6H5A3.91,3.91,0,0,0,1,9.81v3l1-2.33h2.2l.29.57v-.57H7.08l.56,1.26.56-1.26h8.18a1.37,1.37,0,0,1,1,.29v-.29h2.24v.29A3,3,0,0,1,21,10.51h3.24l.3.57v-.57h2.41l.33.57v-.57h2.34v4.92H27.24l-.44-.76v.76h-3l-.33-.79h-.73l-.33.79H21a4.46,4.46,0,0,1-.68-.08,2.57,2.57,0,0,1-.72-.23v.3H15.93V14.31q0-.18-.13-.18h-.13v1.29h-7v-.61l-.26.61H6.9l-.25-.6v.6H3.81l-.33-.79H2.77l-.33.79H1v6.76A3.91,3.91,0,0,0,5,26H27A3.91,3.91,0,0,0,31,22.19Z" fill="#2f6fc4"/>
  <path class="currentColor-when-flat currentColor-when-mono" d="M10.1,14.72V11.2H8.7l-1,2.4L6.59,11.2H5.21v3.35L3.77,11.2H2.52L1,14.72h.91l.33-.78H4l.33.78H6.05V12l1.22,2.76H8L9.24,12v2.76ZM2.55,13.21l.57-1.41.59,1.41Z" fill="#2f6fc4"/>
  <rect class="currentColor-when-flat currentColor-when-mono" x="18.01" y="11.2" width="0.86" height="3.53" fill="#2f6fc4"/>
  <polygon class="currentColor-when-flat currentColor-when-mono" points="13.55 11.94 13.55 11.2 10.73 11.2 10.73 14.72 13.55 14.72 13.55 13.99 11.57 13.99 11.57 13.29 13.5 13.29 13.5 12.58 11.57 12.58 11.57 11.94 13.55 11.94" fill="#2f6fc4"/>
  <path class="currentColor-when-flat currentColor-when-mono" d="M17.36,12.72a1.06,1.06,0,0,0,.16-.57.75.75,0,0,0-.38-.75,2.29,2.29,0,0,0-1-.19h-2v3.53H15V13.45h.91a1.35,1.35,0,0,1,.38,0,.65.65,0,0,1,.23.11.37.37,0,0,1,.11.21,1.61,1.61,0,0,1,0,.24q0,.1,0,.33t0,.35h.85V14a1.35,1.35,0,0,0-.11-.61.75.75,0,0,0-.45-.33A.94.94,0,0,0,17.36,12.72Zm-1.33,0H15v-.78H16q.55,0,.55.38T16,12.72Z" fill="#2f6fc4"/>
  <polygon class="currentColor-when-flat currentColor-when-mono" points="24.41 18 24.41 17.28 21.6 17.28 21.6 20.8 24.41 20.8 24.41 20.08 22.45 20.06 22.45 19.36 24.37 19.36 24.37 18.64 22.45 18.64 22.45 18 24.41 18" fill="#2f6fc4"/>
  <path class="currentColor-when-flat currentColor-when-mono" d="M21,18.79a1.07,1.07,0,0,0,.16-.56.77.77,0,0,0-.38-.76,2.19,2.19,0,0,0-1-.2h-2V20.8h.85V19.52h.9a1,1,0,0,1,.6.14.75.75,0,0,1,.16.57v.59h.85v-.7a1.29,1.29,0,0,0-.12-.6.76.76,0,0,0-.44-.34A.9.9,0,0,0,21,18.79Zm-1.33,0H18.59V18h1.07q.55,0,.55.38T19.65,18.8Z" fill="#2f6fc4"/>
  <path class="currentColor-when-flat currentColor-when-mono" d="M15.92,17.28h-2.7l-1.07,1.16-1-1.16H7.73V20.8h3.33l1.08-1.17,1,1.17h1.64V19.62H16a1.84,1.84,0,0,0,.41-.06l.34-.13a.84.84,0,0,0,.29-.21,1.06,1.06,0,0,0,.18-.33,1.32,1.32,0,0,0,.07-.46Q17.34,17.28,15.92,17.28Zm-5.29,2.79H8.57v-.7h1.85v-.72H8.57V18h2.12l.91,1Zm3.35.42L12.69,19,14,17.65Zm1.93-1.58H14.83V18h1.09q.52,0,.52.43T15.91,18.9Z" fill="#2f6fc4"/>
  <path class="currentColor-when-flat currentColor-when-mono" d="M29.46,18H31v-.74H29.32a1.35,1.35,0,0,0-.87.27.94.94,0,0,0-.35.78,1.11,1.11,0,0,0,.16.63.74.74,0,0,0,.4.31,3.07,3.07,0,0,0,.52.1,3.66,3.66,0,0,0,.52,0,.87.87,0,0,1,.4.07.26.26,0,0,1,.16.25q0,.33-.43.33H28.23v.76h1.63A1.29,1.29,0,0,0,31,20.35V19a1,1,0,0,0-.74-.34l-.89-.07q-.38,0-.38-.29T29.46,18Z" fill="#2f6fc4"/>
  <path class="currentColor-when-flat currentColor-when-mono" d="M20.33,12.23l.19-.18A.53.53,0,0,1,20.8,12l.3,0h.74V11.2H21q-1.73,0-1.73,1.8A1.51,1.51,0,0,0,21,14.72h1l.33-.78H24l.34.78h1.72V12.08l1.59,2.64h1.2V11.21H28v2.45l-1.48-2.45H25.22v3.33L23.8,11.21H22.54L21.34,14H21a.72.72,0,0,1-.64-.26,1.35,1.35,0,0,1-.18-.76,2.17,2.17,0,0,1,0-.44A.58.58,0,0,1,20.33,12.23Zm2.82-.42.57,1.41H22.56Z" fill="#2f6fc4"/>
  <path class="currentColor-when-flat currentColor-when-mono" d="M26.56,20H24.92v.76h1.64q1.33,0,1.33-1.12a1,1,0,0,0-.23-.71.88.88,0,0,0-.55-.28,4.5,4.5,0,0,0-.64,0,2.05,2.05,0,0,1-.55-.05.26.26,0,0,1-.23-.27q0-.33.47-.33h1.55v-.74H26a1.32,1.32,0,0,0-.86.27,1,1,0,0,0-.34.78A1,1,0,0,0,25,19a.88.88,0,0,0,.55.29,4.64,4.64,0,0,0,.64,0,1.94,1.94,0,0,1,.54.07.27.27,0,0,1,.22.27Q27,20,26.56,20Z" fill="#2f6fc4"/>
</svg>
