<svg id="Layer_1" data-name="Layer 1" xmlns="http://www.w3.org/2000/svg" viewBox="0 0 32 32">
  <path class="currentColor-when-flat currentColor-when-mono" d="M29,13.48c0-1.85-.11-5-3.33-5.55L25,7.87c-1-.09-2.71-.16-4.66-.21,0-.83-.06-1.44-.14-2.18A1.63,1.63,0,0,0,18.64,4c-.94,0-4-.06-5.09.05A1.91,1.91,0,0,0,12,4.81,2.33,2.33,0,0,0,11.69,6v.22c0,.46-.06.69-.06,1.34H9.93c0-.47,0-1,0-1.05a.88.88,0,0,0-.83-.69H9a10,10,0,0,0-1.17,0A.87.87,0,0,0,7,6.74c0,.16,0,.52,0,.88-.52,0-.87,0-1,0H6a3.91,3.91,0,0,0-3,3.62l0,1.08a91.37,91.37,0,0,0,.45,11,4,4,0,0,0,4,3.51c1.17.06,3.36.09,5.79.09,3.86,0,8.34-.09,10.33-.3l.16,0c1.52-.16,3.09-.33,4.12-1.84a6.53,6.53,0,0,0,.82-3.3l0-.53A71.61,71.61,0,0,0,29,13.48Zm-9.51,7.63a5,5,0,0,1-7,0,4.85,4.85,0,0,1,0-6.89A4.9,4.9,0,0,1,16,12.79h0a4.9,4.9,0,0,1,3.47,1.42A4.85,4.85,0,0,1,19.47,21.11Zm6-8.78a11.52,11.52,0,0,1-1.36.06h-.13a.42.42,0,0,1-.39-.31,13.28,13.28,0,0,1,0-1.48v-.08c.06-.32.36-.34.63-.35a8.86,8.86,0,0,1,.92,0,.94.94,0,0,1,.45.09.57.57,0,0,1,.2.48,7.19,7.19,0,0,1,0,1.14A.42.42,0,0,1,25.42,12.33Z" fill="#73D4FA"/>
  <circle class="hidden-when-flat currentColor-when-mono" cx="15.99" cy="17.66" r="5.91" fill="#9C8AD4"/>
  <path id="Lense-Highlight" class="hidden-when-flat" d="M12.76,17.36l-.14,0a.53.53,0,0,1-.38-.66A3.9,3.9,0,0,1,17,13.94a.54.54,0,1,1-.28,1,2.81,2.81,0,0,0-3.42,2,.54.54,0,0,1-.52.4" fill="#fff" opacity="0.3"/>
  <path id="Lense-Fill" class="visible-when-mono" d="M12.52,21.11a5,5,0,0,0,7,0,4.85,4.85,0,0,0,0-6.9A4.9,4.9,0,0,0,16,12.79h0a4.9,4.9,0,0,0-3.47,1.43,4.85,4.85,0,0,0,0,6.89" fill="#fff" opacity="0.4"/>
  <path id="Finder-Fill" class="hidden-when-flat currentColor-when-mono" d="M22.82,12.57a.68.68,0,0,0,.64.51h.22A18.88,18.88,0,0,0,25.9,13a.69.69,0,0,0,.62-.7,11.77,11.77,0,0,0,0-1.87.94.94,0,0,0-.33-.78,1.54,1.54,0,0,0-.73-.15,14.51,14.51,0,0,0-1.51,0c-.43,0-.93,0-1,.57v.12a21.76,21.76,0,0,0,0,2.43" fill="#73D4FA"/>
  <path id="Finder-Fill-2" class="hidden-when-flat" d="M23.54,12.07a.42.42,0,0,0,.39.31h.13a11.53,11.53,0,0,0,1.36-.06.42.42,0,0,0,.38-.43,7.19,7.19,0,0,0,0-1.14.57.57,0,0,0-.2-.48.94.94,0,0,0-.45-.09,8.86,8.86,0,0,0-.92,0c-.27,0-.57,0-.63.35v.08a13.29,13.29,0,0,0,0,1.48" fill="#203a44" opacity="0.2"/>
  <path class="hidden-when-flat" d="M16.54,5c-1.32,0-2.4,0-2.88.08s-.69.09-.82.29a1.56,1.56,0,0,0-.14.7v.2c0,.47-.06.68-.06,1.31h0l6.75.07c0-.83-.07-1.41-.13-2.07a.63.63,0,0,0-.6-.55C18.19,5,17.38,5,16.54,5Z" fill="#203a44" opacity="0.2"/>
  <path class="hidden-when-flat" d="M27.76,20.9c.16-1.94.23-4,.22-6.16,0,1.76-.09,3.47-.22,5.08l0,.55a5.68,5.68,0,0,1-.64,2.78c-.75,1.1-2,1.23-3.37,1.38l-.17,0c-3,.32-12.84.37-16.12.2a2.93,2.93,0,0,1-3-2.56c-.2-2-.33-4-.4-5.89.06,2.21.21,4.6.44,6.93a2.94,2.94,0,0,0,2.41,2.55,3.21,3.21,0,0,0,.54,0c3.28.17,13.13.12,16.12-.2l.17,0a6.77,6.77,0,0,0,2.43-.55,2.6,2.6,0,0,0,.94-.84,2.75,2.75,0,0,0,.3-.6,8.23,8.23,0,0,0,.34-2.17Z" fill="#203a44" opacity="0.2"/>
  <path class="hidden-when-flat" d="M29,13.48c0-1.85-.11-5-3.33-5.55L25,7.87c-1-.09-2.71-.16-4.66-.21,0-.83-.06-1.44-.14-2.18A1.63,1.63,0,0,0,18.64,4c-.41,0-1.23,0-2.1,0-1.14,0-2.39,0-3,.09A1.91,1.91,0,0,0,12,4.81,2.33,2.33,0,0,0,11.69,6v.22c0,.46-.06.69-.06,1.34H9.93c0-.47,0-1,0-1.05a.88.88,0,0,0-.83-.69h-.3c-.3,0-.64,0-1,0A.87.87,0,0,0,7,6.74c0,.16,0,.52,0,.88-.52,0-.87,0-1,0H6a3.91,3.91,0,0,0-3,3.62l0,1.08a91.37,91.37,0,0,0,.45,11,4,4,0,0,0,4,3.51c1.17.06,3.36.09,5.79.09,3.86,0,8.34-.09,10.33-.3l.16,0c1.52-.16,3.09-.33,4.12-1.84a6.53,6.53,0,0,0,.82-3.3l0-.53A71.61,71.61,0,0,0,29,13.48ZM12.62,7.58c0-.63,0-.84.06-1.31v-.2a1.56,1.56,0,0,1,.14-.7c.13-.2.36-.24.82-.29S15.22,5,16.54,5c.84,0,1.65,0,2.1,0a.63.63,0,0,1,.6.55c.07.66.11,1.24.13,2.07l-6.75-.07ZM8,6.87c.27,0,.54,0,.77,0h.15c0,.16,0,.41,0,.73v0H8C8,7.32,8,7,8,6.87Zm19.75,14,0,.53a5.72,5.72,0,0,1-.65,2.8c-.77,1.13-2,1.26-3.41,1.41l-.16,0c-2,.22-6.62.29-10.23.29-2.46,0-4.61,0-5.74-.09H7.49a3,3,0,0,1-3-2.61A90.33,90.33,0,0,1,4,12.39l0-1.07A2.92,2.92,0,0,1,6.2,8.65l.83,0,1,0h4.59l6.79.07,1,0c2.13.05,3.67.12,4.59.2l.57.05c2.2.42,2.41,2.32,2.46,4.58A70.69,70.69,0,0,1,27.76,20.88Z M16,12.75a4.91,4.91,0,1,1-4.91,4.91A4.92,4.92,0,0,1,16,12.75m0-1a5.91,5.91,0,1,0,5.91,5.91A5.91,5.91,0,0,0,16,11.75Z" fill="#203a44" opacity="0.4"/>
</svg>
