<svg width="32" height="32" viewBox="0 0 32 32" xmlns="http://www.w3.org/2000/svg"><title>Camera</title><g fill="none" fill-rule="evenodd"><path d="M27.983 13.698c-.036-1.703-.096-4.554-3.024-5.094l-.564-.05c-.937-.085-2.464-.146-4.233-.19a24.508 24.508 0 0 0-.124-2.001c-.075-.74-.708-1.33-1.447-1.332-.859-.042-3.661-.054-4.628.049-.432.046-1.027.101-1.405.661-.238.355-.265.768-.288 1.102l-.008.2c-.037.426-.054.638-.058 1.235-.542 0-1.05.002-1.534.004.006-.436.003-.876-.013-.964a.801.801 0 0 0-.756-.63l-.098-.004a8.99 8.99 0 0 0-1.066.044.799.799 0 0 0-.717.783c-.008.15-.01.48-.007.804-.474.013-.794.027-.881.043H7.13c-1.453.28-2.641 1.738-2.706 3.325l-.034.989c-.082 2.873.069 6.542.413 10.068.188 1.836 1.766 3.222 3.645 3.223 1.063.055 3.053.087 5.268.087 3.512 0 7.583-.08 9.395-.274l.149-.017c1.383-.146 2.812-.299 3.747-1.686.603-.895.68-2.027.747-3.026l.034-.485c.18-2.145.244-4.454.194-6.864" fill="#73D4FA"/><path d="M26.808 19.496l-.036.501c-.062.917-.125 1.866-.581 2.542-.677 1.006-1.77 1.122-3.035 1.257l-.15.017c-2.693.29-11.574.334-14.53.182-1.398-.002-2.556-1.007-2.692-2.338a89.906 89.906 0 0 1-.427-7.924c-.024 2.652.127 5.833.427 8.908.136 1.331 1.294 2.337 2.692 2.339 2.956.151 11.837.107 14.53-.183l.15-.016c1.265-.135 2.358-.251 3.035-1.258.456-.675.519-1.624.58-2.54l.037-.502c.148-1.77.212-3.66.201-5.624a62.442 62.442 0 0 1-.2 4.64" fill="#203A44" opacity=".2"/><path d="M16.18 22.987a5.443 5.443 0 0 1-3.853-1.588c-.001 0-.002 0-.002-.002-2.124-2.135-2.123-5.596.002-7.714a5.414 5.414 0 0 1 3.853-1.602h.006c1.453 0 2.82.565 3.85 1.593 2.128 2.122 2.128 5.587.001 7.723a5.445 5.445 0 0 1-3.857 1.59" fill="#51D97F"/><path d="M13.022 20.702a4.48 4.48 0 0 0 6.318 0c1.744-1.752 1.744-4.592 0-6.331a4.435 4.435 0 0 0-3.154-1.306h-.005a4.436 4.436 0 0 0-3.158 1.314c-1.742 1.737-1.742 4.572-.001 6.323m3.158 2.285a5.443 5.443 0 0 1-3.853-1.588c-.001 0-.002 0-.002-.002-2.124-2.135-2.123-5.596.002-7.714a5.414 5.414 0 0 1 3.853-1.602h.006c1.453 0 2.82.565 3.85 1.593 2.128 2.122 2.128 5.587.001 7.723a5.445 5.445 0 0 1-3.857 1.59" fill="#203A44" opacity=".4"/><path d="M13.24 17.26a.49.49 0 0 1-.476-.618c.499-1.886 2.441-3.016 4.312-2.522.263.069.42.338.35.6a.488.488 0 0 1-.6.35 2.55 2.55 0 0 0-3.11 1.823.492.492 0 0 1-.476.367" fill="#FFF" opacity=".3"/><path d="M23.04 12.404c.031.16.194.278.353.284l.122.005c.366.01.817-.01 1.235-.051a.387.387 0 0 0 .343-.393 6.66 6.66 0 0 0-.022-1.049c-.019-.168-.03-.333-.184-.437-.115-.077-.272-.075-.405-.086a7.979 7.979 0 0 0-.84-.023c-.242.005-.516.022-.57.318l-.007.069a12.31 12.31 0 0 0-.025 1.363" fill="#203A44" opacity=".2"/><path d="M26.808 20.48l-.036.502c-.062.917-.125 1.866-.581 2.541-.677 1.007-1.77 1.123-3.035 1.258l-.15.016c-2.693.29-11.574.334-14.53.183-1.398-.002-2.556-1.008-2.692-2.339-.34-3.484-.49-7.107-.409-9.938l.035-.982c.045-1.126.898-2.198 1.9-2.394.779-.103 13.227-.13 16.995.207l.52.045c1.937.359 2.13 2.088 2.173 4.14.05 2.375-.013 4.65-.19 6.762M8.998 7.694c.236-.019.48-.025.689-.027.002.163 0 .391-.001.621l-.688.01c-.003-.216-.002-.439 0-.604m4.244-.571l.011-.188c.016-.24.033-.503.122-.636.11-.163.286-.204.738-.253.816-.087 3.526-.107 4.452-.059.224 0 .467.204.493.476.062.642.102 1.142.119 1.879a338.19 338.19 0 0 0-5.989-.063c.005-.58.02-.754.054-1.156m14.741 6.575c-.036-1.703-.096-4.554-3.024-5.094l-.564-.05c-.937-.085-2.464-.146-4.233-.19a24.508 24.508 0 0 0-.124-2.001c-.075-.74-.708-1.33-1.447-1.332-.859-.042-3.661-.054-4.628.049-.432.046-1.027.101-1.405.661-.238.355-.265.768-.288 1.102l-.008.2c-.037.426-.054.638-.058 1.235-.542 0-1.05.002-1.534.004.006-.436.003-.876-.013-.964a.801.801 0 0 0-.756-.63l-.098-.004a8.99 8.99 0 0 0-1.066.044.799.799 0 0 0-.717.783c-.008.15-.01.48-.007.804-.474.013-.794.027-.881.043H7.13c-1.453.28-2.641 1.738-2.706 3.325l-.034.989c-.082 2.873.069 6.542.413 10.068.188 1.836 1.766 3.222 3.645 3.223 1.063.055 3.053.087 5.268.087 3.512 0 7.583-.08 9.395-.274l.149-.017c1.383-.146 2.812-.299 3.747-1.686.603-.895.68-2.027.747-3.026l.034-.485c.18-2.145.244-4.454.194-6.864" fill="#203A44" opacity=".4"/><path d="M13.242 7.122l.012-.187c.015-.24.031-.502.122-.636.11-.163.285-.205.737-.253.816-.088 3.526-.106 4.452-.058.224 0 .467.204.493.475.063.642.102 1.143.118 1.878a358.027 358.027 0 0 0-5.988-.063c.005-.579.02-.753.054-1.156" fill="#203A44" opacity=".2"/></g></svg>