<svg width="32" height="32" viewBox="0 0 32 32" xmlns="http://www.w3.org/2000/svg"><title>Check</title><g fill="none" fill-rule="evenodd"><path d="M27.008 6.382a2.097 2.097 0 0 0-3.865-.18c-.003.003-.002.007-.003.01l-.003.003c-2.893 5.342-6.785 11.026-9.487 13.866a38.206 38.206 0 0 0-4.67-3.65l-.007-.002c-1.292-.921-2.649-.814-3.468.277-.4.535-.57 1.16-.482 1.76.067.465.33 1.15 1.187 1.782.002.002.005 0 .008.003s.005.007.01.01c1.22.818 5.354 4.349 7.08 6.353.236.275.549.43.861.43l.037-.001c.226-.008.556-.108.867-.503.002-.003.008-.004.01-.008 3.539-4.103 8.284-11.518 11.81-18.45.014-.025.014-.052.023-.078.003-.01.014-.013.02-.022a2.076 2.076 0 0 0 .072-1.6" fill="#56D882"/><path d="M26.008 6.623c-.002.002-.004.003-.005.006-3.494 6.867-8.186 14.2-11.678 18.25l-.023.03c-.08.108-.192.104-.236.053-1.8-2.09-5.953-5.634-7.262-6.518l-.001-.001c-.337-.248-.566-.514-.691-.795a1.22 1.22 0 0 0-.1.673c.059.402.325.779.79 1.122h.002c1.309.885 5.462 4.43 7.262 6.519.044.05.156.055.236-.053l.023-.03c3.492-4.05 8.184-11.383 11.678-18.25.003-.007.01-.01.013-.017.007-.017.005-.037.013-.054.125-.265.138-.562.04-.835-.014-.038-.043-.065-.061-.1" fill="#231F1F" opacity=".2"/><path d="M14.066 25.962c-1.8-2.09-5.953-5.634-7.263-6.518v-.001c-.466-.343-.731-.72-.792-1.122-.063-.43.127-.79.295-1.015.486-.65 1.253-.668 2.106-.052l.01.005.008.008c2.127 1.397 4.518 3.374 5.684 4.698a.497.497 0 0 0 .705.045.499.499 0 0 0 .045-.705 13.228 13.228 0 0 0-.495-.53c2.759-2.894 6.715-8.67 9.648-14.084.006-.011.006-.024.01-.036.006-.01.015-.015.02-.025a1.096 1.096 0 0 1 1.982.928c-.009.017-.006.037-.014.054-.003.007-.01.01-.012.017-3.494 6.867-8.186 14.2-11.678 18.25l-.023.03c-.08.108-.192.104-.236.053m12.941-19.58a2.097 2.097 0 0 0-3.865-.18c-.002.003 0 .007-.002.01l-.003.003c-2.893 5.342-6.785 11.026-9.487 13.866a38.206 38.206 0 0 0-4.67-3.65l-.007-.002c-1.292-.921-2.649-.814-3.468.277-.4.535-.57 1.16-.482 1.76.067.465.33 1.15 1.187 1.782.002.002.005 0 .008.003s.005.007.01.01c1.22.818 5.354 4.349 7.08 6.353.236.275.549.43.861.43l.037-.001c.226-.008.556-.108.867-.503.002-.003.008-.004.01-.008 3.539-4.103 8.284-11.518 11.81-18.45.014-.025.014-.052.023-.078.003-.01.014-.013.02-.022a2.076 2.076 0 0 0 .072-1.6" fill="#000" opacity=".4"/></g></svg>