<svg id="Layer_1" data-name="Layer 1" xmlns="http://www.w3.org/2000/svg" viewBox="0 0 32 32">
<path class="currentColor-when-mono currentColor-when-flat" id="Lower-FIll" d="M22.72,28a7.33,7.33,0,0,1-2.55.45,7.92,7.92,0,0,1-2.27-.34,58.07,58.07,0,0,1-14.8-8C1.81,19,1.89,18,2.17,17.38a1.66,1.66,0,0,1,1-.86L3,16.42l0,0a1.91,1.91,0,0,1-.45-2.5,1.82,1.82,0,0,1,1-.76A1.94,1.94,0,0,1,3.2,10.7a2.29,2.29,0,0,1,2.61-1,1.94,1.94,0,0,0,.47,1.15,1.82,1.82,0,0,0-1.11.64A1.93,1.93,0,0,0,5.33,14l0,.05.11.11a1.66,1.66,0,0,0-1.05.75c-.36.61-.55,1.6.61,2.83a58.06,58.06,0,0,0,13.79,9.64,7.82,7.82,0,0,0,3.08.64A7.34,7.34,0,0,0,22.72,28Zm-4-16.61A2,2,0,0,1,19.8,8.95a1.89,1.89,0,0,1,2.12.3,2.23,2.23,0,0,0-.38,1.64,20.55,20.55,0,0,0,.64,3C21.07,13.14,19.88,12.27,18.71,11.4Z" fill="#face5f"/>
<path class="hidden-when-flat" id="Lower-Shadow" d="M20.08,12.41c-.13-.39-.25-.8-.37-1.27a1.26,1.26,0,0,1,.05-.81,20,20,0,0,0,.82,2.44l-.51-.37ZM4.33,15.13l-.54-.41a.49.49,0,0,0-.08-.07.89.89,0,0,1-.28-.27l0,0a.9.9,0,0,0-.1.68.91.91,0,0,0,.41.56.49.49,0,0,1,.08.07l.36.27a1.88,1.88,0,0,1,.18-.87Zm13.93,12-.07,0A57.77,57.77,0,0,1,3.76,19.33c-1-.82-.73-1.34-.65-1.54,0,0,.06-.06.08-.09a2.52,2.52,0,0,0,.57.64,53.56,53.56,0,0,0,8.53,5.26,47.17,47.17,0,0,0,6,3.57ZM4.94,11.9l-.48-.36-.07-.07a.89.89,0,0,1-.28-.28l0,0a.91.91,0,0,0,.31,1.24l.07.07.32.24a1.91,1.91,0,0,1,.16-.88Z" fill="#203a44" opacity="0.2" style="isolation:isolate"/>
<path class="hidden-when-flat" id="Lower-Border" d="M25.69,23.77a6,6,0,0,1-7.5,3.37A57.77,57.77,0,0,1,3.76,19.33c-1-.82-.74-1.34-.65-1.54a.69.69,0,0,1,.44-.34,1.27,1.27,0,0,1,1,.08h0a60.44,60.44,0,0,0,8.8,4.79.51.51,0,0,0,.21,0,.51.51,0,0,0,.21-1,53,53,0,0,1-10-5.66.45.45,0,0,0-.08-.07.91.91,0,0,1-.41-.56.9.9,0,0,1,.1-.68A.94.94,0,0,1,4.07,14a1.38,1.38,0,0,1,.88.13H5a59.53,59.53,0,0,0,9,5,.5.5,0,0,0,.21,0,.51.51,0,0,0,.21-1,52.89,52.89,0,0,1-10-5.66l-.07-.07a.91.91,0,0,1-.31-1.24,1.31,1.31,0,0,1,1.79-.37,53.62,53.62,0,0,0,10.66,6.2.51.51,0,0,0,.42-.94,58,58,0,0,1-8.6-4.72l0,0a1.41,1.41,0,0,1-.26-1.61c.12-.21.32-.63.56-.69a3.28,3.28,0,0,1,.68-.18h0v.28c.57.34,1.28.91,2.06,1.38a108.25,108.25,0,0,0,10.3,5.82.58.58,0,0,0,.21.08.5.5,0,0,0,.47-.29.51.51,0,0,0-.26-.67l-1-.45s0,0,0-.07a22.05,22.05,0,0,1-1.38-3.81,1,1,0,0,1,.48-1.24c.79-.33,1.27.06,1.91,1.51a23.29,23.29,0,0,0,1.56,2.95c.24.41.51.85.81,1.38L25.15,17h0v0a7.68,7.68,0,0,1,.52,6.76m.36-7.29h0l-.7-1.24c-.3-.54-.57-1-.82-1.4A22.18,22.18,0,0,1,23,11c-.37-.86-1.25-2.86-3.24-2.05a2,2,0,0,0-1.09,2.45,20.7,20.7,0,0,0,1,2.91c-2.56-1.35-5.5-3.13-7.81-4.52L9.82,8.54h0a1.93,1.93,0,0,0-2.64.66,2.26,2.26,0,0,0-.29,1.12L6.46,10l0,0,0,0a2.34,2.34,0,0,0-3.19.74,1.94,1.94,0,0,0,.36,2.43,1.82,1.82,0,0,0-1,.76A1.91,1.91,0,0,0,3,16.38l0,0,.12.09a1.66,1.66,0,0,0-1,.86c-.29.65-.36,1.66.92,2.74a58.07,58.07,0,0,0,14.8,8,7.92,7.92,0,0,0,2.27.34,6.79,6.79,0,0,0,6.48-4.33,8.74,8.74,0,0,0-.6-7.65" fill="#203a44" opacity="0.4" style="isolation:isolate"/>
<path class="currentColor-when-flat currentColor-when-mono" id="Upper-Fill" d="M28.25,16.77h0l-.55-1.31c-.24-.57-.46-1-.66-1.49a22.07,22.07,0,0,1-1.17-3c-.27-.89-.92-3-3-2.41a2,2,0,0,0-1.35,2.31,20.55,20.55,0,0,0,.64,3c-2.4-1.63-5.12-3.74-7.25-5.39L13,7h0a1.93,1.93,0,0,0-2.7.36,2.25,2.25,0,0,0-.41,1.08l-.39-.36,0,0,0,0a2.34,2.34,0,0,0-3.25.37,1.94,1.94,0,0,0,.08,2.45,1.82,1.82,0,0,0-1.11.64A1.93,1.93,0,0,0,5.33,14l0,.05.11.11a1.66,1.66,0,0,0-1.05.75c-.36.61-.55,1.6.61,2.83a58.06,58.06,0,0,0,13.79,9.64,7.82,7.82,0,0,0,3.08.64A6.73,6.73,0,0,0,28,24.45a8.74,8.74,0,0,0,.28-7.68" fill="#face5f"/>
<path class="hidden-when-flat" id="Upper-Border" d="M27.06,24a6,6,0,0,1-7.83,2.49,57.76,57.76,0,0,1-13.45-9.4c-.87-.92-.58-1.42-.47-1.6a.69.69,0,0,1,.48-.29,1.27,1.27,0,0,1,1,.19h0A60.33,60.33,0,0,0,15,21.13a.51.51,0,0,0,.52-.89,52.88,52.88,0,0,1-9.27-6.76.51.51,0,0,0-.07-.07A.91.91,0,0,1,6,12.14a.94.94,0,0,1,.7-.29,1.45,1.45,0,0,1,.86.23h0A59.62,59.62,0,0,0,16,18a.51.51,0,0,0,.52-.89A52.93,52.93,0,0,1,7.25,10.4a.51.51,0,0,0-.07-.07A.91.91,0,0,1,7,9.05a1.31,1.31,0,0,1,1.83-.16,53.62,53.62,0,0,0,9.89,7.37.52.52,0,0,0,.7-.18.52.52,0,0,0-.18-.71,58,58,0,0,1-8-5.67l0,0A1.42,1.42,0,0,1,11.13,8a.9.9,0,0,1,1.27-.17h0l1.9,1.46a106.92,106.92,0,0,0,9.59,6.89.51.51,0,0,0,.26.07.51.51,0,0,0,.26-1l-.91-.56a.54.54,0,0,0,0-.07,22.14,22.14,0,0,1-.94-3.94,1,1,0,0,1,.61-1.18c.82-.23,1.26.2,1.72,1.72a23.21,23.21,0,0,0,1.21,3.1c.2.44.41.9.65,1.46l.55,1.31h0v0A7.68,7.68,0,0,1,27.06,24m1.19-7.2h0l-.55-1.31c-.24-.57-.46-1-.66-1.49a22.07,22.07,0,0,1-1.17-3c-.27-.89-.92-3-3-2.41a2,2,0,0,0-1.35,2.31,20.55,20.55,0,0,0,.64,3c-2.4-1.63-5.12-3.74-7.25-5.39L13,7h0a1.93,1.93,0,0,0-2.7.36,2.25,2.25,0,0,0-.41,1.08l-.39-.36,0,0,0,0a2.34,2.34,0,0,0-3.25.37,1.94,1.94,0,0,0,.08,2.45,1.82,1.82,0,0,0-1.11.64A1.93,1.93,0,0,0,5.33,14l0,.05.11.11a1.66,1.66,0,0,0-1.05.75c-.36.61-.55,1.6.61,2.83a58.06,58.06,0,0,0,13.79,9.64,7.82,7.82,0,0,0,3.08.64A6.73,6.73,0,0,0,28,24.45a8.74,8.74,0,0,0,.28-7.68" fill="#203a44" opacity="0.4" style="isolation:isolate"/>
<path class="hidden-when-flat" id="Upper-Shadow" d="M23.5,14.7a22.12,22.12,0,0,1-.94-3.94,1.37,1.37,0,0,1,.06-.62,23.09,23.09,0,0,0,.88,3.57s.25,1.05,0,1.07A.54.54,0,0,0,23.5,14.7ZM7.25,10.4a.51.51,0,0,0-.07-.07A.9.9,0,0,1,7,9.1a.88.88,0,0,0,.19.22.51.51,0,0,1,.07.07,53,53,0,0,0,9.27,6.76.52.52,0,0,1,.18.7.5.5,0,0,1-.31.22A52.72,52.72,0,0,1,7.25,10.4Zm4-.69,0,0A1.38,1.38,0,0,1,11,8.31a.73.73,0,0,0,.22.35l0,0a58,58,0,0,0,8,5.67.51.51,0,0,1,.18.7.5.5,0,0,1-.31.22A57.68,57.68,0,0,1,11.25,9.7Zm8,15.77A6,6,0,0,0,27.06,23,8.36,8.36,0,0,0,28,19.65,8.28,8.28,0,0,1,27.06,24a6,6,0,0,1-7.83,2.49,57.76,57.76,0,0,1-13.45-9.4c-.87-.92-.58-1.42-.45-1.62a2.78,2.78,0,0,0,.45.62A57.76,57.76,0,0,0,19.23,25.47Zm-13-12a.51.51,0,0,0-.07-.08A.9.9,0,0,1,6,12.19a.88.88,0,0,0,.19.22.51.51,0,0,1,.07.08,53,53,0,0,0,9.27,6.76.52.52,0,0,1,.18.7.5.5,0,0,1-.31.22A52.72,52.72,0,0,1,6.22,13.49Z" fill="#203a44" opacity="0.2" style="isolation:isolate"/>
<path  class="currentColor-when-flat currentColor-when-mono" id="Burst" d="M17.53,1.63a25.49,25.49,0,0,1,.95,4c.06.43.27,1.15,0,1.54a.77.77,0,0,1-1.27-.12,6.92,6.92,0,0,1-.53-1.81c-.18-.69-.34-1.38-.46-2.09-.08-.51-.36-1.46,0-1.9A.78.78,0,0,1,17.53,1.63Zm3.08,1.64A8.76,8.76,0,0,1,20.67,6c-.14.63-.67.84-.9.11a7.2,7.2,0,0,1-.09-2.25c0-.29,0-.79.28-1A.45.45,0,0,1,20.61,3.27Zm3.75-1a19.11,19.11,0,0,1-.66,3.29c-.11.37-.21.87-.66.94s-.65-.37-.66-.79A11.62,11.62,0,0,1,23,2.6c.11-.36.2-.92.63-1A.62.62,0,0,1,24.36,2.28ZM26.3,5.13a9.55,9.55,0,0,1-.8,1.45c-.33.47-1,.76-.76-.07A4.63,4.63,0,0,1,25.56,5c.12-.15.25-.44.48-.41A.34.34,0,0,1,26.3,5.13Zm3.9,1.22a18.57,18.57,0,0,1-2.45,2.17c-.31.22-.67.56-1.06.34s-.29-.67,0-1A11.33,11.33,0,0,1,29,5.8c.3-.22.7-.6,1.1-.44A.6.6,0,0,1,30.2,6.35Z" fill="#73d4fa"/></svg>
