<svg id="Layer_1" xmlns="http://www.w3.org/2000/svg" viewBox="0 0 32 32">
  <path id="Fill" class="currentColor-when-flat currentColor-when-mono" d="M25.74,21.09a6.73,6.73,0,0,0-1.24-1.83l-.28-.34c-.83-1-1.75-2-2.72-3,1.09-1.24,2.19-2.53,3.31-3.92a4.71,4.71,0,0,0,.74-1.31,3.5,3.5,0,0,0-.16-2.75,3.44,3.44,0,0,0-2-1.78A3.5,3.5,0,0,0,21,6.26,6.77,6.77,0,0,0,19.19,7.5l-.34.28c-1,.83-2,1.75-3,2.72L13.77,8.72l-.62-.54c-.5-.44-1-.88-1.53-1.29a3.56,3.56,0,0,0-2.7-.68,3.42,3.42,0,0,0-2.3,1.43,3.5,3.5,0,0,0-.56,2.66,5.44,5.44,0,0,0,1.38,2.4l.13.19c1,1.17,1.92,2.24,2.87,3.27L8.66,18.23l-.54.62c-.44.5-.88,1-1.29,1.53a3.57,3.57,0,0,0-.69,2.7,3.43,3.43,0,0,0,1.44,2.3,3.5,3.5,0,0,0,2.66.56,5.48,5.48,0,0,0,2.4-1.38l.19-.13c1.17-1,2.24-1.92,3.26-2.87,1.25,1.1,2.54,2.2,3.93,3.32a4.69,4.69,0,0,0,1.31.75,3.51,3.51,0,0,0,2.75-.16,3.45,3.45,0,0,0,1.78-2A3.5,3.5,0,0,0,25.74,21.09Z" fill="#fa6b6b"/>
  <path id="Fill-3" class="hidden-when-flat" d="M22.37,7a2.31,2.31,0,0,1,.68.1,2.44,2.44,0,0,1,1.45,1.27,2.5,2.5,0,0,1,.12,2,3.71,3.71,0,0,1-.58,1c-1,1.24-2.08,2.51-3.28,3.89l-.6.69.63.66c1.1,1.15,1.95,2.1,2.68,3l.29.34a5.93,5.93,0,0,1,1.07,1.55,2.5,2.5,0,0,1,.09,1.66,2.44,2.44,0,0,1-1.26,1.45,2.58,2.58,0,0,1-1.13.26,2.4,2.4,0,0,1-.83-.15,3.7,3.7,0,0,1-1-.58c-1.25-1-2.53-2.09-3.9-3.3l-.68-.6-.66.61c-1,.88-2,1.8-3.19,2.81l-.15.11,0,0,0,0A4.65,4.65,0,0,1,10,25a2.41,2.41,0,0,1-.47,0,2.52,2.52,0,0,1-1.43-.45,2.44,2.44,0,0,1-1-1.63A2.56,2.56,0,0,1,7.62,21c.38-.49.81-1,1.24-1.48l.55-.63,1.79-2.06.59-.68-.61-.66c-.87-.94-1.76-2-2.81-3.19l-.1-.15,0,0,0,0A4.63,4.63,0,0,1,7,10.11a2.49,2.49,0,0,1,.4-1.9,2.43,2.43,0,0,1,1.64-1,2.5,2.5,0,0,1,.39,0A2.57,2.57,0,0,1,11,7.69c.5.38,1,.82,1.48,1.25l.63.55,2,1.78.69.6.66-.63c1.11-1.06,2.08-1.93,3-2.68l.34-.29a6,6,0,0,1,1.55-1.07,2.62,2.62,0,0,1,1-.19m0-1A3.63,3.63,0,0,0,21,6.26,6.77,6.77,0,0,0,19.19,7.5l-.34.28c-1,.83-2,1.75-3,2.72L13.77,8.72l-.62-.54c-.5-.44-1-.88-1.53-1.29a3.57,3.57,0,0,0-2.16-.73,3.49,3.49,0,0,0-.54,0,3.42,3.42,0,0,0-2.3,1.43,3.5,3.5,0,0,0-.56,2.66,5.44,5.44,0,0,0,1.38,2.4l.13.19c1,1.17,1.92,2.24,2.87,3.27L8.66,18.23l-.54.62c-.44.5-.88,1-1.29,1.53a3.57,3.57,0,0,0-.69,2.7,3.43,3.43,0,0,0,1.44,2.3,3.51,3.51,0,0,0,2,.63,3.4,3.4,0,0,0,.66-.06,5.48,5.48,0,0,0,2.4-1.38l.19-.13c1.17-1,2.24-1.92,3.26-2.87,1.25,1.1,2.54,2.2,3.93,3.32a4.69,4.69,0,0,0,1.31.75,3.4,3.4,0,0,0,1.18.21,3.57,3.57,0,0,0,1.57-.37,3.45,3.45,0,0,0,1.78-2,3.5,3.5,0,0,0-.12-2.32,6.73,6.73,0,0,0-1.24-1.83l-.28-.34c-.83-1-1.75-2-2.72-3,1.09-1.24,2.19-2.53,3.31-3.92a4.71,4.71,0,0,0,.74-1.31,3.5,3.5,0,0,0-.16-2.75,3.44,3.44,0,0,0-2-1.78,3.32,3.32,0,0,0-1-.14Z" fill="#203a44" opacity="0.4"/>
  <path class="hidden-when-flat" d="M23.64,23.28a2.58,2.58,0,0,1-1.13.26,2.4,2.4,0,0,1-.83-.15,3.7,3.7,0,0,1-1-.58c-1.25-1-2.53-2.09-3.9-3.3l-.68-.6-.66.61c-1,.88-2,1.8-3.19,2.81l-.15.11,0,0,0,0A4.65,4.65,0,0,1,10,23.67a2.4,2.4,0,0,1-.47,0,2.52,2.52,0,0,1-1.43-.45,2.43,2.43,0,0,1-1-1.4,2.56,2.56,0,0,0-.06,1.05,2.44,2.44,0,0,0,1,1.63A2.52,2.52,0,0,0,9.58,25,2.4,2.4,0,0,0,10,25,4.65,4.65,0,0,0,12,23.79l0,0,0,0,.15-.11c1.2-1,2.24-1.93,3.19-2.81l.66-.61.68.6c1.37,1.21,2.65,2.28,3.9,3.3a3.7,3.7,0,0,0,1,.58,2.4,2.4,0,0,0,.83.15,2.58,2.58,0,0,0,1.13-.26,2.34,2.34,0,0,0,1.27-2.77v0A2.44,2.44,0,0,1,23.64,23.28Z" fill="#203a44" opacity="0.2"/>
</svg>
