<svg width="32" height="32" viewBox="0 0 32 32" xmlns="http://www.w3.org/2000/svg"><title>Cross</title><g fill="none" fill-rule="evenodd"><path d="M22.899 19.624c-.203-.505-.558-.921-.872-1.286l-.2-.236a40.374 40.374 0 0 0-1.914-2.13 91.015 91.015 0 0 0 2.33-2.758c.195-.241.39-.56.524-.921.23-.62.19-1.327-.111-1.94a2.424 2.424 0 0 0-1.442-1.251c-.52-.16-1.1-.131-1.637.084-.505.204-.92.558-1.286.873l-.237.2a39.24 39.24 0 0 0-2.131 1.916c-.481-.421-.963-.84-1.447-1.256l-.437-.382c-.352-.31-.706-.622-1.076-.906a2.51 2.51 0 0 0-1.901-.482 2.41 2.41 0 0 0-1.62 1.01 2.468 2.468 0 0 0-.396 1.875c.136.689.58 1.222.975 1.688l.092.132a61.018 61.018 0 0 0 2.023 2.3c-.423.483-.845.968-1.263 1.456l-.383.437c-.31.352-.622.706-.905 1.076a2.516 2.516 0 0 0-.484 1.9 2.419 2.419 0 0 0 1.012 1.62 2.464 2.464 0 0 0 1.874.397c.688-.138 1.222-.58 1.688-.975l.13-.092a61.072 61.072 0 0 0 2.3-2.022 88.979 88.979 0 0 0 2.767 2.339c.24.195.559.392.92.525.62.229 1.328.189 1.94-.112a2.427 2.427 0 0 0 1.252-1.442c.16-.52.13-1.101-.085-1.637" fill="#FA6B6B"/><path d="M22.029 20.964a1.407 1.407 0 0 1-.738.842c-.366.18-.786.206-1.153.07-.224-.082-.428-.233-.616-.386a77.556 77.556 0 0 1-3.45-2.961 50.637 50.637 0 0 1-2.932 2.657l-.125.105c-.39.333-.795.676-1.228.762a1.478 1.478 0 0 1-1.106-.233 1.407 1.407 0 0 1-.592-.952c-.063-.4.043-.814.29-1.137.269-.353.565-.688.86-1.023l.393-.446c.445-.52.892-1.035 1.343-1.548.189-.215.37-.42.555-.623a50.26 50.26 0 0 1-2.63-2.903l-.105-.125c-.333-.391-.676-.795-.762-1.23a1.477 1.477 0 0 1 .232-1.104 1.41 1.41 0 0 1 .952-.594c.4-.063.815.044 1.138.29.353.269.688.566 1.023.86l.446.393c.46.394.917.792 1.372 1.19l.176.154c.198.174.386.342.575.512a39.777 39.777 0 0 1 2.745-2.505l.249-.211c.338-.29.657-.562 1.008-.703a1.46 1.46 0 0 1 .969-.058c.365.114.663.376.84.738.18.366.207.786.07 1.152-.081.225-.233.429-.384.617a79.637 79.637 0 0 1-2.918 3.403 39.765 39.765 0 0 1 2.53 2.772l.212.249c.289.337.562.658.702 1.008.13.324.152.668.059.968m.87-1.34c-.203-.505-.558-.921-.872-1.286l-.2-.236a40.374 40.374 0 0 0-1.914-2.13 91.015 91.015 0 0 0 2.33-2.758c.195-.241.39-.56.524-.921.23-.62.19-1.327-.111-1.94a2.424 2.424 0 0 0-1.442-1.251c-.52-.16-1.1-.131-1.637.084-.505.204-.92.558-1.286.873l-.237.2a39.24 39.24 0 0 0-2.131 1.916c-.481-.421-.963-.84-1.447-1.256l-.437-.382c-.352-.31-.706-.622-1.076-.906a2.51 2.51 0 0 0-1.901-.482 2.41 2.41 0 0 0-1.62 1.01 2.468 2.468 0 0 0-.396 1.875c.136.689.58 1.222.975 1.688l.092.132a61.018 61.018 0 0 0 2.023 2.3c-.423.483-.845.968-1.263 1.456l-.383.437c-.31.352-.622.706-.905 1.076a2.516 2.516 0 0 0-.484 1.9 2.419 2.419 0 0 0 1.012 1.62 2.464 2.464 0 0 0 1.874.397c.688-.138 1.222-.58 1.688-.975l.13-.092a61.072 61.072 0 0 0 2.3-2.022 88.979 88.979 0 0 0 2.767 2.339c.24.195.559.392.92.525.62.229 1.328.189 1.94-.112a2.427 2.427 0 0 0 1.252-1.442c.16-.52.13-1.101-.085-1.637" fill="#000" opacity=".4"/><path d="M21.29 20.806a1.462 1.462 0 0 1-1.151.07c-.225-.082-.43-.233-.617-.385a78.223 78.223 0 0 1-3.45-2.961 50.274 50.274 0 0 1-2.931 2.656l-.125.105c-.391.333-.795.676-1.23.762a1.479 1.479 0 0 1-1.104-.232c-.25-.174-.408-.43-.505-.713a1.482 1.482 0 0 0-.088.76c.059.39.27.729.593.953.317.219.73.306 1.105.232.434-.086.838-.43 1.229-.762l.125-.105a50.274 50.274 0 0 0 2.93-2.656 78.223 78.223 0 0 0 3.45 2.96c.189.153.393.304.618.386.366.136.786.11 1.152-.07.362-.178.624-.477.738-.842a1.438 1.438 0 0 0-.047-.917c-.127.324-.36.596-.691.759" fill="#000" opacity=".2"/></g></svg>