<svg width="32" height="32" viewBox="0 0 32 32" xmlns="http://www.w3.org/2000/svg"><title>Donation</title><g fill="none" fill-rule="evenodd"><path d="M10.887 29.224a4.032 4.032 0 1 1 0-8.064 4.032 4.032 0 0 1 0 8.064z" fill="#56D882"/><path d="M13.821 25.957a4.02 4.02 0 0 1-2.934 1.267 4.02 4.02 0 0 1-2.935-1.267 3.033 3.033 0 0 0 5.87 0z" fill="#000" opacity=".2"/><path d="M10.887 29.224a4.032 4.032 0 1 1 0-8.064 4.032 4.032 0 0 1 0 8.064zm0-1a3.032 3.032 0 1 0 0-6.064 3.032 3.032 0 0 0 0 6.064z" fill="#000" fill-rule="nonzero" opacity=".4"/><path d="M11.727 7.886c.713-.321 1.44-.608 2.367-.947l1.048-.378c.385-.139.651-.238.887-.33 3.992-1.574 7.726-1.598 9.888 1.3 3.047 4.085 1.532 6.672-4.23 10.178-.546.332-3.477 2.029-4.319 2.54-2.082 1.265-3.596 2.344-4.695 3.416-2.204 2.148-4.024 2.373-5.033.944-.806-1.142-.64-2.237.387-3.538-4.238-6.462-2.296-10.488 3.7-13.185z" fill="#FACE5F"/><path d="M8.158 23.147c1.056.777 2.648.338 4.515-1.482 1.099-1.072 2.613-2.151 4.695-3.416.842-.511 3.773-2.208 4.319-2.54 2.1-1.278 3.636-2.433 4.592-3.584-.473 1.504-2.156 2.931-5.112 4.73-.533.325-3.464 2.02-4.318 2.54-2.141 1.3-3.709 2.418-4.874 3.554-1.818 1.772-2.934 1.91-3.518 1.083-.202-.286-.303-.576-.3-.885z" fill="#000" opacity=".2"/><path d="M11.727 7.886c.713-.321 1.44-.608 2.367-.947l1.048-.378c.385-.139.651-.238.887-.33 3.992-1.574 7.726-1.598 9.888 1.3 3.047 4.085 1.532 6.672-4.23 10.178-.546.332-3.477 2.029-4.319 2.54-2.082 1.265-3.596 2.344-4.695 3.416-2.204 2.148-4.024 2.373-5.033.944-.806-1.142-.64-2.237.387-3.538-4.238-6.462-2.296-10.488 3.7-13.185zM9.446 19.588a26.69 26.69 0 0 1 4.685-3.39 18.96 18.96 0 0 1 1.491-.777c.172-.078.64-.477.966 0 .326.476-.33.85-.42.852-.039.017-.997.482-1.541.793a25.702 25.702 0 0 0-4.507 3.261c-1.868 1.704-2.354 2.726-1.663 3.705.584.827 1.7.69 3.518-1.083 1.165-1.136 2.733-2.254 4.874-3.555.854-.518 3.785-2.214 4.318-2.539 5.327-3.242 6.52-5.278 3.948-8.726-1.8-2.414-5.105-2.393-8.72-.968.344-.136-3.17 1.147-4.258 1.636-5.42 2.44-7.083 5.765-3.422 11.496.221-.228.465-.462.731-.705z" fill="#000" fill-rule="nonzero" opacity=".4"/><path d="M13.77 16.408c-.183-.266-.377-.808-.536-1.518a15.575 15.575 0 0 1-.19-1.012 9.244 9.244 0 0 1 1.42 2.132c.323-.177.625-.334.887-.462a10.193 10.193 0 0 0-2.634-3.378.5.5 0 0 0-.68.03c-.315.321-.532.515-.738.662-.128.091-.26.17-.423.254-.215.11-1.4.638-1.51.689a.5.5 0 0 0-.29.405c-.137 1.393.064 2.63.484 3.687.2.505.406.862.553 1.06l.021.028c.255-.216.514-.426.777-.63a4.098 4.098 0 0 1-.422-.828c-.335-.842-.51-1.824-.44-2.933l.537-.242.004.048c.04.509.1 1.018.18 1.496.156.924.364 1.616.685 2.045.27-.199.542-.392.816-.579-.187-.228-.379-.824-.515-1.632a16.561 16.561 0 0 1-.2-1.846 3.997 3.997 0 0 0 .436-.29l.009.063c.067.494.153.988.257 1.452.178.79.386 1.407.66 1.824.284-.182.568-.357.851-.525z" fill="#000" fill-rule="nonzero" opacity=".4"/></g></svg>