<svg width="32" height="32" viewBox="0 0 32 32" xmlns="http://www.w3.org/2000/svg"><title>Duck</title><g fill="none" fill-rule="evenodd"><path d="M29.737 7.94a.5.5 0 0 1 .465.75c-1.2 2.068-3.307 3.176-5.373 3.57a6.018 6.018 0 0 1-1.033 1.428.498.498 0 0 1 .147.135c2.996 4.146 2.082 9.919-2.045 12.907-2.43 1.772-5.408 2.281-8.16 1.194-.618.27-1.282.46-1.983.557-4.823.506-7.345-1.823-8.235-6.677a.502.502 0 0 1-.008-.1c-1.84-1.902-2.71-4.696-2.36-8.555a.5.5 0 0 1 .897-.257c3.327 1.765 6.512 2.42 9.496 2.221 1.668-.111 3.057-.46 4.21-.925a6 6 0 1 1 9.42-6.64c1.382.376 3.052.492 4.562.392z" fill="#FACB5F"/><path d="M24.691 18.757a8.21 8.21 0 0 1-3.38 7.164c-1.921 1.4-4.199 1.912-6.376 1.344.36-.243.695-.516 1.005-.814 1.86.204 3.744-.344 5.37-1.53a8.196 8.196 0 0 0 3.381-6.164zm-6.462 1.773a7.676 7.676 0 0 0-.039-.419.24.24 0 0 1 .052.16 7.533 7.533 0 0 1-.013.26zm-1.007-.06c.292 3.442-2.143 6.54-5.588 7.019-3.852.403-5.93-1.155-6.878-4.731.137.095.278.188.422.277 1.089 2.666 3.098 3.806 6.456 3.454 3.135-.436 5.226-1.826 5.588-6.018z" fill="#203A44" opacity=".2"/><path d="M25.439 8.64a6.05 6.05 0 0 1-.165 2.497c1.327-.342 2.68-1.002 3.549-2.166-1.09 0-2.307-.1-3.384-.332z" fill="#F8874F"/><path d="M29.737 7.94a.5.5 0 0 1 .465.75c-1.2 2.068-3.307 3.176-5.373 3.57a6.018 6.018 0 0 1-1.033 1.428.498.498 0 0 1 .147.135c2.996 4.146 2.082 9.919-2.045 12.907-2.43 1.772-5.408 2.281-8.16 1.194-.618.27-1.282.46-1.983.557-4.823.506-7.345-1.823-8.235-6.677a.502.502 0 0 1-.008-.1c-1.84-1.902-2.71-4.696-2.36-8.555a.5.5 0 0 1 .897-.257c3.327 1.765 6.512 2.42 9.496 2.221 1.668-.111 3.057-.46 4.21-.925a6 6 0 1 1 9.42-6.64c1.382.376 3.052.492 4.562.392zm-4.298.7a6.05 6.05 0 0 1-.165 2.497c1.327-.342 2.68-1.002 3.549-2.166-1.09 0-2.307-.1-3.384-.332zM19.5 15.5a5.974 5.974 0 0 1-2.74-.66c-1.363.64-3.053 1.13-5.149 1.27-3.011.202-6.207-.415-9.518-2.07-.204 4.387 1.372 7.047 4.273 8.514a.5.5 0 1 1-.452.892 9.674 9.674 0 0 1-1.158-.688c.949 3.576 3.026 5.134 6.878 4.73 3.561-.494 6.043-3.788 5.55-7.366a.5.5 0 0 1 .99-.137 7.532 7.532 0 0 1-3.24 7.28c2.178.568 4.456.056 6.376-1.344 3.68-2.665 4.496-7.813 1.822-11.512a.502.502 0 0 1-.053-.093A5.973 5.973 0 0 1 19.5 15.5z" fill="#203A44" fill-rule="nonzero" opacity=".4"/><path d="M19.5 15.5a6 6 0 1 1 0-12 6 6 0 0 1 0 12z" fill="#FACB5F"/><path d="M24.465 11.299a.5.5 0 0 0 .17.985c2.119-.365 4.308-1.476 5.54-3.6a.5.5 0 0 0-.464-.75c-1.557.103-3.283-.023-4.69-.428a.5.5 0 1 0-.276.96c1.22.352 2.73.5 4.051.499-1.04 1.395-2.777 2.066-4.331 2.334z" fill="#94512F" fill-rule="nonzero"/><path d="M19.5 15.5a5.975 5.975 0 0 1-3.736-1.304A6 6 0 1 1 19.5 15.5zm0-1a4.986 4.986 0 0 0 3.648-1.58A5 5 0 1 0 19.5 14.5z" fill="#A39054" fill-rule="nonzero"/><path d="M21 11.5a2.5 2.5 0 1 1 0-5 2.5 2.5 0 0 1 0 5z" fill="#FFF"/><path d="M21 11.5a2.5 2.5 0 1 1 0-5 2.5 2.5 0 0 1 0 5zm0-1a1.5 1.5 0 1 0 0-3 1.5 1.5 0 0 0 0 3z" fill="#A39054" fill-rule="nonzero"/><circle fill="#A39054" cx="22" cy="9" r="1"/></g></svg>