<svg id="Layer_1" data-name="Layer 1" xmlns="http://www.w3.org/2000/svg" viewBox="0 0 32 32">
<path class="currentColor-when-flat currentColor-when-mono" d="M27,7.33A7.33,7.33,0,0,0,21,5a7.22,7.22,0,0,0-5,2.61A7.29,7.29,0,0,0,10,5,7.38,7.38,0,0,0,3.9,8.75c-2.61,4.75.88,10.68,5,14.66a30.07,30.07,0,0,0,3.7,3,14.2,14.2,0,0,0,2.17,1.29A2.91,2.91,0,0,0,16,28a3.29,3.29,0,0,0,1.47-.39A21.29,21.29,0,0,0,21.36,25a25.05,25.05,0,0,0,3.44-3.39C27,18.93,31.63,12.25,27,7.33ZM11.32,8.8a.59.59,0,0,1-.7.52A3.08,3.08,0,0,0,7,12a.62.62,0,0,1-.55.54l-.15,0a.7.7,0,0,1-.45-.82C6.3,9.07,8.58,7.39,10.86,8A.7.7,0,0,1,11.32,8.8Z" fill="#ee638f"/>
<path class="hidden-when-flat" id="Fill" d="M10.33,6a6.28,6.28,0,0,1,4.9,2.29l.78.93.77-.94A6.2,6.2,0,0,1,21.06,6l.61,0a6.27,6.27,0,0,1,4.64,2c4.05,4.35-.24,10.48-2.28,12.92a24.06,24.06,0,0,1-3.31,3.25A20.41,20.41,0,0,1,17,26.72,2.33,2.33,0,0,1,16,27a1.93,1.93,0,0,1-.8-.19,13.31,13.31,0,0,1-2-1.2A29.06,29.06,0,0,1,9.6,22.69C5.74,19,2.44,13.49,4.78,9.24A6.37,6.37,0,0,1,10,6h.29m0-1H10A7.38,7.38,0,0,0,3.9,8.75c-2.61,4.75.88,10.68,5,14.66a30.06,30.06,0,0,0,3.7,3,14.2,14.2,0,0,0,2.17,1.29A2.91,2.91,0,0,0,16,28a3.29,3.29,0,0,0,1.47-.39A21.29,21.29,0,0,0,21.36,25a25,25,0,0,0,3.44-3.39C27,18.93,31.63,12.25,27,7.33A7.29,7.29,0,0,0,21.67,5q-.35,0-.7,0a7.22,7.22,0,0,0-5,2.61A7.27,7.27,0,0,0,10.33,5Z" fill="#203a44" opacity="0.4" style="isolation:isolate"/>
<path class="hidden-when-flat" d="M20.73,24.18A24.06,24.06,0,0,0,24,20.93c1.67-2,4.85-6.49,3.7-10.44.43,3.68-2.38,7.61-3.91,9.44a24.06,24.06,0,0,1-3.31,3.25,20.4,20.4,0,0,1-3.71,2.54,2.33,2.33,0,0,1-1,.28,1.93,1.93,0,0,1-.8-.19,13.31,13.31,0,0,1-2-1.21,29.06,29.06,0,0,1-3.57-2.91,18.9,18.9,0,0,1-5.3-8.2c.48,3.25,2.86,6.64,5.51,9.2a29.06,29.06,0,0,0,3.57,2.91,13.31,13.31,0,0,0,2,1.21,2,2,0,0,0,.69.18,3.25,3.25,0,0,0,1.22-.31A20.72,20.72,0,0,0,20.73,24.18Z" fill="#203a44" opacity="0.2" style="isolation:isolate"/>
<path class="currentColor-when-mono hidden-when-flat" d="M11,7.5A4.22,4.22,0,0,0,7.64,8a5.4,5.4,0,0,0-2.33,3.59A1.19,1.19,0,0,0,6.13,13a1,1,0,0,0,.26,0h0a1.12,1.12,0,0,0,1-.94,3,3,0,0,1,1.29-2,2.19,2.19,0,0,1,1.73-.29,1,1,0,0,0,.81-.12A1.23,1.23,0,0,0,11,7.5ZM6.41,12.57Z" fill="#ee638f"/>
<path class="hidden-when-flat" id="Highlight" d="M6.41,12.57l-.15,0a.7.7,0,0,1-.45-.82C6.3,9.07,8.58,7.39,10.86,8a.7.7,0,0,1,.46.82.59.59,0,0,1-.7.52A3.08,3.08,0,0,0,7,12,.62.62,0,0,1,6.41,12.57Z" fill="#fff" opacity="0.3" style="isolation:isolate"/></svg>
