<svg width="32" height="32" viewBox="0 0 32 32" xmlns="http://www.w3.org/2000/svg"><title>Heart</title><g fill="none" fill-rule="evenodd"><path d="M15.826 26.684c-.368 0-.732-.084-1.107-.252-.725-.323-1.403-.77-1.98-1.164a27.305 27.305 0 0 1-3.365-2.71C5.617 18.983 2.446 13.645 4.82 9.377c1.093-1.966 3.22-3.257 5.55-3.37 2.135-.089 4.095.755 5.465 2.378 1.105-1.337 2.719-2.181 4.527-2.344 2.103-.189 4.119.559 5.53 2.053 4.18 4.43-.033 10.432-2.04 12.806a22.676 22.676 0 0 1-3.133 3.045c-1.073.864-2.246 1.752-3.55 2.392-.473.232-.911.347-1.342.347" fill="#EE638F"/><path d="M26.575 11.858c-.135 3.01-2.349 6.045-3.61 7.54a22.013 22.013 0 0 1-3.043 2.955c-1.042.841-2.179 1.703-3.411 2.308-.61.298-1.058.321-1.598.08-.657-.293-1.298-.717-1.847-1.092a26.722 26.722 0 0 1-3.29-2.65c-1.645-1.564-3.172-3.472-4.128-5.449.873 2.255 2.58 4.474 4.444 6.245.971.924 2.06 1.8 3.234 2.604.54.368 1.169.785 1.816 1.074.53.236.97.214 1.57-.08 1.212-.594 2.328-1.442 3.353-2.268a21.683 21.683 0 0 0 2.992-2.905c1.373-1.627 3.896-5.112 3.518-8.362" fill="#203A44" opacity=".2"/><path d="M7.414 13.195a.505.505 0 0 1-.153-.016c-.32-.079-.523-.43-.455-.785.498-2.544 2.777-4.15 5.058-3.584.322.08.525.43.456.784-.069.356-.387.585-.704.499-1.66-.41-3.29.753-3.648 2.588-.06.297-.291.503-.554.514" fill="#FFF" opacity=".3"/><path d="M10.712 7.048c-.097 0-.194.002-.292.007-1.975.097-3.772 1.183-4.69 2.834-2.08 3.743.888 8.603 4.361 11.905.973.924 2.06 1.8 3.236 2.604.538.369 1.169.786 1.814 1.074.532.237.972.215 1.57-.078 1.212-.596 2.329-1.442 3.355-2.268a21.741 21.741 0 0 0 2.99-2.907c1.823-2.159 5.677-7.59 2.078-11.4-1.19-1.265-2.905-1.903-4.68-1.732-1.739.157-3.261 1.053-4.175 2.457a.52.52 0 0 1-.43.237c-.144.03-.336-.083-.435-.226-1.106-1.605-2.808-2.507-4.702-2.507m5.114 19.636c-.368 0-.732-.084-1.107-.252-.725-.323-1.403-.77-1.98-1.164a27.305 27.305 0 0 1-3.365-2.71C5.617 18.983 2.446 13.645 4.82 9.377c1.093-1.966 3.22-3.257 5.55-3.37 2.135-.089 4.095.755 5.465 2.378 1.105-1.337 2.719-2.181 4.527-2.344 2.103-.189 4.119.559 5.53 2.053 4.18 4.43-.033 10.432-2.04 12.806a22.676 22.676 0 0 1-3.133 3.045c-1.073.864-2.246 1.752-3.55 2.392-.473.232-.911.347-1.342.347" fill="#203A44" opacity=".4"/></g></svg>