<svg xmlns="http://www.w3.org/2000/svg" viewBox="0 0 32 32">
  <path class="currentColor-when-flat currentColor-when-mono" d="M23,9v4H20V9a4,4,0,0,0-8,0v4H9V9A7,7,0,0,1,23,9Z" fill="#face5f"/>
  <path class="hidden-when-flat" d="M16,3.07a6,6,0,0,1,6,6v3H21V9A5,5,0,0,0,11,9v3H10V9a6,6,0,0,1,6-6m0-1A7,7,0,0,0,9,9v4h3V9a4,4,0,0,1,8,0v4h3V9a7,7,0,0,0-7-7Z" fill="#203a44" opacity="0.4"/>
  <path class="currentColor-when-flat currentColor-when-mono" d="M23.52,11.89a147.5,147.5,0,0,0-15,0,2.83,2.83,0,0,0-1.78.82,2.62,2.62,0,0,0-.9,1.76,90,90,0,0,0,0,12.09,2.62,2.62,0,0,0,.9,1.76,2.82,2.82,0,0,0,1.81.83,147.5,147.5,0,0,0,15,0,2.82,2.82,0,0,0,1.81-.83,2.62,2.62,0,0,0,.9-1.76,90,90,0,0,0,0-12.09,2.62,2.62,0,0,0-.9-1.76A2.83,2.83,0,0,0,23.52,11.89Zm-5.44,8.83a2.08,2.08,0,1,1-4.16,0s0,0,0,0,0,0,0,0a1.67,1.67,0,0,1,.15-.69,2.07,2.07,0,0,1,3.87,0,1.67,1.67,0,0,1,.15.69s0,0,0,0S18.08,20.7,18.08,20.72Z" fill="#9c8ad4"/>
  <path class="hidden-when-flat" d="M16,12.7c2.48,0,5,.06,7.46.19a1.85,1.85,0,0,1,1.16.55,1.65,1.65,0,0,1,.58,1.1,89.44,89.44,0,0,1,0,12,1.64,1.64,0,0,1-.58,1.1,1.84,1.84,0,0,1-1.18.56c-2.47.13-5,.19-7.43.19s-5-.06-7.43-.19a1.84,1.84,0,0,1-1.18-.56,1.64,1.64,0,0,1-.58-1.1,89.43,89.43,0,0,1,0-12,1.64,1.64,0,0,1,.58-1.1,1.84,1.84,0,0,1,1.14-.55c2.48-.13,5-.19,7.47-.19m-3.08,7.94h0v.07A3.09,3.09,0,0,0,16,23.8h0a3.09,3.09,0,0,0,3.08-3.07h0v-.07a2.6,2.6,0,0,0-.22-1.05,3.07,3.07,0,0,0-5.71,0,2.67,2.67,0,0,0-.23,1.09M16,11.7q-3.76,0-7.52.19a2.83,2.83,0,0,0-1.78.82,2.62,2.62,0,0,0-.9,1.76,90,90,0,0,0,0,12.09,2.62,2.62,0,0,0,.9,1.76,2.82,2.82,0,0,0,1.81.83q3.74.19,7.49.19t7.49-.19a2.82,2.82,0,0,0,1.81-.83,2.62,2.62,0,0,0,.9-1.76,90,90,0,0,0,0-12.09,2.62,2.62,0,0,0-.9-1.76,2.83,2.83,0,0,0-1.78-.82Q19.76,11.7,16,11.7Zm0,11.1a2.09,2.09,0,0,1-2.08-2.08s0,0,0,0,0,0,0,0a1.67,1.67,0,0,1,.15-.69,2.07,2.07,0,0,1,3.87,0,1.67,1.67,0,0,1,.15.69s0,0,0,0,0,0,0,0A2.09,2.09,0,0,1,16,22.8Z" fill="#203a44" opacity="0.4"/>
  <path class="hidden-when-flat" d="M11.52,20.91a.5.5,0,0,0-.34-.87H6.61q0,.49,0,1h4.57A.53.53,0,0,0,11.52,20.91Z" fill="#fff" opacity="0.2"/>
  <path class="hidden-when-flat" d="M11.82,16.91a.52.52,0,0,0,.42-.81.51.51,0,0,0-.4-.21q-2.56,0-5.12.11c0,.33,0,.66,0,1Q9.25,16.93,11.82,16.91Z" fill="#fff" opacity="0.2"/>
  <path class="hidden-when-flat" d="M11.73,22.93a.51.51,0,0,0-.4-.82l-4.7,0c0,.33,0,.66,0,1l4.7.06A.53.53,0,0,0,11.73,22.93Z" fill="#fff" opacity="0.2"/>
  <path class="hidden-when-flat" d="M13.24,14a.52.52,0,0,0-.42-.2h-.6l-2.64.07L7,14a1.39,1.39,0,0,0-.16.56c0,.14,0,.29,0,.43q3-.12,6-.16A.52.52,0,0,0,13.24,14Z" fill="#fff" opacity="0.2"/>
  <path class="hidden-when-flat" d="M7,27.11q2.91.13,5.83.18a.51.51,0,0,0,.4-.21.52.52,0,0,0-.42-.8q-3,0-6-.16c0,.13,0,.25,0,.38A1.41,1.41,0,0,0,7,27.11Z" fill="#fff" opacity="0.2"/>
  <path class="hidden-when-flat" d="M12.23,25a.52.52,0,0,0-.4-.82q-2.57,0-5.15-.09c0,.33,0,.66,0,1q2.56.08,5.11.12A.52.52,0,0,0,12.23,25Z" fill="#fff" opacity="0.2"/>
  <path class="hidden-when-flat" d="M11.75,18.19a.52.52,0,0,0-.41-.22L6.64,18c0,.33,0,.66,0,1l4.7,0A.51.51,0,0,0,11.75,18.19Z" fill="#fff" opacity="0.2"/>
</svg>
