<svg xmlns="http://www.w3.org/2000/svg" viewBox="0 0 32 32">
  <rect class="visible-when-emoji" x="3.07" y="7.95" width="25.85" height="16.1" fill="#265797"/>
  <path class="currentColor-when-flat currentColor-when-mono" d="M27,6H5A3.91,3.91,0,0,0,1,9.81V22.19A3.91,3.91,0,0,0,5,26H27a3.91,3.91,0,0,0,4-3.81V9.81A3.91,3.91,0,0,0,27,6ZM20.85,23.15a7.07,7.07,0,0,1-1-.08l-.19,0a7,7,0,0,1-.94-.23l-.13,0a7.09,7.09,0,0,1-.86-.36l-.08,0a7.19,7.19,0,0,1-.82-.5l-.07-.05A8.12,8.12,0,0,0,18.93,18h-1A7.12,7.12,0,0,1,16,21.19,7.12,7.12,0,0,1,14,18H13a8.12,8.12,0,0,0,2.19,3.84l-.07.05a7.18,7.18,0,0,1-.82.5l-.08,0a7.09,7.09,0,0,1-.86.36l-.13,0a7,7,0,0,1-.94.23l-.19,0A7.11,7.11,0,1,1,12.08,9l.2,0a7,7,0,0,1,.94.23l.13,0a7.09,7.09,0,0,1,.86.36l.08,0a7.17,7.17,0,0,1,.82.5l.07.05A8.12,8.12,0,0,0,13,14h1A7.13,7.13,0,0,1,16,10.89h0A7.13,7.13,0,0,1,17.87,14h1a8.12,8.12,0,0,0-2.16-3.73l.12-.09a7.17,7.17,0,0,1,.74-.45l.18-.08a7.08,7.08,0,0,1,.75-.31l.18-.07A7,7,0,0,1,19.64,9l.21,0a7.11,7.11,0,1,1,1,14.15Z" fill="#265797"/>
  <circle class="hidden-when-flat hidden-when-mono" cx="11.06" cy="16.04" r="7.11" fill="#be3126"/>
  <path class="hidden-when-flat hidden-when-mono" d="M20.85,8.92a7.1,7.1,0,0,0-5.57,2.69h1.34a7.14,7.14,0,0,1,.5.73H14.78a7.1,7.1,0,0,0-.4.76h3.15a7.06,7.06,0,0,1,.29.73H14.1a7,7,0,0,0-.2.75H18a7.08,7.08,0,0,1-.21,3.69H14.1a7.06,7.06,0,0,0,.3.75h3.12a7.08,7.08,0,0,1-.39.73H14.79a7.12,7.12,0,0,0,.5.73h1.33a7.14,7.14,0,0,1-.67.72,7.11,7.11,0,1,0,4.9-12.27Z" fill="#e0ab16"/>
  <path class="currentColor-when-flat currentColor-when-mono" d="M8.38,14.31l-.57,3.41H7.08L7.5,15.1l-.92,2.62H6.07L6,15.11l-.44,2.6H4.88l.57-3.41H6.51l0,2.12.72-2.12Zm5.42.22h-.72q-.29,1.64-.33,1.9a5.63,5.63,0,0,0-.1.73q0,.61.59.61a1.65,1.65,0,0,0,.52-.09l.1-.61-.21,0q-.25,0-.25-.21a2.31,2.31,0,0,1,0-.23q0-.2.09-.5t.08-.53H14l.09-.68h-.36Zm-3,1.3a.83.83,0,0,0,.56.77,1.16,1.16,0,0,1,.28.16.2.2,0,0,1,.06.15q0,.25-.42.25a2.54,2.54,0,0,1-.66-.1q-.09.61-.09.64a3.16,3.16,0,0,0,.76.08q1.13,0,1.13-.92a.82.82,0,0,0-.52-.78,1.18,1.18,0,0,1-.28-.14.2.2,0,0,1-.06-.16q0-.22.35-.22a4,4,0,0,1,.53,0l.1-.64a3.4,3.4,0,0,0-.65-.05Q10.83,14.89,10.83,15.83Zm5.27-.66a1,1,0,0,1,.27.73,2.92,2.92,0,0,1-.09.68H14.83A.45.45,0,0,0,15,17a.75.75,0,0,0,.49.14,1.67,1.67,0,0,0,.76-.18l-.12.7a2.88,2.88,0,0,1-.74.1,1.09,1.09,0,0,1-1.24-1.24,1.87,1.87,0,0,1,.36-1.18,1.1,1.1,0,0,1,.9-.46A1,1,0,0,1,16.1,15.17Zm-.4.72V15.8a.37.37,0,0,0,0-.1.27.27,0,0,0-.06-.08l-.1-.07a.37.37,0,0,0-.15,0q-.36,0-.47.49h.81v0A.2.2,0,0,0,15.69,15.89Zm-5.15-.19q0,.08-.05.55-.21,1.32-.22,1.47H9.66v-.29a.89.89,0,0,1-.76.34.63.63,0,0,1-.49-.21A.78.78,0,0,1,8.24,17a1,1,0,0,1,.34-.79,1.45,1.45,0,0,1,1-.28h.3a.37.37,0,0,1,0-.07v-.1q0-.26-.47-.26a2.42,2.42,0,0,0-.77.13s0-.24.09-.62a3.19,3.19,0,0,1,.87-.14Q10.54,14.89,10.54,15.7Zm-.81.78H9.57q-.61,0-.61.42t.26.29a.43.43,0,0,0,.36-.2A.9.9,0,0,0,9.74,16.48Zm16.65-2.17h.73l-.56,3.41h-.69l0-.25a.93.93,0,0,1-.68.3.77.77,0,0,1-.64-.31,1.33,1.33,0,0,1-.24-.83,2,2,0,0,1,.36-1.2,1,1,0,0,1,.84-.51.85.85,0,0,1,.69.38Zm-.33,1.84q0-.53-.39-.53a.46.46,0,0,0-.4.26,1.27,1.27,0,0,0-.16.66q0,.55.36.55a.49.49,0,0,0,.42-.26A1.26,1.26,0,0,0,26.07,16.14ZM24.2,15a1.75,1.75,0,0,0-.35.38,2.65,2.65,0,0,0,.05-.43h-.68q-.13,1.24-.38,2.59l0,.18h.73A14.67,14.67,0,0,1,23.87,16a.37.37,0,0,1,.41-.3,2.51,2.51,0,0,1,.27-.81A.41.41,0,0,0,24.2,15Zm-5.1,1.86a1,1,0,0,1-.18-.61,1.52,1.52,0,0,1,.26-.92.79.79,0,0,1,.66-.36,1.49,1.49,0,0,1,.65.18l.12-.74a2.33,2.33,0,0,0-.79-.17,1.46,1.46,0,0,0-1.19.58,2.32,2.32,0,0,0-.46,1.49,1.58,1.58,0,0,0,.35,1.07,1.17,1.17,0,0,0,.93.4,2.4,2.4,0,0,0,.65-.1l.13-.77a1.47,1.47,0,0,1-.62.17A.6.6,0,0,1,19.09,16.85ZM17.8,15a1.56,1.56,0,0,0-.33.38l0-.43h-.66q-.09.9-.38,2.59l0,.18h.73a13.18,13.18,0,0,1,.33-1.67q.12-.34.4-.31a3.07,3.07,0,0,1,.29-.81A.43.43,0,0,0,17.8,15Zm4.92.71a3.38,3.38,0,0,1-.05.55q-.17,1-.22,1.47h-.6v-.29a.91.91,0,0,1-.77.34.61.61,0,0,1-.48-.21.8.8,0,0,1-.18-.55,1,1,0,0,1,.33-.79,1.42,1.42,0,0,1,.94-.28H22a.62.62,0,0,0,0-.17q0-.26-.47-.26a2.42,2.42,0,0,0-.77.13s0-.24.1-.62a3.19,3.19,0,0,1,.87-.14Q22.72,14.89,22.72,15.7Zm-.81.78h-.16q-.63,0-.62.42t.26.29a.44.44,0,0,0,.36-.2A.9.9,0,0,0,21.91,16.48Z" fill="#fff"/>
</svg>
