<svg width="32" height="32" viewBox="0 0 32 32" xmlns="http://www.w3.org/2000/svg"><title>Minus</title><g fill="none" fill-rule="evenodd"><path d="M14.63 19.687h-.425c-1.3 0-2.633-.107-4.08-.232l-.16-.028c-.607-.05-1.297-.114-1.881-.503a2.464 2.464 0 0 1-1.045-1.607 2.41 2.41 0 0 1 .43-1.86 2.51 2.51 0 0 1 1.685-1.002c.463-.06.934-.09 1.4-.12l.58-.04c.686-.052 1.37-.1 2.057-.145 3.294-.209 5.83-.2 8.22.026l.309.025c.48.037 1.026.08 1.527.293.53.228.963.617 1.216 1.098.303.576.352 1.27.135 1.905a2.464 2.464 0 0 1-1.293 1.45 3.326 3.326 0 0 1-1.021.281c-2.741.288-5.25.46-7.654.46z" fill="#56D882"/><path d="M17.484 15c-1.28 0-2.667.05-4.23.148-.68.044-1.362.093-2.043.145l-.593.04a18.32 18.32 0 0 0-1.331.113 1.499 1.499 0 0 0-1.01.6 1.414 1.414 0 0 0-.254 1.092c.068.38.299.733.617.946.367.246.896.29 1.407.33l.164.014c1.42.123 2.729.187 4.002.196 2.474.02 5.1-.12 7.965-.422.24-.025.492-.062.708-.163.356-.163.634-.477.766-.864.13-.382.104-.779-.073-1.117a1.461 1.461 0 0 0-.726-.644c-.348-.148-.766-.182-1.21-.216l-.325-.026A40.138 40.138 0 0 0 17.484 15zm-2.854 4.687h-.425c-1.3 0-2.633-.107-4.08-.232l-.16-.028c-.607-.05-1.297-.114-1.881-.503a2.464 2.464 0 0 1-1.045-1.607 2.41 2.41 0 0 1 .43-1.86 2.51 2.51 0 0 1 1.685-1.002c.463-.06.934-.09 1.4-.12l.58-.04c.686-.052 1.37-.1 2.057-.145 3.294-.209 5.83-.2 8.22.026l.309.025c.48.037 1.026.08 1.527.293.53.228.963.617 1.216 1.098.303.576.352 1.27.135 1.905a2.464 2.464 0 0 1-1.293 1.45 3.326 3.326 0 0 1-1.021.281c-2.741.288-5.25.46-7.654.46z" fill="#000" opacity=".4"/><path d="M22.886 17.04c-.217.1-.468.137-.708.162-2.864.301-5.49.441-7.966.422a50.191 50.191 0 0 1-4.002-.196l-.163-.014c-.512-.04-1.04-.084-1.407-.33a1.464 1.464 0 0 1-.544-.693 1.405 1.405 0 0 0-.073.747c.068.38.3.733.617.946.367.246.895.29 1.407.33l.163.014c1.421.123 2.73.187 4.002.196 2.475.02 5.102-.12 7.966-.422.24-.025.491-.062.708-.163a1.47 1.47 0 0 0 .766-.864 1.419 1.419 0 0 0-.016-.973 1.463 1.463 0 0 1-.75.837" fill="#000" opacity=".2"/></g></svg>