<svg width="32" height="32" viewBox="0 0 32 32" xmlns="http://www.w3.org/2000/svg"><title>Penguin</title><g fill="none" fill-rule="evenodd"><path d="M12.573 27.056c-.506.473-.998.895-1.49 1.272 2.662.476 5.718.77 8.169.632.865-.088 1.22-.359 1.226-.644.004-.273-.29-.604-.715-.718-.215-.056-.798-.128-1.574-.201a.498.498 0 0 1-.219-.02 88.653 88.653 0 0 0-5.397-.32zM26.376 5.684c-.265-.006-.557-.02-.871-.047a12.23 12.23 0 0 1-2.411-.434c-.855-.25-1.612-.598-2.243-1.059-2.256-1.647-4.86-1.223-6.996.733-1.274 1.167-1.742 2.694-2.271 6.451l-.124.878c-.048.34-.09.625-.133.901a.501.501 0 0 1-.034.12c-.968 7.007-2.487 12.766-4.637 16.304 2.667-.843 4.555-2.33 7.207-5.215.171-.187.964-1.057 1.286-1.408a76.589 76.589 0 0 1-1.15-5.994.5.5 0 0 1 .99-.142c.351 2.442 1.164 6.332 1.417 6.935.174.402.58.653.91.606.35-.05.607-.444.603-1.274-.027-.48-.077-.981-.147-1.505-.168-1.26-.446-2.587-.838-4.118a81.048 81.048 0 0 0-.431-1.614l-.132-.48-.142-.5c-.084-.3-.16-.594-.234-.902a15.6 15.6 0 0 1-.349-1.988 7.849 7.849 0 0 1-.024-1.523 13.775 13.775 0 0 0-.358-.076 74.23 74.23 0 0 0-1.018-.184l-.148-.028a.5.5 0 1 1 .187-.982l.14.026c-.172-.032.771.135 1.034.188.439.087.82.18 1.188.296.714.226 1.335.526 1.867.931.353-.338 1.13-1.083 1.386-1.318 1.587-1.458 2.962-2.314 5.253-3.12.481-.169.888-.321 1.223-.458z" fill="#7A898F"/><path d="M15.464 24.045c-.346.379-.747.82-.865.947-.357.388-.7.753-1.036 1.095 1.505.06 3.268.18 4.59.304 2.946-.483 4.483-2.475 4.507-5.83.019-2.247-2.764-7.344-4.448-8.928-.434-.408-.966-.713-1.609-.943-.018.34-.005.722.038 1.14.06.582.173 1.208.327 1.86.07.294.144.576.224.863l.144.505.131.48c.07.25.098.356.14.513.11.405.205.763.296 1.117.4 1.565.686 2.928.86 4.234.074.547.125 1.074.155 1.606.008 1.309-.55 2.165-1.462 2.295-.794.113-1.622-.399-1.97-1.205a1.545 1.545 0 0 1-.022-.053z" fill="#FFF"/><path d="M27.067 4.682a3.07 3.07 0 0 1 .71.06c.446.107.779.454.5.942-.223.392-1.048.789-2.792 1.402-2.158.759-3.418 1.542-4.908 2.912-.239.22-.96.91-1.33 1.264C21.11 13.3 23.68 18.16 23.66 20.57c-.021 2.988-1.169 5.12-3.315 6.178.675.302 1.144.921 1.132 1.586-.015.882-.811 1.488-2.146 1.624-2.872.161-6.46-.235-9.398-.831-1.27.79-2.603 1.321-4.222 1.697a.5.5 0 0 1-.636-.743c2.473-3.226 4.225-9.525 5.28-17.372a.5.5 0 0 1 .043-.147l.072-.496.123-.876c.563-3.994 1.075-5.665 2.586-7.05 2.46-2.252 5.58-2.76 8.262-.802.529.386 1.183.686 1.935.907a11.25 11.25 0 0 0 2.212.397c.52.043.975.053 1.327.043l.082-.003a.504.504 0 0 1 .07 0zm-.69 1.002c-.266-.006-.558-.02-.872-.047a12.23 12.23 0 0 1-2.411-.434c-.855-.25-1.612-.598-2.243-1.059-2.256-1.647-4.86-1.223-6.996.733-1.274 1.167-1.742 2.694-2.271 6.451l-.124.878c-.048.34-.09.625-.133.901a.501.501 0 0 1-.034.12c-.968 7.007-2.487 12.766-4.637 16.304 2.667-.843 4.555-2.33 7.207-5.215.171-.187.964-1.057 1.286-1.408a76.589 76.589 0 0 1-1.15-5.994.5.5 0 0 1 .99-.142c.351 2.442 1.164 6.332 1.417 6.935.174.402.58.653.91.606.35-.05.607-.444.603-1.274-.027-.48-.077-.981-.147-1.505-.168-1.26-.446-2.587-.838-4.118a81.048 81.048 0 0 0-.431-1.614l-.132-.48-.142-.5c-.084-.3-.16-.594-.234-.902a15.6 15.6 0 0 1-.349-1.988 7.849 7.849 0 0 1-.024-1.523 13.775 13.775 0 0 0-.358-.076 74.23 74.23 0 0 0-1.018-.184l-.148-.028a.5.5 0 1 1 .187-.982l.14.026c-.172-.032.771.135 1.034.188.439.087.82.18 1.188.296.714.226 1.335.526 1.867.931.353-.338 1.13-1.083 1.386-1.318 1.587-1.458 2.962-2.314 5.253-3.12.481-.169.888-.321 1.223-.458zm-10.913 18.36l-.865.948c-.357.388-.7.753-1.036 1.095 1.505.06 3.268.18 4.59.304 2.946-.483 4.483-2.475 4.507-5.83.019-2.247-2.764-7.344-4.448-8.928-.434-.408-.966-.713-1.609-.943-.018.34-.005.722.038 1.14.06.582.173 1.208.327 1.86.07.294.144.576.224.863l.144.505.131.48c.07.25.098.356.14.513.11.405.205.763.296 1.117.4 1.565.686 2.928.86 4.234.074.547.125 1.074.155 1.606.008 1.309-.55 2.165-1.462 2.295-.794.113-1.622-.399-1.97-1.205a1.545 1.545 0 0 1-.022-.053zm-2.89 3.012c-.507.473-1 .895-1.491 1.272 2.662.476 5.718.77 8.169.632.865-.088 1.22-.359 1.226-.644.004-.273-.29-.604-.715-.718-.215-.056-.798-.128-1.574-.201a.498.498 0 0 1-.219-.02 88.653 88.653 0 0 0-5.397-.32z" fill="#203A44" fill-rule="nonzero"/><path d="M18 8.871c-1.374 0-2.5-1.06-2.5-2.385C15.5 5.16 16.626 4.1 18 4.1s2.5 1.061 2.5 2.386c0 1.324-1.126 2.385-2.5 2.385z" fill="#FFF"/><path d="M18 8.871c-1.374 0-2.5-1.06-2.5-2.385C15.5 5.16 16.626 4.1 18 4.1s2.5 1.061 2.5 2.386c0 1.324-1.126 2.385-2.5 2.385zm0-1c.835 0 1.5-.627 1.5-1.385 0-.759-.665-1.386-1.5-1.386s-1.5.627-1.5 1.386c0 .758.665 1.385 1.5 1.385z" fill="#203A44" fill-rule="nonzero"/><ellipse fill="#203A44" cx="17" cy="6.943" rx="1" ry=".943"/></g></svg>