<svg width="32" height="32" viewBox="0 0 32 32" xmlns="http://www.w3.org/2000/svg"><title>Plus</title><g fill="none" fill-rule="evenodd"><path d="M23.233 14.184c-.5-.213-1.045-.256-1.525-.293l-.309-.025a40.374 40.374 0 0 0-2.86-.153 91.015 91.015 0 0 0-.302-3.597 3.318 3.318 0 0 0-.28-1.022 2.465 2.465 0 0 0-1.45-1.293 2.424 2.424 0 0 0-1.905.135c-.481.254-.87.685-1.098 1.216-.213.502-.256 1.046-.292 1.527l-.026.31a39.24 39.24 0 0 0-.153 2.86c-.637.043-1.274.088-1.91.136l-.58.039c-.468.03-.939.06-1.401.12a2.51 2.51 0 0 0-1.685 1.003 2.41 2.41 0 0 0-.432 1.86c.117.651.499 1.24 1.046 1.606.583.39 1.274.454 1.883.504l.158.028c1.075.093 2.076.16 3.057.196.043.64.087 1.282.137 1.923l.038.58c.03.468.06.939.12 1.4.09.673.458 1.287 1.003 1.687a2.419 2.419 0 0 0 1.86.43 2.464 2.464 0 0 0 1.606-1.045c.389-.584.454-1.275.504-1.883l.028-.158c.093-1.075.16-2.075.196-3.055a88.979 88.979 0 0 0 3.61-.303 3.305 3.305 0 0 0 1.023-.28 2.474 2.474 0 0 0 1.291-1.45 2.427 2.427 0 0 0-.134-1.905 2.466 2.466 0 0 0-1.218-1.098" fill="#56D882"/><path d="M7.987 16.554l.084.059c.583.39 1.274.454 1.883.504l.158.028c1.075.093 2.956.022 3.938.058 0 .716.071.85.119 2.097l-.01-.156a64.748 64.748 0 0 1-.049-.833 50.26 50.26 0 0 1-3.912-.193l-.163-.014c-.512-.041-1.04-.084-1.408-.33a1.477 1.477 0 0 1-.617-.946 1.434 1.434 0 0 1-.023-.274zm6.444 6.35l.036.027a2.419 2.419 0 0 0 1.86.43 2.469 2.469 0 0 0 1.041-.453c-.044.319-.118.618-.274.851a1.478 1.478 0 0 1-.947.617c-.385.07-.774-.02-1.092-.254a1.493 1.493 0 0 1-.598-1.01 9.667 9.667 0 0 1-.026-.208zm3.136-2.562l.1-3.326s3.35.033 4.604-.1a3.305 3.305 0 0 0 1.023-.28c.15-.069.294-.154.427-.254 0 .16-.027.322-.082.482-.131.386-.41.702-.765.865-.217.1-.468.138-.709.163-1.58.166-3.083.278-4.533.345a46.61 46.61 0 0 1-.065 2.105z" fill="#000" opacity=".2"/><path d="M23.566 15.747c.177.339.203.735.073 1.117-.131.386-.41.702-.765.865-.217.1-.468.138-.709.163-1.58.166-3.083.278-4.533.345a50.637 50.637 0 0 1-.195 3.952l-.014.163c-.04.511-.084 1.04-.33 1.407a1.478 1.478 0 0 1-.946.617c-.385.07-.774-.02-1.092-.254a1.493 1.493 0 0 1-.598-1.01c-.06-.439-.088-.885-.115-1.331l-.039-.593c-.052-.682-.1-1.362-.145-2.044a64.748 64.748 0 0 1-.048-.833 50.26 50.26 0 0 1-3.912-.193l-.163-.014c-.512-.041-1.04-.084-1.408-.33a1.477 1.477 0 0 1-.617-.946 1.41 1.41 0 0 1 .253-1.093 1.499 1.499 0 0 1 1.01-.599c.44-.06.887-.087 1.332-.115l.593-.038a155.993 155.993 0 0 1 2.813-.19c.003-1.323.058-2.54.17-3.712l.027-.325c.034-.444.067-.862.216-1.21a1.46 1.46 0 0 1 .644-.726 1.405 1.405 0 0 1 1.116-.073c.386.132.702.41.864.765.102.217.138.47.164.709.163 1.557.275 3.039.343 4.47 1.34.002 2.567.057 3.75.17l.325.027c.443.034.863.068 1.21.216.321.137.58.365.726.643m-.333-1.563c-.5-.213-1.045-.256-1.525-.293l-.309-.025a40.374 40.374 0 0 0-2.86-.153 91.015 91.015 0 0 0-.302-3.597 3.318 3.318 0 0 0-.28-1.022 2.465 2.465 0 0 0-1.45-1.293 2.424 2.424 0 0 0-1.905.135c-.481.254-.87.685-1.098 1.216-.213.502-.256 1.046-.292 1.527l-.026.31a39.24 39.24 0 0 0-.153 2.86c-.637.043-1.274.088-1.91.136l-.58.039c-.468.03-.939.06-1.401.12a2.51 2.51 0 0 0-1.685 1.003 2.41 2.41 0 0 0-.432 1.86c.117.651.499 1.24 1.046 1.606.583.39 1.274.454 1.883.504l.158.028c1.075.093 2.076.16 3.057.196.043.64.087 1.282.137 1.923l.038.58c.03.468.06.939.12 1.4.09.673.458 1.287 1.003 1.687a2.419 2.419 0 0 0 1.86.43 2.464 2.464 0 0 0 1.606-1.045c.389-.584.454-1.275.504-1.883l.028-.158c.093-1.075.16-2.075.196-3.055a88.979 88.979 0 0 0 3.61-.303 3.305 3.305 0 0 0 1.023-.28 2.474 2.474 0 0 0 1.291-1.45 2.427 2.427 0 0 0-.134-1.905 2.466 2.466 0 0 0-1.218-1.098" fill="#000" opacity=".4"/></g></svg>