<svg xmlns="http://www.w3.org/2000/svg" viewBox="0 0 32 32">
<path class="currentColor-when-flat currentColor-when-mono" d="M16,3A13,13,0,1,0,29,16,13,13,0,0,0,16,3Zm0,22.75a1.63,1.63,0,1,1,1.63-1.62A1.63,1.63,0,0,1,16,25.75Zm2.8-9.3-.06,0c-.9.7-1,.93-1,2a1.73,1.73,0,1,1-3.46.12,5.13,5.13,0,0,1,2.33-4.89l.06,0a2.05,2.05,0,0,0,1.07-2.1,1.92,1.92,0,0,0-2.14-2.08,2,2,0,0,0-2.2,2.08,1.73,1.73,0,1,1-3.47,0,5.48,5.48,0,0,1,5.6-5.54,5.36,5.36,0,0,1,5.67,5.54A5.33,5.33,0,0,1,18.8,16.45Z" fill="#56d882"/>
<path class="hidden-when-flat" d="M16,4A12,12,0,1,1,4,16,12,12,0,0,1,16,4m0-1A13,13,0,1,0,29,16,13,13,0,0,0,16,3Z" fill="#203a44" opacity="0.4"/>
<path class="hidden-when-flat" d="M17,21.69a2.62,2.62,0,1,0,1.66,2.43A2.61,2.61,0,0,0,17,21.69Zm-1,4.06a1.63,1.63,0,1,1,1.63-1.62A1.63,1.63,0,0,1,16,25.75Z" fill="#203a44" opacity="0.4"/>
<path class="hidden-when-flat" d="M17.65,5.35A7.18,7.18,0,0,0,15.59,5h-.14a6.5,6.5,0,0,0-6.59,6.54,2.76,2.76,0,0,0,5.52,0c0-.92.76-1.07,1.22-1.08h0a1.9,1.9,0,0,1,.44,0,.83.83,0,0,1,.35.19,1.11,1.11,0,0,1,.27.82c0,.78,0,.78-.68,1.32l-.06,0a6.12,6.12,0,0,0-2.71,5.71A2.8,2.8,0,0,0,16,21.33h.09a2.73,2.73,0,0,0,2.64-2.83c0-.72,0-.72.62-1.22l.06,0a6.31,6.31,0,0,0,2.78-5.62A6.29,6.29,0,0,0,17.65,5.35Zm1.14,11.1-.06,0c-.9.7-1,.93-1,2a1.73,1.73,0,1,1-3.46.12,5.13,5.13,0,0,1,2.33-4.89l.06,0a2.05,2.05,0,0,0,1.07-2.1,1.92,1.92,0,0,0-2.14-2.08,2,2,0,0,0-2.2,2.08,1.73,1.73,0,1,1-3.47,0,5.48,5.48,0,0,1,5.6-5.54,5.36,5.36,0,0,1,5.67,5.54A5.33,5.33,0,0,1,18.8,16.45Z" fill="#203a44" opacity="0.4"/>
<circle class="hidden-when-flat" fill="#FFF" cx="16" cy="24.13" r="1.63"/>
<path class="hidden-when-flat" fill="#FFF" d="M15.53,6.07a5.48,5.48,0,0,0-5.6,5.54,1.73,1.73,0,1,0,3.47,0,2,2,0,0,1,2.2-2.08,1.92,1.92,0,0,1,2.14,2.08,2.05,2.05,0,0,1-1.07,2.1l-.06,0a5.13,5.13,0,0,0-2.33,4.89,1.73,1.73,0,1,0,3.46-.12c0-1.11.1-1.33,1-2l.06,0a5.33,5.33,0,0,0,2.4-4.83A5.36,5.36,0,0,0,15.53,6.07Z"/>
</svg>
