<svg width="32" height="32" viewBox="0 0 32 32" xmlns="http://www.w3.org/2000/svg"><title>Question</title><g fill="none" fill-rule="evenodd"><path d="M16 31C7.716 31 1 24.284 1 16 1 7.716 7.716 1 16 1c8.284 0 15 6.716 15 15 0 8.284-6.716 15-15 15z" fill="#2491BB"/><path d="M16 30c7.732 0 14-6.268 14-14S23.732 2 16 2 2 8.268 2 16s6.268 14 14 14zm0 1C7.716 31 1 24.284 1 16 1 7.716 7.716 1 16 1c8.284 0 15 6.716 15 15 0 8.284-6.716 15-15 15z" fill="#203A44" fill-rule="nonzero" opacity=".4"/><path d="M16 28a2 2 0 1 0 0-4 2 2 0 0 0 0 4z" fill="#FFF"/><path d="M16 28a2 2 0 1 0 0-4 2 2 0 0 0 0 4zm0 1a3 3 0 1 1 0-6 3 3 0 0 1 0 6z" fill="#203A44" fill-rule="nonzero" opacity=".4"/><path d="M12.988 10.937c0-1.455 1.046-2.369 2.538-2.396 1.48-.027 2.465.823 2.465 2.396 0 1.304-.195 1.618-1.23 2.428l-.073.056c-1.954 1.528-2.781 2.89-2.687 5.641A2 2 0 1 0 18 18.925c-.044-1.28.113-1.54 1.153-2.352l.073-.058c1.917-1.499 2.766-2.865 2.766-5.578 0-3.935-2.93-6.46-6.537-6.395-3.55.064-6.466 2.613-6.466 6.395a2 2 0 0 0 4 0z" fill="#FFF"/><path d="M12.988 10.937c0-1.455 1.046-2.369 2.538-2.396 1.48-.027 2.465.823 2.465 2.396 0 1.304-.195 1.618-1.23 2.428l-.073.056c-1.954 1.528-2.781 2.89-2.687 5.641A2 2 0 1 0 18 18.925c-.044-1.28.113-1.54 1.153-2.352l.073-.058c1.917-1.499 2.766-2.865 2.766-5.578 0-3.935-2.93-6.46-6.537-6.395-3.55.064-6.466 2.613-6.466 6.395a2 2 0 0 0 4 0zm1 0a3 3 0 0 1-6 0c0-4.227 3.244-7.32 7.448-7.395 4.28-.077 7.555 3.009 7.555 7.395 0 2.898-.881 4.592-3.15 6.366l-.074.058c-.817.64-.8.605-.769 1.53a3 3 0 0 1-5.996.206c-.102-2.949.754-4.653 3.07-6.464l.073-.056c.827-.646.846-.685.846-1.64 0-.965-.477-1.414-1.447-1.396-.996.018-1.556.535-1.556 1.396z" fill="#203A44" fill-rule="nonzero" opacity=".4"/></g></svg>