<svg width="32" height="32" viewBox="0 0 32 32" xmlns="http://www.w3.org/2000/svg"><title>Share</title><g fill="none" fill-rule="evenodd"><path d="M7.551 27.461c.27 1.385 1.706 2.4 3.096 2.455l1.068.036c3.216.09 7.168-.085 10.837-.436 1.782-.179 3.011-1.676 3.015-3.386.157-3.009.126-6.044-.202-9.04-.158-1.45-.266-2.876-1.612-3.769-1-.661-2.385-.648-3.55-.743a72.103 72.103 0 0 0-7.38-.204c-2.119.043-4.518.191-4.998 2.743l-.057.599c-.37 4.059-.332 11.154-.217 11.745" fill="#56D882"/><path d="M11.745 28.916c3.084.086 6.97-.074 10.7-.432 1.19-.12 2.064-1.123 2.067-2.407.165-3.15.109-6.092-.197-8.876l-.018-.173c-.19-1.766-.4-2.36-1.133-2.846-.384-.254-.92-.395-1.735-.473-.215-.021-.366-.032-.801-.06a31.056 31.056 0 0 1-.514-.038 70.913 70.913 0 0 0-7.269-.2c-2.727.055-3.708.439-3.97 1.802l-.056.596c-.303 3.322-.373 10.728-.23 11.457.163.839 1.12 1.573 2.099 1.614l1.057.036zm-1.098 1c-1.39-.056-2.825-1.07-3.096-2.455-.115-.59-.154-7.686.217-11.745l.057-.6c.48-2.55 2.88-2.699 4.998-2.742 2.457-.051 4.93.003 7.38.204 1.165.095 2.55.082 3.55.743 1.346.893 1.454 2.318 1.612 3.769.328 2.996.359 6.031.202 9.04-.004 1.71-1.233 3.207-3.015 3.386-3.67.351-7.621.527-10.837.436l-1.068-.036z" fill="#000" fill-rule="nonzero" opacity=".4"/><path d="M8.565 27.07c.584.487 1.34.79 2.082.82l1.068.037c3.216.09 7.168-.085 10.837-.437a3.294 3.294 0 0 0 1.898-.836c-.22.998-1 1.73-2.005 1.83-3.73.358-7.616.518-10.7.432l-1.057-.036c-.978-.041-1.936-.775-2.1-1.614a1.925 1.925 0 0 1-.023-.196z" fill="#000" opacity=".2"/><path d="M22.323 7.283a.57.57 0 0 0-.021-.1.447.447 0 0 0-.036-.097c-.006-.012-.006-.025-.013-.037-.828-1.331-2.615-3.351-4.347-4.912a.53.53 0 0 0-.597-.08C15.2 3.115 12.93 4.59 11.788 5.64c-.01.01-.014.022-.023.03a.55.55 0 0 0-.063.086c-.017.03-.034.057-.044.09-.006.013-.015.022-.02.035-.006.02 0 .041-.003.06a.466.466 0 0 0-.008.102.52.52 0 0 0 .017.099.414.414 0 0 0 .088.181c.011.017.015.035.03.05.01.01.022.014.032.023a.465.465 0 0 0 .085.06c.031.018.06.033.094.046.013.004.021.014.035.017.532.144 1.708.44 3.267.714-.43 3.97-.573 8.97-.34 13.555 0 .018.009.028.012.044a.512.512 0 0 0 .374.563c.346.093.67.132 1.024.132.38 0 .793-.045 1.3-.12a.518.518 0 0 0 .444-.588c0-.007-.005-.011-.006-.018.002-.024.013-.044.012-.071-.225-4.454-.082-9.274.342-13.063 1.064.105 2.198.172 3.366.173a.548.548 0 0 0 .247-.068c.008-.005.019-.003.028-.008.017-.01.028-.027.045-.04a.508.508 0 0 0 .175-.242.526.526 0 0 0 .02-.102c.003-.02.012-.037.012-.059 0-.013-.006-.024-.007-.037" fill="#73D4FA"/><path d="M18.562 6.638c-.361-.036-.71-.076-1.054-.119-.043.334-.084.678-.123 1.03-.416 3.764-.56 8.502-.357 12.893-.413.046-.744.06-1.05.023-.212-4.459-.072-9.247.344-13.062.038-.353.078-.695.121-1.03a43.621 43.621 0 0 1-1.046-.173c-.84-.15-1.562-.304-2.122-.436a27.18 27.18 0 0 1 2.437-1.632 32.261 32.261 0 0 1 1.75-.984 30.864 30.864 0 0 1 1.428 1.42 26.241 26.241 0 0 1 1.897 2.215 36.19 36.19 0 0 1-2.225-.145m3.76.645a.596.596 0 0 0-.056-.197c-.006-.012-.006-.025-.013-.037-.828-1.331-2.615-3.351-4.347-4.912a.534.534 0 0 0-.597-.08c-2.11 1.059-4.38 2.531-5.522 3.582-.01.01-.014.022-.021.03-.026.027-.044.056-.063.086a.474.474 0 0 0-.046.09c-.005.013-.015.022-.019.036-.005.02 0 .04-.003.06a.471.471 0 0 0 .096.381c.012.017.017.035.032.05.008.01.02.014.031.023a.432.432 0 0 0 .086.06c.03.018.06.033.094.046.013.004.02.014.034.017a39.07 39.07 0 0 0 3.268.714c-.431 3.97-.574 8.97-.342 13.556 0 .017.01.027.012.044-.03.25.12.493.375.562.346.093.67.132 1.024.132.381 0 .793-.045 1.3-.12a.519.519 0 0 0 .445-.588c-.001-.007-.006-.011-.007-.019.003-.023.013-.043.012-.07-.225-4.454-.082-9.273.342-13.063 1.064.105 2.199.171 3.365.173a.556.556 0 0 0 .248-.068c.009-.005.018-.003.028-.008.018-.01.027-.027.044-.04a.505.505 0 0 0 .078-.071.538.538 0 0 0 .118-.273c.003-.02.012-.037.012-.059 0-.012-.006-.024-.007-.037" fill="#000" opacity=".4"/></g></svg>