<svg xmlns="http://www.w3.org/2000/svg" viewBox="0 0 32 32">
<path class="currentColor-when-flat currentColor-when-mono" d="M11,27a15.69,15.69,0,0,0,15.8-15.8q0-.36,0-.72a11.29,11.29,0,0,0,2.77-2.88,11.07,11.07,0,0,1-3.19.87,5.57,5.57,0,0,0,2.44-3.07,11.14,11.14,0,0,1-3.53,1.35,5.56,5.56,0,0,0-9.46,5.06A15.77,15.77,0,0,1,4.35,6a5.56,5.56,0,0,0,1.72,7.41,5.51,5.51,0,0,1-2.51-.69s0,0,0,.07A5.55,5.55,0,0,0,8,18.25a5.54,5.54,0,0,1-2.51.1,5.56,5.56,0,0,0,5.19,3.86,11.14,11.14,0,0,1-6.9,2.38,11.28,11.28,0,0,1-1.32-.08A15.72,15.72,0,0,0,11,27" fill="#1da1f2"/></svg>
