<svg xmlns="http://www.w3.org/2000/svg" viewBox="0 0 32 32">
  <path class="hidden-when-mono hidden-when-flat" d="M27,6H5A3.91,3.91,0,0,0,1,9.81V22.19A3.91,3.91,0,0,0,5,26H27a3.91,3.91,0,0,0,4-3.81V9.81A3.91,3.91,0,0,0,27,6ZM6.86,20.18,5.1,13.54a5.05,5.05,0,0,1,1.71,1.15,4.74,4.74,0,0,1,1.11,1.69A6.91,6.91,0,0,0,2.67,12l0-.17H6.18a.86.86,0,0,1,1,.7l.76,3.84.22,1.16,2.11-5.7h2.29l-3.4,8.35Zm5.2,0,1.35-8.36h2.16l-1.35,8.36Zm8.64-.65a4.3,4.3,0,0,1-2.71.77,5.77,5.77,0,0,1-2.41-.44l.3-1.87.29.14a4.7,4.7,0,0,0,2,.43,1.88,1.88,0,0,0,.9-.21.65.65,0,0,0,.39-.6.69.69,0,0,0-.25-.51,3.6,3.6,0,0,0-.87-.53q-1.9-.94-1.89-2.27a2.42,2.42,0,0,1,1-2,4.22,4.22,0,0,1,2.62-.77,5.28,5.28,0,0,1,1.94.35l-.3,1.81-.2-.1a3.68,3.68,0,0,0-1.61-.31,1.64,1.64,0,0,0-.92.21.61.61,0,0,0-.32.5.63.63,0,0,0,.29.49,6.29,6.29,0,0,0,.92.55q1.82.89,1.82,2.27A2.56,2.56,0,0,1,20.69,19.54Zm6.63.65q-.2-1-.26-1.25H24.31l-.46,1.25H21.59l3.2-7.66a1.11,1.11,0,0,1,1.13-.7h1.67l1.74,8.36Z" fill="#f6f6f6"/>
  <path class="currentColor-when-mono currentColor-when-flat" d="M6.18,11.83H2.69l0,.17a6.91,6.91,0,0,1,5.25,4.38l-.76-3.84A.86.86,0,0,0,6.18,11.83Z" fill="#d97b16"/>
  <path class="currentColor-when-mono currentColor-when-flat" d="M19.48,17.76a.69.69,0,0,0-.25-.51,3.6,3.6,0,0,0-.87-.53q-1.9-.94-1.89-2.27a2.42,2.42,0,0,1,1-2,4.22,4.22,0,0,1,2.62-.77,5.28,5.28,0,0,1,1.94.35l-.3,1.81-.2-.1a3.68,3.68,0,0,0-1.61-.31,1.64,1.64,0,0,0-.92.21.61.61,0,0,0-.32.5.63.63,0,0,0,.29.49,6.29,6.29,0,0,0,.92.55q1.82.89,1.82,2.27a2.56,2.56,0,0,1-1,2.08,4.3,4.3,0,0,1-2.71.77,5.77,5.77,0,0,1-2.41-.44l.3-1.87.29.14a4.7,4.7,0,0,0,2,.43,1.88,1.88,0,0,0,.9-.21A.65.65,0,0,0,19.48,17.76Zm-7.42,2.43h2.16l1.35-8.36H13.41ZM8.14,17.54l-.22-1.16a4.74,4.74,0,0,0-1.11-1.69A5.05,5.05,0,0,0,5.1,13.54l1.76,6.64H9.14l3.4-8.35H10.24Zm19.45-5.7,1.74,8.36h-2q-.2-1-.26-1.25H24.31l-.46,1.25H21.59l3.2-7.66a1.11,1.11,0,0,1,1.13-.7Zm-.87,5.39-.49-2.41-.16-.72q0,.13-.12.34l-.13.34,0,.12-.86,2.33Z" fill="#265797"/>
  <polygon class="currentColor-when-mono currentColor-when-flat" points="31 9.81 31 9.81 31 9.81 31 9.81" fill="#265797"/>
  <path class="currentColor-when-mono currentColor-when-flat" d="M31,10V9.81A3.91,3.91,0,0,0,27,6H5A3.91,3.91,0,0,0,1,9.81V10Z" fill="#265797"/>
  <path class="currentColor-when-mono currentColor-when-flat" d="M1,21.93v.27A3.91,3.91,0,0,0,5,26H27a3.91,3.91,0,0,0,4-3.81v-.27Z" fill="#d97b16"/>
</svg>
