<svg xmlns="http://www.w3.org/2000/svg" viewBox="0 0 32 32"><title>business</title><path d="M30,11.66a2.33,2.33,0,0,0-1.23-1.9L17,3.3a2.43,2.43,0,0,0-2.36,0L3.28,9.76A2.33,2.33,0,0,0,2,11.66C2,12,2,12.5,2,13a1,1,0,0,0,1,1H5c0,.94,0,2.06,0,3,0,2,.1,5,.1,5a1,1,0,0,0,1,1,14,14,0,0,0,2.88,0,1,1,0,0,0,1-1s.1-3,.1-5c0-.89,0-2,0-3h3.59c0,.94,0,2.06,0,3,0,2,.1,5,.1,5a1,1,0,0,0,1,1,14,14,0,0,0,2.88,0,1,1,0,0,0,1-1s.1-3,.1-5c0-.89,0-2,0-3H22c0,.94,0,2.06,0,3,0,2,.1,5,.1,5a1,1,0,0,0,1,1,14,14,0,0,0,2.88,0,1,1,0,0,0,1-1s.1-3,.1-5c0-.89,0-2,0-3h2a1,1,0,0,0,1-1C30,12.5,30,12,30,11.66Z" fill="#203a44"/><path d="M28,25.1S18,25,16,25s-12,.1-12,.1a1,1,0,0,0-1,1,6,6,0,0,0,0,1.88,1,1,0,0,0,1,1S14,29,16,29s12-.1,12-.1a1,1,0,0,0,1-1V26.06A1,1,0,0,0,28,25.1Z" fill="#203a44"/></svg>