<svg xmlns="http://www.w3.org/2000/svg" xmlns:xlink="http://www.w3.org/1999/xlink" viewBox="0 0 32 32"><defs><style>.a,.b{fill:none;}.b{clip-rule:evenodd;}.c{clip-path:url(#a);}.d{clip-path:url(#b);}.e{clip-path:url(#c);}.f{clip-path:url(#d);}.g{clip-path:url(#e);}.h{fill:#203a44;}</style><clipPath id="a"><rect class="a" x="31" y="-2011.2" width="16" height="16" rx="4" ry="4"/></clipPath><clipPath id="b"><path class="b" d="M41.8-2013.2v10a1.7,1.7,0,0,1-1.7,1.8H38a1.7,1.7,0,0,1-1.7-1.7v-10l.8.8H35.6a2.3,2.3,0,0,1-2.2-2.2,2.2,2.2,0,0,1,.7-1.6l3.4-3.4a2.3,2.3,0,0,1,3.2,0l3.4,3.4a2.2,2.2,0,0,1,0,3.2,2.3,2.3,0,0,1-1.6.7H41Z"/></clipPath><clipPath id="c"><path class="b" d="M41-2013.2v10a1,1,0,0,1-1,1H38a1,1,0,0,1-1-1v-10H35.6a1.5,1.5,0,0,1-1.5-1.5,1.5,1.5,0,0,1,.4-1.1l3.4-3.4a1.5,1.5,0,0,1,2.1,0l3.4,3.4a1.5,1.5,0,0,1,0,2.1,1.5,1.5,0,0,1-1.1.4Zm-17.9-17.4H54.9v39.4H23.1Z"/></clipPath><clipPath id="d"><rect class="a" x="31" y="-2011.7" width="16" height="16" rx="4" ry="4"/></clipPath><clipPath id="e"><path class="b" d="M41-2013.7v10a1,1,0,0,1-1,1H38a1,1,0,0,1-1-1v-10H35.6a1.5,1.5,0,0,1-1.5-1.5,1.5,1.5,0,0,1,.4-1.1l3.4-3.4a1.5,1.5,0,0,1,2.1,0l3.4,3.4a1.5,1.5,0,0,1,0,2.1,1.5,1.5,0,0,1-1.1.4Z"/></clipPath></defs><title>calendar</title><path class="h" d="M29.8,8.2a1.8,1.8,0,0,0-1.7-1.7H24.2V4.8a1.8,1.8,0,1,0-3.5,0V6.3H11.3V4.8a1.8,1.8,0,1,0-3.5,0V6.4H3.9A1.8,1.8,0,0,0,2.2,8.2c-.3,6.4-.3,12.5,0,18.9a1.8,1.8,0,0,0,1.7,1.7L16,29l12.1-.2a1.8,1.8,0,0,0,1.7-1.7C30.1,20.7,30.1,14.6,29.8,8.2Zm-3.4,16a1.2,1.2,0,0,1-1.1,1.1H6.7a1.2,1.2,0,0,1-1.1-1.1c-.1-2.7-.1-5.5-.1-8.2a1.2,1.2,0,0,1,1.2-1.1H25.3A1.2,1.2,0,0,1,26.5,16C26.5,18.7,26.5,21.5,26.4,24.2Z"/><rect class="h" x="20" y="19" width="4" height="4" rx="1.3" ry="1.3"/></svg>