<svg xmlns="http://www.w3.org/2000/svg" xmlns:xlink="http://www.w3.org/1999/xlink" viewBox="0 0 32 32"><defs><style>.a,.b{fill:none;}.b{clip-rule:evenodd;}.c{fill:#203a44;}.d{clip-path:url(#a);}.e{clip-path:url(#b);}.f{clip-path:url(#c);}.g{clip-path:url(#d);}.h{clip-path:url(#e);}</style><clipPath id="a"><rect class="a" x="-113" y="-1819.2" width="16" height="16" rx="4" ry="4"/></clipPath><clipPath id="b"><path class="b" d="M-102.2-1821.2v10a1.7,1.7,0,0,1-1.7,1.8h-2a1.7,1.7,0,0,1-1.7-1.7v-10l.8.8h-1.4a2.3,2.3,0,0,1-2.2-2.2,2.2,2.2,0,0,1,.7-1.6l3.4-3.4a2.3,2.3,0,0,1,3.2,0l3.4,3.4a2.2,2.2,0,0,1,0,3.2,2.3,2.3,0,0,1-1.6.7H-103Z"/></clipPath><clipPath id="c"><path class="b" d="M-103-1821.2v10a1,1,0,0,1-1,1h-2a1,1,0,0,1-1-1v-10h-1.4a1.5,1.5,0,0,1-1.5-1.5,1.5,1.5,0,0,1,.4-1.1l3.4-3.4a1.5,1.5,0,0,1,2.1,0l3.4,3.4a1.5,1.5,0,0,1,0,2.1,1.5,1.5,0,0,1-1.1.4Zm-17.9-17.4h31.9v39.4h-31.9Z"/></clipPath><clipPath id="d"><rect class="a" x="-113" y="-1819.7" width="16" height="16" rx="4" ry="4"/></clipPath><clipPath id="e"><path class="b" d="M-103-1821.7v10a1,1,0,0,1-1,1h-2a1,1,0,0,1-1-1v-10h-1.4a1.5,1.5,0,0,1-1.5-1.5,1.5,1.5,0,0,1,.4-1.1l3.4-3.4a1.5,1.5,0,0,1,2.1,0l3.4,3.4a1.5,1.5,0,0,1,0,2.1,1.5,1.5,0,0,1-1.1.4Z"/></clipPath></defs><title>camera</title><path class="c" d="M29.8,10.5A1.8,1.8,0,0,0,28,8.8H24.4A1.5,1.5,0,0,1,23,7.6l-.3-1.1a1.8,1.8,0,0,0-1.6-1.3,54.8,54.8,0,0,0-9.6,0A1.8,1.8,0,0,0,9.9,6.5L9.6,7.6A1.5,1.5,0,0,1,8.2,8.7H4a1.8,1.8,0,0,0-1.8,1.7A129.2,129.2,0,0,0,2.2,25,1.9,1.9,0,0,0,4,26.8c8.2.3,15.8.3,24-.1A1.9,1.9,0,0,0,29.8,25,128.7,128.7,0,0,0,29.8,10.5ZM16,23.3a5.5,5.5,0,1,1,5.5-5.5A5.5,5.5,0,0,1,16,23.3Z"/></svg>