<svg xmlns="http://www.w3.org/2000/svg" viewBox="0 0 32 32"><title>circle-chevron-up</title><path d="M16,2A14,14,0,1,0,30,16,14,14,0,0,0,16,2Zm0,24A10,10,0,1,1,26,16,10,10,0,0,1,16,26Z" fill="#203a44"/><path d="M17.62,11.88a7.37,7.37,0,0,0-.62-.56,1.72,1.72,0,0,0-2,0,7.36,7.36,0,0,0-.62.56,51.26,51.26,0,0,0-4,4,1.81,1.81,0,0,0,.21,2.49,1.81,1.81,0,0,0,2.49.21c1.51-1.41,2-1.82,2.54-2.41a.5.5,0,0,1,.72,0c.58.59,1,1,2.54,2.41a1.94,1.94,0,0,0,2.7-2.7A51.27,51.27,0,0,0,17.62,11.88Z" fill="#203a44"/></svg>