<svg xmlns="http://www.w3.org/2000/svg" xmlns:xlink="http://www.w3.org/1999/xlink" viewBox="0 0 32 32"><defs><style>.a,.b{fill:none;}.b{clip-rule:evenodd;}.c{clip-path:url(#a);}.d{clip-path:url(#b);}.e{clip-path:url(#c);}.f{clip-path:url(#d);}.g{clip-path:url(#e);}.h{fill:#203a44;}</style><clipPath id="a"><rect class="a" x="-65" y="-1915.2" width="16" height="16" rx="4" ry="4"/></clipPath><clipPath id="b"><path class="b" d="M-54.2-1917.2v10a1.7,1.7,0,0,1-1.7,1.8h-2a1.7,1.7,0,0,1-1.7-1.7v-10l.8.8h-1.4a2.3,2.3,0,0,1-2.2-2.2,2.2,2.2,0,0,1,.7-1.6l3.4-3.4a2.3,2.3,0,0,1,3.2,0l3.4,3.4a2.2,2.2,0,0,1,0,3.2,2.3,2.3,0,0,1-1.6.7H-55Z"/></clipPath><clipPath id="c"><path class="b" d="M-55-1917.2v10a1,1,0,0,1-1,1h-2a1,1,0,0,1-1-1v-10h-1.4a1.5,1.5,0,0,1-1.5-1.5,1.5,1.5,0,0,1,.4-1.1l3.4-3.4a1.5,1.5,0,0,1,2.1,0l3.4,3.4a1.5,1.5,0,0,1,0,2.1,1.5,1.5,0,0,1-1.1.4Zm-17.9-17.4h31.9v39.4H-72.9Z"/></clipPath><clipPath id="d"><rect class="a" x="-65" y="-1915.7" width="16" height="16" rx="4" ry="4"/></clipPath><clipPath id="e"><path class="b" d="M-55-1917.7v10a1,1,0,0,1-1,1h-2a1,1,0,0,1-1-1v-10h-1.4a1.5,1.5,0,0,1-1.5-1.5,1.5,1.5,0,0,1,.4-1.1l3.4-3.4a1.5,1.5,0,0,1,2.1,0l3.4,3.4a1.5,1.5,0,0,1,0,2.1,1.5,1.5,0,0,1-1.1.4Z"/></clipPath></defs><title>circle-plus</title><path class="h" d="M16,30A14,14,0,1,1,30,16,14,14,0,0,1,16,30ZM16,6A10,10,0,1,0,26,16,10,10,0,0,0,16,6Z"/><path class="h" d="M20.6,14.4H17.7c0-1,0-1.9-.1-2.9A1.6,1.6,0,0,0,16,10a1.6,1.6,0,0,0-1.6,1.4c0,1-.1,1.9-.1,2.9H11.4A1.6,1.6,0,0,0,10,16a1.6,1.6,0,0,0,1.4,1.6h2.9c0,1,0,1.9.1,2.9A1.6,1.6,0,0,0,16,22a1.6,1.6,0,0,0,1.6-1.4c0-1,.1-1.9.1-2.9h2.9A1.6,1.6,0,0,0,22,16,1.6,1.6,0,0,0,20.6,14.4Z"/></svg>