<svg xmlns="http://www.w3.org/2000/svg" viewBox="0 0 32 32"><title>circle-chevron-right</title><path d="M16,2A14,14,0,1,0,30,16,14,14,0,0,0,16,2Zm0,24A10,10,0,1,1,26,16,10,10,0,0,1,16,26Z" fill="#203a44"/><path d="M18.59,13.1a1.81,1.81,0,0,0-.21-2.49,1.81,1.81,0,0,0-2.49-.21,51.26,51.26,0,0,0-4,4,7.36,7.36,0,0,0-.56.62,1.72,1.72,0,0,0,0,2,7.37,7.37,0,0,0,.56.62,51.27,51.27,0,0,0,4,4,1.94,1.94,0,0,0,2.7-2.7c-1.41-1.51-1.82-2-2.41-2.54a.5.5,0,0,1,0-.72C16.77,15.06,17.18,14.62,18.59,13.1Z" fill="#203a44"/></svg>