<svg xmlns="http://www.w3.org/2000/svg" xmlns:xlink="http://www.w3.org/1999/xlink" viewBox="0 0 32 32"><defs><style>.a,.b{fill:none;}.b{clip-rule:evenodd;}.c{clip-path:url(#a);}.d{clip-path:url(#b);}.e{clip-path:url(#c);}.f{clip-path:url(#d);}.g{clip-path:url(#e);}.h{fill:#203a44;}</style><clipPath id="a"><rect class="a" x="-113" y="-1915.2" width="16" height="16" rx="4" ry="4"/></clipPath><clipPath id="b"><path class="b" d="M-102.2-1917.2v10a1.7,1.7,0,0,1-1.7,1.8h-2a1.7,1.7,0,0,1-1.7-1.7v-10l.8.8h-1.4a2.3,2.3,0,0,1-2.2-2.2,2.2,2.2,0,0,1,.7-1.6l3.4-3.4a2.3,2.3,0,0,1,3.2,0l3.4,3.4a2.2,2.2,0,0,1,0,3.2,2.3,2.3,0,0,1-1.6.7H-103Z"/></clipPath><clipPath id="c"><path class="b" d="M-103-1917.2v10a1,1,0,0,1-1,1h-2a1,1,0,0,1-1-1v-10h-1.4a1.5,1.5,0,0,1-1.5-1.5,1.5,1.5,0,0,1,.4-1.1l3.4-3.4a1.5,1.5,0,0,1,2.1,0l3.4,3.4a1.5,1.5,0,0,1,0,2.1,1.5,1.5,0,0,1-1.1.4Zm-17.9-17.4h31.9v39.4h-31.9Z"/></clipPath><clipPath id="d"><rect class="a" x="-113" y="-1915.7" width="16" height="16" rx="4" ry="4"/></clipPath><clipPath id="e"><path class="b" d="M-103-1917.7v10a1,1,0,0,1-1,1h-2a1,1,0,0,1-1-1v-10h-1.4a1.5,1.5,0,0,1-1.5-1.5,1.5,1.5,0,0,1,.4-1.1l3.4-3.4a1.5,1.5,0,0,1,2.1,0l3.4,3.4a1.5,1.5,0,0,1,0,2.1,1.5,1.5,0,0,1-1.1.4Z"/></clipPath></defs><title>circle-chevron-left</title><path class="h" d="M16,30A14,14,0,1,1,30,16,14,14,0,0,1,16,30ZM16,6A10,10,0,1,0,26,16,10,10,0,0,0,16,6Z"/><path class="h" d="M20.7,15l-.6-.6a51.3,51.3,0,0,0-4-4,1.8,1.8,0,0,0-2.5.2,1.8,1.8,0,0,0-.2,2.5l2.4,2.5a.5.5,0,0,1,0,.7l-2.4,2.5a1.8,1.8,0,0,0,.2,2.5,1.8,1.8,0,0,0,2.5.2,51.3,51.3,0,0,0,4-4l.6-.6a1.7,1.7,0,0,0,0-2Z"/></svg>