<svg xmlns="http://www.w3.org/2000/svg" viewBox="0 0 32 32"><title>circle-plus</title><path d="M16,2A14,14,0,1,0,30,16,14,14,0,0,0,16,2Zm0,24A10,10,0,1,1,26,16,10,10,0,0,1,16,26Z" fill="#203a44"/><path d="M20.62,14.36c-1,0-1.94-.05-2.92-.06,0-1,0-1.94-.06-2.92A1.55,1.55,0,0,0,16,10a1.55,1.55,0,0,0-1.64,1.38c0,1-.05,1.94-.06,2.92-1,0-1.94,0-2.92.06A1.55,1.55,0,0,0,10,16a1.55,1.55,0,0,0,1.38,1.64c1,0,1.94.05,2.92.06,0,1,0,1.94.06,2.92A1.55,1.55,0,0,0,16,22a1.55,1.55,0,0,0,1.64-1.38c0-1,.05-1.94.06-2.92,1,0,1.94,0,2.92-.06A1.55,1.55,0,0,0,22,16,1.55,1.55,0,0,0,20.62,14.36Z" fill="#203a44"/></svg>