<svg xmlns="http://www.w3.org/2000/svg" xmlns:xlink="http://www.w3.org/1999/xlink" viewBox="0 0 32 32"><defs><style>.a,.b{fill:none;}.b{clip-rule:evenodd;}.c{clip-path:url(#a);}.d{clip-path:url(#b);}.e{clip-path:url(#c);}.f{clip-path:url(#d);}.g{clip-path:url(#e);}.h{fill:#203a44;}</style><clipPath id="a"><rect class="a" x="-17" y="-2011.2" width="16" height="16" rx="4" ry="4"/></clipPath><clipPath id="b"><path class="b" d="M-6.2-2013.2v10a1.7,1.7,0,0,1-1.7,1.8h-2a1.7,1.7,0,0,1-1.7-1.7v-10l.8.8h-1.4a2.3,2.3,0,0,1-2.2-2.2,2.2,2.2,0,0,1,.7-1.6l3.4-3.4a2.3,2.3,0,0,1,3.2,0l3.4,3.4a2.2,2.2,0,0,1,0,3.2,2.3,2.3,0,0,1-1.6.7H-7Z"/></clipPath><clipPath id="c"><path class="b" d="M-7-2013.2v10a1,1,0,0,1-1,1h-2a1,1,0,0,1-1-1v-10h-1.4a1.5,1.5,0,0,1-1.5-1.5,1.5,1.5,0,0,1,.4-1.1l3.4-3.4a1.5,1.5,0,0,1,2.1,0l3.4,3.4a1.5,1.5,0,0,1,0,2.1,1.5,1.5,0,0,1-1.1.4Zm-17.9-17.4H6.9v39.4H-24.9Z"/></clipPath><clipPath id="d"><rect class="a" x="-17" y="-2011.7" width="16" height="16" rx="4" ry="4"/></clipPath><clipPath id="e"><path class="b" d="M-7-2013.7v10a1,1,0,0,1-1,1h-2a1,1,0,0,1-1-1v-10h-1.4a1.5,1.5,0,0,1-1.5-1.5,1.5,1.5,0,0,1,.4-1.1l3.4-3.4a1.5,1.5,0,0,1,2.1,0l3.4,3.4a1.5,1.5,0,0,1,0,2.1,1.5,1.5,0,0,1-1.1.4Z"/></clipPath></defs><title>comment</title><path class="h" d="M29.6,8.4a6.4,6.4,0,0,0-5.1-4.9,82.5,82.5,0,0,0-17,0A6.4,6.4,0,0,0,2.4,8.4a40.2,40.2,0,0,0,0,11.2,6.4,6.4,0,0,0,5.1,4.9l2.4.2V30a1,1,0,0,0,1.7.7l6-5.9c2.3,0,4.5-.2,6.8-.4a6.3,6.3,0,0,0,5.1-4.8A40.2,40.2,0,0,0,29.6,8.4Z"/></svg>