<svg xmlns="http://www.w3.org/2000/svg" viewBox="0 0 32 32"><title>credit-card-ccv</title><path d="M30.56,7.09A1.8,1.8,0,0,0,28.9,5.48a172.55,172.55,0,0,0-25.74,0A1.8,1.8,0,0,0,1.5,7.09c-.08.83-.23,2.49-.34,3.91h29.7C30.77,9.57,30.64,7.92,30.56,7.09Z" fill="#203a44"/><path d="M1,15c0,3.19.18,7.21.45,9.9a1.81,1.81,0,0,0,1.66,1.61,173.16,173.16,0,0,0,25.78,0,1.81,1.81,0,0,0,1.66-1.62c.27-2.69.44-6.71.44-9.9Z" fill="#203a44"/><path d="M26.46,20.57q-3.46-.14-6.92,0a1.31,1.31,0,0,0-1,1.43,1.31,1.31,0,0,0,1,1.43q3.46.14,6.92,0a1.31,1.31,0,0,0,1-1.43A1.31,1.31,0,0,0,26.46,20.57Z" fill="#56d882"/></svg>