<svg xmlns="http://www.w3.org/2000/svg" xmlns:xlink="http://www.w3.org/1999/xlink" viewBox="0 0 32 32"><defs><style>.a,.b{fill:none;}.b{clip-rule:evenodd;}.c{clip-path:url(#a);}.d{clip-path:url(#b);}.e{clip-path:url(#c);}.f{clip-path:url(#d);}.g{clip-path:url(#e);}.h{fill:#203a44;}</style><clipPath id="a"><rect class="a" x="31" y="-1867.2" width="16" height="16" rx="4" ry="4"/></clipPath><clipPath id="b"><path class="b" d="M41.8-1869.2v10a1.7,1.7,0,0,1-1.7,1.8H38a1.7,1.7,0,0,1-1.7-1.7v-10l.8.8H35.6a2.3,2.3,0,0,1-2.2-2.2,2.2,2.2,0,0,1,.7-1.6l3.4-3.4a2.3,2.3,0,0,1,3.2,0l3.4,3.4a2.2,2.2,0,0,1,0,3.2,2.3,2.3,0,0,1-1.6.7H41Z"/></clipPath><clipPath id="c"><path class="b" d="M41-1869.2v10a1,1,0,0,1-1,1H38a1,1,0,0,1-1-1v-10H35.6a1.5,1.5,0,0,1-1.5-1.5,1.5,1.5,0,0,1,.4-1.1l3.4-3.4a1.5,1.5,0,0,1,2.1,0l3.4,3.4a1.5,1.5,0,0,1,0,2.1,1.5,1.5,0,0,1-1.1.4Zm-17.9-17.4H54.9v39.4H23.1Z"/></clipPath><clipPath id="d"><rect class="a" x="31" y="-1867.7" width="16" height="16" rx="4" ry="4"/></clipPath><clipPath id="e"><path class="b" d="M41-1869.7v10a1,1,0,0,1-1,1H38a1,1,0,0,1-1-1v-10H35.6a1.5,1.5,0,0,1-1.5-1.5,1.5,1.5,0,0,1,.4-1.1l3.4-3.4a1.5,1.5,0,0,1,2.1,0l3.4,3.4a1.5,1.5,0,0,1,0,2.1,1.5,1.5,0,0,1-1.1.4Z"/></clipPath></defs><title>cross</title><path class="h" d="M21.5,16l4.7-4.9a3.6,3.6,0,0,0-.4-4.9,3.6,3.6,0,0,0-4.9-.4L16,10.5,11.1,5.8a3.6,3.6,0,0,0-4.9.4,3.6,3.6,0,0,0-.4,4.9L10.5,16,5.8,20.9a3.6,3.6,0,0,0,.4,4.9,3.6,3.6,0,0,0,4.9.4L16,21.5l4.9,4.7a3.6,3.6,0,0,0,4.9-.4,3.6,3.6,0,0,0,.4-4.9Z"/></svg>