<svg xmlns="http://www.w3.org/2000/svg" xmlns:xlink="http://www.w3.org/1999/xlink" viewBox="0 0 32 32"><defs><style>.a,.b{fill:none;}.b{clip-rule:evenodd;}.c{clip-path:url(#a);}.d{clip-path:url(#b);}.e{clip-path:url(#c);}.f{clip-path:url(#d);}.g{clip-path:url(#e);}.h{fill:#203a44;}</style><clipPath id="a"><rect class="a" x="31" y="-1963.2" width="16" height="16" rx="4" ry="4"/></clipPath><clipPath id="b"><path class="b" d="M41.8-1965.2v10a1.7,1.7,0,0,1-1.7,1.8H38a1.7,1.7,0,0,1-1.7-1.7v-10l.8.8H35.6a2.3,2.3,0,0,1-2.2-2.2,2.2,2.2,0,0,1,.7-1.6l3.4-3.4a2.3,2.3,0,0,1,3.2,0l3.4,3.4a2.2,2.2,0,0,1,0,3.2,2.3,2.3,0,0,1-1.6.7H41Z"/></clipPath><clipPath id="c"><path class="b" d="M41-1965.2v10a1,1,0,0,1-1,1H38a1,1,0,0,1-1-1v-10H35.6a1.5,1.5,0,0,1-1.5-1.5,1.5,1.5,0,0,1,.4-1.1l3.4-3.4a1.5,1.5,0,0,1,2.1,0l3.4,3.4a1.5,1.5,0,0,1,0,2.1,1.5,1.5,0,0,1-1.1.4Zm-17.9-17.4H54.9v39.4H23.1Z"/></clipPath><clipPath id="d"><rect class="a" x="31" y="-1963.7" width="16" height="16" rx="4" ry="4"/></clipPath><clipPath id="e"><path class="b" d="M41-1965.7v10a1,1,0,0,1-1,1H38a1,1,0,0,1-1-1v-10H35.6a1.5,1.5,0,0,1-1.5-1.5,1.5,1.5,0,0,1,.4-1.1l3.4-3.4a1.5,1.5,0,0,1,2.1,0l3.4,3.4a1.5,1.5,0,0,1,0,2.1,1.5,1.5,0,0,1-1.1.4Z"/></clipPath></defs><title>cycling</title><path class="h" d="M7,19a6,6,0,1,0,6,6A6,6,0,0,0,7,19Zm0,8.4A2.4,2.4,0,1,1,9.4,25,2.4,2.4,0,0,1,7,27.4Z"/><path class="h" d="M25,19a6,6,0,1,0,6,6A6,6,0,0,0,25,19Zm0,8.5A2.5,2.5,0,1,1,27.5,25,2.5,2.5,0,0,1,25,27.5Z"/><circle class="h" cx="26" cy="5" r="4"/><path class="h" d="M27.3,11.6H25.7a3.7,3.7,0,0,1-1.7-.2,8.2,8.2,0,0,1-1.8-1.3C21.2,9,20.1,8,18.6,8h0c-3.9,0-8.4,4.4-8.8,5.4A3.5,3.5,0,0,0,11,17.6l2.9,2.4c.6.6,1.1.8,1,1.5s-.2,1.4-.3,2.1l-.2,1.7A1.3,1.3,0,0,0,15.6,27a1.5,1.5,0,0,0,1.7-.8,22.8,22.8,0,0,0,.7-2.3c.3-.9.5-1.9.7-2.4.9-2.5-.3-4-2.4-5.9a.9.9,0,0,1-.4-.5h0c0-.2.3-.6,1.1-1a4.2,4.2,0,0,1,3.1-.5l.9.4,1.4.6a7.2,7.2,0,0,0,3.1.2h1c.6,0,1.6-.1,1.9-1.2A1.6,1.6,0,0,0,27.3,11.6Z"/></svg>