<svg xmlns="http://www.w3.org/2000/svg" viewBox="0 0 32 32"><title>cycling</title><path d="M7,19a6,6,0,1,0,6,6A6,6,0,0,0,7,19Zm0,8.38A2.38,2.38,0,1,1,9.38,25,2.38,2.38,0,0,1,7,27.38Z" fill="#203a44"/><path d="M25,19a6,6,0,1,0,6,6A6,6,0,0,0,25,19Zm0,8.5A2.5,2.5,0,1,1,27.5,25,2.5,2.5,0,0,1,25,27.5Z" fill="#203a44"/><circle cx="26" cy="5" r="4" fill="#203a44"/><path d="M27.27,11.55a5.81,5.81,0,0,0-1.6-.1,3.69,3.69,0,0,1-1.69-.2A8.16,8.16,0,0,1,22.21,9.9C21.18,9,20.11,8,18.59,8h0c-3.87,0-8.39,4.44-8.79,5.36A3.54,3.54,0,0,0,11,17.65c.73.53,2.6,2.13,2.93,2.43.64.59,1.15.76,1,1.49s-.21,1.36-.3,2.09c-.05.47-.12,1-.21,1.69A1.29,1.29,0,0,0,15.61,27a1.49,1.49,0,0,0,1.69-.78A22.78,22.78,0,0,0,18,23.87c.26-.92.52-1.88.69-2.36.9-2.54-.25-4-2.42-5.93a.89.89,0,0,1-.35-.53h0c0-.16.35-.57,1.11-1a4.16,4.16,0,0,1,3.1-.52l.92.39c.47.21.94.41,1.43.59a7.22,7.22,0,0,0,3.05.18c.31,0,.63-.05,1-.07.62,0,1.65-.06,1.94-1.15A1.56,1.56,0,0,0,27.27,11.55Z" fill="#203a44"/></svg>