<svg xmlns="http://www.w3.org/2000/svg" xmlns:xlink="http://www.w3.org/1999/xlink" viewBox="0 0 32 32"><defs><style>.a,.b{fill:none;}.b{clip-rule:evenodd;}.c{clip-path:url(#a);}.d{clip-path:url(#b);}.e{clip-path:url(#c);}.f{clip-path:url(#d);}.g{clip-path:url(#e);}.h{fill:#203a44;}</style><clipPath id="a"><rect class="a" x="-209" y="-1963.2" width="16" height="16" rx="4" ry="4"/></clipPath><clipPath id="b"><path class="b" d="M-198.2-1965.2v10a1.7,1.7,0,0,1-1.7,1.8h-2a1.7,1.7,0,0,1-1.7-1.7v-10l.8.8h-1.4a2.3,2.3,0,0,1-2.2-2.2,2.2,2.2,0,0,1,.7-1.6l3.4-3.4a2.3,2.3,0,0,1,3.2,0l3.4,3.4a2.2,2.2,0,0,1,0,3.2,2.3,2.3,0,0,1-1.6.7H-199Z"/></clipPath><clipPath id="c"><path class="b" d="M-199-1965.2v10a1,1,0,0,1-1,1h-2a1,1,0,0,1-1-1v-10h-1.4a1.5,1.5,0,0,1-1.5-1.5,1.5,1.5,0,0,1,.4-1.1l3.4-3.4a1.5,1.5,0,0,1,2.1,0l3.4,3.4a1.5,1.5,0,0,1,0,2.1,1.5,1.5,0,0,1-1.1.4Zm-17.9-17.4h31.9v39.4h-31.9Z"/></clipPath><clipPath id="d"><rect class="a" x="-209" y="-1963.7" width="16" height="16" rx="4" ry="4"/></clipPath><clipPath id="e"><path class="b" d="M-199-1965.7v10a1,1,0,0,1-1,1h-2a1,1,0,0,1-1-1v-10h-1.4a1.5,1.5,0,0,1-1.5-1.5,1.5,1.5,0,0,1,.4-1.1l3.4-3.4a1.5,1.5,0,0,1,2.1,0l3.4,3.4a1.5,1.5,0,0,1,0,2.1,1.5,1.5,0,0,1-1.1.4Z"/></clipPath></defs><title>fitness</title><path class="h" d="M7.3,16.9H8.8c.6,0,.7-.3.9-.7s1.7-6.2,2-6.8,1.7-1.4,2.4.2,1.4,3.6,2.1,5.3l.2.6a1.1,1.1,0,0,0,1.9.2c.1-.1.9-1.3,1.5-1.4s2.2,1.9,2.4,2.2.3.5.7.5l4.8.2a1.1,1.1,0,0,0,1-.5c1.6-3.1,2.5-6.9-.6-10.1A8.2,8.2,0,0,0,21.4,4,8.1,8.1,0,0,0,16.7,6a1.1,1.1,0,0,1-1.4,0A8.1,8.1,0,0,0,9.5,4,8,8,0,0,0,3,7.8c-1.5,2.7-1.1,5.7.4,8.5a1.1,1.1,0,0,0,1,.6Z"/><path class="h" d="M19,16h0S19,15.9,19,16Z"/><path class="h" d="M13.8,10h0Z"/><path class="h" d="M21.9,19.3a1.1,1.1,0,0,1-.7-.2l-.8-.8a.3.3,0,0,0-.5.1l-2,3.8a1.5,1.5,0,0,1-1.7.6,1.6,1.6,0,0,1-1-.7,64.5,64.5,0,0,1-2.2-6.5c-.2-.7-.8-.6-1,0s-1,3-1.2,3.4a1.2,1.2,0,0,1-1,.4H5.4a.4.4,0,0,0-.3.6,26.4,26.4,0,0,0,3.1,3.4,32.6,32.6,0,0,0,4,3.1,15.8,15.8,0,0,0,2.4,1.3L16,28a3.8,3.8,0,0,0,1.6-.4,23.4,23.4,0,0,0,4.3-2.7,26.7,26.7,0,0,0,3.8-3.5l1.3-1.6a.4.4,0,0,0-.3-.6Z"/></svg>