<svg xmlns="http://www.w3.org/2000/svg" xmlns:xlink="http://www.w3.org/1999/xlink" viewBox="0 0 32 32"><defs><style>.a,.b{fill:none;}.b{clip-rule:evenodd;}.c{clip-path:url(#a);}.d{clip-path:url(#b);}.e{clip-path:url(#c);}.f{clip-path:url(#d);}.g{clip-path:url(#e);}.h{fill:#203a44;}</style><clipPath id="a"><rect class="a" x="-257" y="-1963.2" width="16" height="16" rx="4" ry="4"/></clipPath><clipPath id="b"><path class="b" d="M-246.2-1965.2v10a1.7,1.7,0,0,1-1.7,1.8h-2a1.7,1.7,0,0,1-1.7-1.7v-10l.8.8h-1.4a2.3,2.3,0,0,1-2.2-2.2,2.2,2.2,0,0,1,.7-1.6l3.4-3.4a2.3,2.3,0,0,1,3.2,0l3.4,3.4a2.2,2.2,0,0,1,0,3.2,2.3,2.3,0,0,1-1.6.7H-247Z"/></clipPath><clipPath id="c"><path class="b" d="M-247-1965.2v10a1,1,0,0,1-1,1h-2a1,1,0,0,1-1-1v-10h-1.4a1.5,1.5,0,0,1-1.5-1.5,1.5,1.5,0,0,1,.4-1.1l3.4-3.4a1.5,1.5,0,0,1,2.1,0l3.4,3.4a1.5,1.5,0,0,1,0,2.1,1.5,1.5,0,0,1-1.1.4Zm-17.9-17.4h31.9v39.4h-31.9Z"/></clipPath><clipPath id="d"><rect class="a" x="-257" y="-1963.7" width="16" height="16" rx="4" ry="4"/></clipPath><clipPath id="e"><path class="b" d="M-247-1965.7v10a1,1,0,0,1-1,1h-2a1,1,0,0,1-1-1v-10h-1.4a1.5,1.5,0,0,1-1.5-1.5,1.5,1.5,0,0,1,.4-1.1l3.4-3.4a1.5,1.5,0,0,1,2.1,0l3.4,3.4a1.5,1.5,0,0,1,0,2.1,1.5,1.5,0,0,1-1.1.4Z"/></clipPath></defs><title>globe</title><path class="h" d="M16,2h0a14,14,0,0,0,0,28h0A14,14,0,0,0,16,2Zm4,19.5c-.5.8-.4,1.3-1.5,1.9s-1,.4-1.4,1.3-.9.8-2.2,1.5-1.9,0-2-.5a6.1,6.1,0,0,1,.2-1.8s.1-.4-.8-.8-1.1-3.2-.6-4.3a1,1,0,0,0-.2-1.1,7.3,7.3,0,0,0-3.3-1.7,3.9,3.9,0,0,1-2.8-2.2,1,1,0,0,1-.1-.8A11.1,11.1,0,0,1,8.1,8.1,11.2,11.2,0,0,1,16,4.7h1.5c.2,0,.4.2.2.4a9.3,9.3,0,0,1-2.3,1.8c-1.3.5-1.9,1.3-1.9,2.1s.9,1.2.9,2.2-1.2,1.7-1.4,1-1.6-1.2-3.1-1S7.5,13.3,8.4,14s.9-.2,1.3-.5.6-.4.9,0,.9.6.8,1.3-.2,1.4.8,1.4a2.6,2.6,0,0,1,1.7.5,5.9,5.9,0,0,0,1.8.4c.5.1,1.2,1.1,1.2,1.1a5.7,5.7,0,0,1,2.5,1.1C19.9,19.8,20.5,20.8,20,21.5Zm5.3.6a.2.2,0,0,1-.3,0v-.2a5.2,5.2,0,0,1,.3-2.6,4.1,4.1,0,0,0-.1-2.2c-.1-.2-.1-.6-.5-.5a4.5,4.5,0,0,1-1.8-.1A2,2,0,0,1,21.5,15a4.7,4.7,0,0,1,0-2.2c.2-.6.8-.8,1.2-1.1s1.3-.3,1.3-.9-2.6.1-2.7-.7a2.8,2.8,0,0,1,.2-1.8c.3-.7-.1-.6-.1-1.4a.3.3,0,0,1,.5-.3,12.1,12.1,0,0,1,1.9,1.5,11.2,11.2,0,0,1,1.5,14Z"/></svg>