<svg xmlns="http://www.w3.org/2000/svg" xmlns:xlink="http://www.w3.org/1999/xlink" viewBox="0 0 32 32"><defs><style>.a,.b{fill:none;}.b{clip-rule:evenodd;}.c{fill:#203a44;}.d{clip-path:url(#a);}.e{clip-path:url(#b);}.f{clip-path:url(#c);}.g{clip-path:url(#d);}.h{clip-path:url(#e);}</style><clipPath id="a"><rect class="a" x="31" y="-1819.2" width="16" height="16" rx="4" ry="4"/></clipPath><clipPath id="b"><path class="b" d="M41.8-1821.2v10a1.7,1.7,0,0,1-1.7,1.8H38a1.7,1.7,0,0,1-1.7-1.7v-10l.8.8H35.6a2.3,2.3,0,0,1-2.2-2.2,2.2,2.2,0,0,1,.7-1.6l3.4-3.4a2.3,2.3,0,0,1,3.2,0l3.4,3.4a2.2,2.2,0,0,1,0,3.2,2.3,2.3,0,0,1-1.6.7H41Z"/></clipPath><clipPath id="c"><path class="b" d="M41-1821.2v10a1,1,0,0,1-1,1H38a1,1,0,0,1-1-1v-10H35.6a1.5,1.5,0,0,1-1.5-1.5,1.5,1.5,0,0,1,.4-1.1l3.4-3.4a1.5,1.5,0,0,1,2.1,0l3.4,3.4a1.5,1.5,0,0,1,0,2.1,1.5,1.5,0,0,1-1.1.4Zm-17.9-17.4H54.9v39.4H23.1Z"/></clipPath><clipPath id="d"><rect class="a" x="31" y="-1819.7" width="16" height="16" rx="4" ry="4"/></clipPath><clipPath id="e"><path class="b" d="M41-1821.7v10a1,1,0,0,1-1,1H38a1,1,0,0,1-1-1v-10H35.6a1.5,1.5,0,0,1-1.5-1.5,1.5,1.5,0,0,1,.4-1.1l3.4-3.4a1.5,1.5,0,0,1,2.1,0l3.4,3.4a1.5,1.5,0,0,1,0,2.1,1.5,1.5,0,0,1-1.1.4Z"/></clipPath></defs><title>heart</title><path class="c" d="M27.9,6.4A8,8,0,0,0,21.4,4,7.9,7.9,0,0,0,16,6.8,8,8,0,0,0,9.5,4,8,8,0,0,0,3,7.9c-2.8,5,.9,11.1,5.4,15.3a32.2,32.2,0,0,0,4,3.1,15.4,15.4,0,0,0,2.3,1.4L16,28a3.6,3.6,0,0,0,1.6-.4,23,23,0,0,0,4.2-2.8,26.6,26.6,0,0,0,3.7-3.5C27.9,18.5,32.8,11.6,27.9,6.4Z"/></svg>