<svg xmlns="http://www.w3.org/2000/svg" xmlns:xlink="http://www.w3.org/1999/xlink" viewBox="0 0 32 32"><defs><style>.a,.b{fill:none;}.b{clip-rule:evenodd;}.c{clip-path:url(#a);}.d{clip-path:url(#b);}.e{clip-path:url(#c);}.f{clip-path:url(#d);}.g{clip-path:url(#e);}.h{fill:#203a44;}</style><clipPath id="a"><rect class="a" x="-209" y="-1819.2" width="16" height="16" rx="4" ry="4"/></clipPath><clipPath id="b"><path class="b" d="M-198.2-1821.2v10a1.7,1.7,0,0,1-1.7,1.8h-2a1.7,1.7,0,0,1-1.7-1.7v-10l.8.8h-1.4a2.3,2.3,0,0,1-2.2-2.2,2.2,2.2,0,0,1,.7-1.6l3.4-3.4a2.3,2.3,0,0,1,3.2,0l3.4,3.4a2.2,2.2,0,0,1,0,3.2,2.3,2.3,0,0,1-1.6.7H-199Z"/></clipPath><clipPath id="c"><path class="b" d="M-199-1821.2v10a1,1,0,0,1-1,1h-2a1,1,0,0,1-1-1v-10h-1.4a1.5,1.5,0,0,1-1.5-1.5,1.5,1.5,0,0,1,.4-1.1l3.4-3.4a1.5,1.5,0,0,1,2.1,0l3.4,3.4a1.5,1.5,0,0,1,0,2.1,1.5,1.5,0,0,1-1.1.4Zm-17.9-17.4h31.9v39.4h-31.9Z"/></clipPath><clipPath id="d"><rect class="a" x="-209" y="-1819.7" width="16" height="16" rx="4" ry="4"/></clipPath><clipPath id="e"><path class="b" d="M-199-1821.7v10a1,1,0,0,1-1,1h-2a1,1,0,0,1-1-1v-10h-1.4a1.5,1.5,0,0,1-1.5-1.5,1.5,1.5,0,0,1,.4-1.1l3.4-3.4a1.5,1.5,0,0,1,2.1,0l3.4,3.4a1.5,1.5,0,0,1,0,2.1,1.5,1.5,0,0,1-1.1.4Z"/></clipPath></defs><title>share</title><path class="h" d="M10,10.3h2.5a1,1,0,0,1,1,1l.4,4.6A2.2,2.2,0,0,0,16,18h0a2.2,2.2,0,0,0,2.2-2.1l.4-4.6a1,1,0,0,1,1-1H22a1,1,0,0,0,.8-1.7c-1.9-2.3-4-4.2-6-6.3a1,1,0,0,0-1.4,0c-2,2.1-4.2,4.1-6,6.3A1,1,0,0,0,10,10.3Z"/><path class="h" d="M27.8,15.3A1.4,1.4,0,0,0,26.4,14H23.5A1.6,1.6,0,0,0,22,15.6c.1,2.5,0,4.8-.1,7.3a.9.9,0,0,1-.7.9H10.8a.9.9,0,0,1-.7-.9c-.1-2.5-.1-4.9-.1-7.3A1.6,1.6,0,0,0,8.5,14H5.6a1.4,1.4,0,0,0-1.5,1.3,128.2,128.2,0,0,0,0,13.1,1.5,1.5,0,0,0,1.4,1.4L16,30l10.4-.2a1.5,1.5,0,0,0,1.4-1.4A128.2,128.2,0,0,0,27.8,15.3Z"/></svg>