<svg xmlns="http://www.w3.org/2000/svg" xmlns:xlink="http://www.w3.org/1999/xlink" viewBox="0 0 32 32"><defs><style>.a,.b{fill:none;}.b{clip-rule:evenodd;}.c{fill:#203a44;}.d{clip-path:url(#a);}.e{clip-path:url(#b);}.f{clip-path:url(#c);}.g{clip-path:url(#d);}.h{clip-path:url(#e);}</style><clipPath id="a"><rect class="a" x="-161" y="-1819.2" width="16" height="16" rx="4" ry="4"/></clipPath><clipPath id="b"><path class="b" d="M-150.2-1821.2v10a1.7,1.7,0,0,1-1.7,1.8h-2a1.7,1.7,0,0,1-1.7-1.7v-10l.8.8h-1.4a2.3,2.3,0,0,1-2.2-2.2,2.2,2.2,0,0,1,.7-1.6l3.4-3.4a2.3,2.3,0,0,1,3.2,0l3.4,3.4a2.2,2.2,0,0,1,0,3.2,2.3,2.3,0,0,1-1.6.7H-151Z"/></clipPath><clipPath id="c"><path class="b" d="M-151-1821.2v10a1,1,0,0,1-1,1h-2a1,1,0,0,1-1-1v-10h-1.4a1.5,1.5,0,0,1-1.5-1.5,1.5,1.5,0,0,1,.4-1.1l3.4-3.4a1.5,1.5,0,0,1,2.1,0l3.4,3.4a1.5,1.5,0,0,1,0,2.1,1.5,1.5,0,0,1-1.1.4Zm-17.9-17.4h31.9v39.4h-31.9Z"/></clipPath><clipPath id="d"><rect class="a" x="-161" y="-1819.7" width="16" height="16" rx="4" ry="4"/></clipPath><clipPath id="e"><path class="b" d="M-151-1821.7v10a1,1,0,0,1-1,1h-2a1,1,0,0,1-1-1v-10h-1.4a1.5,1.5,0,0,1-1.5-1.5,1.5,1.5,0,0,1,.4-1.1l3.4-3.4a1.5,1.5,0,0,1,2.1,0l3.4,3.4a1.5,1.5,0,0,1,0,2.1,1.5,1.5,0,0,1-1.1.4Z"/></clipPath></defs><title>star</title><path class="c" d="M17.7,3.1l3.1,6.5a1,1,0,0,0,.8.6l6.9,1a2,2,0,0,1,1,3.3l-5,5.1a1.1,1.1,0,0,0-.3.9l1.2,7.2a1.9,1.9,0,0,1-2.7,2l-6.2-3.4a1,1,0,0,0-.9,0L9.4,29.8a1.9,1.9,0,0,1-2.7-2l1.2-7.2a1.1,1.1,0,0,0-.3-.9l-5-5.1a2,2,0,0,1,1-3.3l6.9-1a1,1,0,0,0,.8-.6l3.1-6.5A1.8,1.8,0,0,1,17.7,3.1Z"/></svg>