<svg xmlns="http://www.w3.org/2000/svg" xmlns:xlink="http://www.w3.org/1999/xlink" viewBox="0 0 32 32"><defs><style>.a,.b{fill:none;}.b{clip-rule:evenodd;}.c{clip-path:url(#a);}.d{clip-path:url(#b);}.e{clip-path:url(#c);}.f{clip-path:url(#d);}.g{clip-path:url(#e);}.h{fill:#203a44;}</style><clipPath id="a"><rect class="a" x="-257" y="-1819.2" width="16" height="16" rx="4" ry="4"/></clipPath><clipPath id="b"><path class="b" d="M-246.2-1821.2v10a1.7,1.7,0,0,1-1.7,1.8h-2a1.7,1.7,0,0,1-1.7-1.7v-10l.8.8h-1.4a2.3,2.3,0,0,1-2.2-2.2,2.2,2.2,0,0,1,.7-1.6l3.4-3.4a2.3,2.3,0,0,1,3.2,0l3.4,3.4a2.2,2.2,0,0,1,0,3.2,2.3,2.3,0,0,1-1.6.7H-247Z"/></clipPath><clipPath id="c"><path class="b" d="M-247-1821.2v10a1,1,0,0,1-1,1h-2a1,1,0,0,1-1-1v-10h-1.4a1.5,1.5,0,0,1-1.5-1.5,1.5,1.5,0,0,1,.4-1.1l3.4-3.4a1.5,1.5,0,0,1,2.1,0l3.4,3.4a1.5,1.5,0,0,1,0,2.1,1.5,1.5,0,0,1-1.1.4Zm-17.9-17.4h31.9v39.4h-31.9Z"/></clipPath><clipPath id="d"><rect class="a" x="-257" y="-1819.7" width="16" height="16" rx="4" ry="4"/></clipPath><clipPath id="e"><path class="b" d="M-247-1821.7v10a1,1,0,0,1-1,1h-2a1,1,0,0,1-1-1v-10h-1.4a1.5,1.5,0,0,1-1.5-1.5,1.5,1.5,0,0,1,.4-1.1l3.4-3.4a1.5,1.5,0,0,1,2.1,0l3.4,3.4a1.5,1.5,0,0,1,0,2.1,1.5,1.5,0,0,1-1.1.4Z"/></clipPath></defs><title>story</title><path class="h" d="M7.8,20.8A37.6,37.6,0,0,1,13.8,22,.9.9,0,0,0,15,21V6.1C15,3.8,11.3,3.2,8.9,3A1.9,1.9,0,0,0,7,5.1V19.7A1,1,0,0,0,7.8,20.8Z"/><path class="h" d="M18.1,22a37.6,37.6,0,0,1,6.1-1.2,1,1,0,0,0,.8-1V5.1A1.9,1.9,0,0,0,23.1,3c-2.4.2-6.1.8-6.1,3.1V21A.9.9,0,0,0,18.1,22Z"/><path class="h" d="M30.9,5.2c0-1.3-3.9-1.9-3.9.2V21.1a2.3,2.3,0,0,1-1.8,2c-5,.9-5.2.9-8.7,1.8H15.4c-3.5-.9-3.7-.9-8.7-1.8a2.3,2.3,0,0,1-1.8-2V5.4c0-2.1-3.9-1.5-3.9-.2S1,10.5,1,14.9,1.1,25,1.1,25s.6,1.9,1.5,2C10,28,13,29,16,29s6-1,13.4-2c.8-.1,1.5-1.3,1.5-2s.1-5.1.1-10.2S30.9,6.1,30.9,5.2Z"/></svg>