<svg xmlns="http://www.w3.org/2000/svg" xmlns:xlink="http://www.w3.org/1999/xlink" viewBox="0 0 32 32"><defs><style>.a,.b{fill:none;}.b{clip-rule:evenodd;}.c{clip-path:url(#a);}.d{clip-path:url(#b);}.e{clip-path:url(#c);}.f{clip-path:url(#d);}.g{clip-path:url(#e);}.h{fill:#203a44;}</style><clipPath id="a"><rect class="a" x="-161" y="-1963.2" width="16" height="16" rx="4" ry="4"/></clipPath><clipPath id="b"><path class="b" d="M-150.2-1965.2v10a1.7,1.7,0,0,1-1.7,1.8h-2a1.7,1.7,0,0,1-1.7-1.7v-10l.8.8h-1.4a2.3,2.3,0,0,1-2.2-2.2,2.2,2.2,0,0,1,.7-1.6l3.4-3.4a2.3,2.3,0,0,1,3.2,0l3.4,3.4a2.2,2.2,0,0,1,0,3.2,2.3,2.3,0,0,1-1.6.7H-151Z"/></clipPath><clipPath id="c"><path class="b" d="M-151-1965.2v10a1,1,0,0,1-1,1h-2a1,1,0,0,1-1-1v-10h-1.4a1.5,1.5,0,0,1-1.5-1.5,1.5,1.5,0,0,1,.4-1.1l3.4-3.4a1.5,1.5,0,0,1,2.1,0l3.4,3.4a1.5,1.5,0,0,1,0,2.1,1.5,1.5,0,0,1-1.1.4Zm-17.9-17.4h31.9v39.4h-31.9Z"/></clipPath><clipPath id="d"><rect class="a" x="-161" y="-1963.7" width="16" height="16" rx="4" ry="4"/></clipPath><clipPath id="e"><path class="b" d="M-151-1965.7v10a1,1,0,0,1-1,1h-2a1,1,0,0,1-1-1v-10h-1.4a1.5,1.5,0,0,1-1.5-1.5,1.5,1.5,0,0,1,.4-1.1l3.4-3.4a1.5,1.5,0,0,1,2.1,0l3.4,3.4a1.5,1.5,0,0,1,0,2.1,1.5,1.5,0,0,1-1.1.4Z"/></clipPath></defs><title>swimming</title><circle class="h" cx="24" cy="15" r="4"/><path class="h" d="M30.9,21.8a1.4,1.4,0,0,0-1.9-.9h-.1a13.6,13.6,0,0,1-6.1,1,15.7,15.7,0,0,1-3.1-.5L18.2,21l-1.4-.6a14.4,14.4,0,0,0-7.8-1.8,15.6,15.6,0,0,0-7.4,2.4,1.5,1.5,0,0,0-.6,1.6,1.3,1.3,0,0,0,1.7.9h.1A18.1,18.1,0,0,1,6,22.8a16.2,16.2,0,0,1,3.2-.2A12.5,12.5,0,0,1,15,24.2L17,25l1.9.6a16.5,16.5,0,0,0,3.9.4,13.6,13.6,0,0,0,7.5-2.3A1.6,1.6,0,0,0,30.9,21.8Z"/><path class="h" d="M8.2,16.1A14.9,14.9,0,0,1,16,17l1.4.4c.4.1,1.4.4,1.2-.4s-.3-1.3-.5-1.8l-.4-1.3a5.4,5.4,0,0,1,2.1-5.6,22.7,22.7,0,0,1,3.7-2.1c1-.4.6-2.2-.7-2.2a9.5,9.5,0,0,0-7.2,3.8c-.2.3-1.9,2.5-2.3,2.9a3.2,3.2,0,0,1-1.5.9,13.5,13.5,0,0,0-5,3C5.2,16.1,6.2,16.4,8.2,16.1Z"/></svg>