<svg xmlns="http://www.w3.org/2000/svg" viewBox="0 0 32 32"><title>swimming</title><circle cx="24" cy="15" r="4" fill="#203a44"/><path d="M30.9,21.81A1.44,1.44,0,0,0,29,20.93l-.06,0a13.64,13.64,0,0,1-6.11,1,15.69,15.69,0,0,1-3.09-.49c-.51-.14-1-.29-1.51-.47a12,12,0,0,1-1.35-.58A14.39,14.39,0,0,0,9.09,18.7a15.65,15.65,0,0,0-7.44,2.35,1.47,1.47,0,0,0-.58,1.65,1.33,1.33,0,0,0,1.69.93l.14,0A18.09,18.09,0,0,1,6,22.8a16.23,16.23,0,0,1,3.17-.22A12.55,12.55,0,0,1,15,24.18,14.82,14.82,0,0,0,17,25a18.15,18.15,0,0,0,1.9.56,16.46,16.46,0,0,0,3.92.43,13.63,13.63,0,0,0,7.55-2.32A1.6,1.6,0,0,0,30.9,21.81Z" fill="#203a44"/><path d="M8.22,16.06A14.93,14.93,0,0,1,16,17a13.31,13.31,0,0,0,1.38.43c.41.1,1.36.42,1.15-.39-.16-.64-.32-1.25-.52-1.84s-.3-.87-.4-1.32a5.44,5.44,0,0,1,2.13-5.6,22.72,22.72,0,0,1,3.71-2.07c1-.38.57-2.16-.65-2.23a9.47,9.47,0,0,0-7.24,3.78c-.24.33-1.93,2.53-2.33,2.88a3.24,3.24,0,0,1-1.45.93,13.51,13.51,0,0,0-5,3C5.18,16.12,6.22,16.36,8.22,16.06Z" fill="#203a44"/></svg>