<svg xmlns="http://www.w3.org/2000/svg" xmlns:xlink="http://www.w3.org/1999/xlink" viewBox="0 0 32 32"><defs><style>.a,.b{fill:none;}.b{clip-rule:evenodd;}.c{clip-path:url(#a);}.d{clip-path:url(#b);}.e{clip-path:url(#c);}.f{clip-path:url(#d);}.g{clip-path:url(#e);}.h{fill:#203a44;}</style><clipPath id="a"><rect class="a" x="-65" y="-1963.2" width="16" height="16" rx="4" ry="4"/></clipPath><clipPath id="b"><path class="b" d="M-54.2-1965.2v10a1.7,1.7,0,0,1-1.7,1.8h-2a1.7,1.7,0,0,1-1.7-1.7v-10l.8.8h-1.4a2.3,2.3,0,0,1-2.2-2.2,2.2,2.2,0,0,1,.7-1.6l3.4-3.4a2.3,2.3,0,0,1,3.2,0l3.4,3.4a2.2,2.2,0,0,1,0,3.2,2.3,2.3,0,0,1-1.6.7H-55Z"/></clipPath><clipPath id="c"><path class="b" d="M-55-1965.2v10a1,1,0,0,1-1,1h-2a1,1,0,0,1-1-1v-10h-1.4a1.5,1.5,0,0,1-1.5-1.5,1.5,1.5,0,0,1,.4-1.1l3.4-3.4a1.5,1.5,0,0,1,2.1,0l3.4,3.4a1.5,1.5,0,0,1,0,2.1,1.5,1.5,0,0,1-1.1.4Zm-17.9-17.4h31.9v39.4H-72.9Z"/></clipPath><clipPath id="d"><rect class="a" x="-65" y="-1963.7" width="16" height="16" rx="4" ry="4"/></clipPath><clipPath id="e"><path class="b" d="M-55-1965.7v10a1,1,0,0,1-1,1h-2a1,1,0,0,1-1-1v-10h-1.4a1.5,1.5,0,0,1-1.5-1.5,1.5,1.5,0,0,1,.4-1.1l3.4-3.4a1.5,1.5,0,0,1,2.1,0l3.4,3.4a1.5,1.5,0,0,1,0,2.1,1.5,1.5,0,0,1-1.1.4Z"/></clipPath></defs><title>walking</title><path class="h" d="M23.6,14.3H20.5c-.6-.1-1.3-1.2-1.8-1.6a7.5,7.5,0,0,0-1.5-1.4c-2.2-1.2-4.6.3-6.4,1.4L9,13.8c-1.2.9-1.4,2.6-1.7,4s-.6,2.2-.1,3a1.3,1.3,0,0,0,2,.3c.5-.5.6-1.4.8-2a15.5,15.5,0,0,1,.8-2.4l.2-.2.4-.2h.1c-.3,1.6-.4,3.3-.6,5s-2,7.2-2,8.6a1.3,1.3,0,0,0,2.4.5c.7-1.2,3.2-7.3,3.2-7.6s.6-.7.8-.1c2.5,5.2,1.6,8.5,3.8,8.3s1-4.7-.5-9.8a32.7,32.7,0,0,1-1-4.9c0-.1.1-.3.4,0a4.4,4.4,0,0,0,3.2.9,12.3,12.3,0,0,0,3.2-.6C25.6,16,24.8,14.4,23.6,14.3Z"/><circle class="h" cx="16" cy="5" r="4"/></svg>