<svg id="Layer_1" data-name="Layer 1" xmlns="http://www.w3.org/2000/svg" viewBox="0 0 32 32">
  <path class="currentColor-when-flat currentColor-when-mono" d="M29.11,7.07a67.27,67.27,0,0,1-6.81,12.48C18.5,25.19,15.46,28,14.38,28s-9.57-6.4-9.57-6.4a5.62,5.62,0,0,1-1.68-2.31,3.62,3.62,0,0,1,.29-2.8A3.53,3.53,0,0,1,5.63,14.8a3.76,3.76,0,0,1,2.82.68c.35.22,2.28,1.39,4.71,3.15A70.15,70.15,0,0,0,22.44,5.31,7.58,7.58,0,0,1,24,3.53,3.41,3.41,0,0,1,26.24,3,3,3,0,0,1,28.42,4.3,3.63,3.63,0,0,1,29.11,7.07Z" fill="#56d882"/>
  <path class="hidden-when-flat" d="M25.84,4l.29,0a2,2,0,0,1,1.49.92,2.61,2.61,0,0,1,.51,2A69.52,69.52,0,0,1,21.46,19c-3.76,5.59-6.38,7.81-7,8-1-.37-5.27-3.36-9-6.15A4.69,4.69,0,0,1,4.08,19a2.6,2.6,0,0,1,.21-2,2.54,2.54,0,0,1,1.59-1.24,1.33,1.33,0,0,1,.35,0A3.53,3.53,0,0,1,8,16.35c1.89,1.16,3.55,2.32,4.61,3.08l.74.53.6-.69A70.32,70.32,0,0,0,23.28,5.85a6.35,6.35,0,0,1,1.23-1.48A2.41,2.41,0,0,1,25.84,4m0-1A3.42,3.42,0,0,0,24,3.53a7.58,7.58,0,0,0-1.53,1.78,70.15,70.15,0,0,1-9.28,13.31c-2.43-1.76-4.36-2.93-4.71-3.15a4.44,4.44,0,0,0-2.22-.76,2.34,2.34,0,0,0-.6.08,3.53,3.53,0,0,0-2.21,1.72,3.62,3.62,0,0,0-.29,2.8,5.62,5.62,0,0,0,1.68,2.31S13.29,28,14.37,28h0c1.08,0,4.13-2.84,7.92-8.48A67.27,67.27,0,0,0,29.11,7.07a3.63,3.63,0,0,0-.69-2.76A3,3,0,0,0,26.24,3l-.4,0Z" fill="#203a44" opacity="0.4" style="isolation:isolate"/>
  <path class="hidden-when-flat" d="M4.08,19a4.69,4.69,0,0,0,1.37,1.85c3.7,2.79,8,5.79,9,6.15.66-.22,3.28-2.44,7-8A69.53,69.53,0,0,0,28.13,6.86a2.41,2.41,0,0,0,0-.9,71.58,71.58,0,0,1-6.63,12c-3.76,5.59-6.38,7.81-7,8-1-.37-5.27-3.36-9-6.15A4.69,4.69,0,0,1,4.08,18,2.51,2.51,0,0,1,4,17.76,2.57,2.57,0,0,0,4.08,19Z" fill="#203a44" opacity="0.2" style="isolation:isolate"/>
</svg>
