<svg xmlns="http://www.w3.org/2000/svg" viewBox="0 0 32 32">
  <path class="hidden-when-flat hidden-when-mono" d="M27,6H5A3.91,3.91,0,0,0,1,9.81V22.19A3.91,3.91,0,0,0,5,26H27a3.91,3.91,0,0,0,4-3.81V9.81A3.91,3.91,0,0,0,27,6Z" fill="#d2f0f7"/>
  <path class="currentColor-when-flat currentColor-when-mono" id="Card-Stroke" d="M3,9.81V22.19A1.91,1.91,0,0,0,5,24H27a1.91,1.91,0,0,0,2-1.81V9.81A1.91,1.91,0,0,0,27,8H5A1.91,1.91,0,0,0,3,9.81Zm-2,0A3.91,3.91,0,0,1,5,6H27a3.91,3.91,0,0,1,4,3.81V22.19A3.91,3.91,0,0,1,27,26H5a3.91,3.91,0,0,1-4-3.81Z" fill="#d2f0f7"/>
  <path class="hidden-when-flat hidden-when-mono" d="M27,7a2.91,2.91,0,0,1,3,2.81V22.19A2.91,2.91,0,0,1,27,25H5a2.91,2.91,0,0,1-3-2.81V9.81A2.91,2.91,0,0,1,5,7H27m0-1H5A3.91,3.91,0,0,0,1,9.81V22.19A3.91,3.91,0,0,0,5,26H27a3.91,3.91,0,0,0,4-3.81V9.81A3.91,3.91,0,0,0,27,6Z" fill="#203a44" opacity="0.4" style="isolation:isolate"/>
  <rect class="currentColor-when-emoji" id="CVC-Fill" x="18" y="11" width="9" height="3" rx="1" ry="1" fill="#1ba652"/>
  <rect class="currentColor-when-flat currentColor-when-mono" id="Number-FIll" x="5" y="15" width="22" height="3" rx="1" ry="1" fill="#203a44" opacity="0.4" style="isolation:isolate"/>
  <rect class="currentColor-when-flat currentColor-when-mono" id="Expiry-Fill" x="5" y="19" width="9" height="3" rx="1" ry="1" fill="#203a44" opacity="0.4" style="isolation:isolate"/>
</svg>
