<svg width="32" height="32" viewBox="0 0 32 32" xmlns="http://www.w3.org/2000/svg"><title>Earth</title><g fill="none" fill-rule="evenodd"><circle fill="#73D4FA" cx="16" cy="16" r="15"/><path d="M16 30c7.732 0 14-6.268 14-14S23.732 2 16 2 2 8.268 2 16s6.268 14 14 14zm0 1C7.716 31 1 24.284 1 16 1 7.716 7.716 1 16 1c8.284 0 15 6.716 15 15 0 8.284-6.716 15-15 15z" fill="#000" fill-rule="nonzero" opacity=".4"/><path d="M16.643 3.497c-.881-.32-.396-1.652-.288-2.479 1.057.033 2.083.174 3.073.414-.166.383-.331.58-.496.58-.375.107-.616.187-.723.24-.455.454-.781 1.531-1.566 1.245zm8.392 1.808c-.504-.54-1.287-.413-1.562-1.178-.127-.36-.092-.761.12-.986a15.035 15.035 0 0 1 6.241 7.353 1.464 1.464 0 0 0-.38-.048c-.873-.194-2.93-3.255-3.776-2.41.753 2.88-3.702.256-2.168-.401h.241c.976-.49 2.567-.96 1.284-2.33zM3 8.35C5.598 3.98 10.34 1.039 15.782 1c.1.513-.152.88-.786 1.092a6.33 6.33 0 0 0-1.366-.322c-.696 0-1.776-.281-2.007.804-.366 1.712 1.252.223 1.671.03 1.402-.646 1.815.217 1.785 1.08-.025.689-.332 1.378-.645 1.3-.415 0-.417-.397-.884-.241-.705.704-2.58.743-3.494 1.084-.517.194-1.35.444-1.664.933-.215.336.031 1.459-.384 1.598-.236.117-.775-1.123-.924-1.246-.62-.508-1.202-.403-1.878.014-.503.31-1.382 1.177-.973 1.874.234.399.935.212 1.246.522-.026.269-.173.47-.442.603-.253.505.191 1.979.582 2.299.791.648.977-.052 1.747-.13.694-.071 1.34.453 1.904.77.7.392 1.651.777 2.213 1.357.613.634.707 1.972 1.505 2.37.894.896 3.672 1.192 1.446 2.974-.696.347-.739 1.783-1.286 2.33-.106.16-.535.347-1.285.56-.302 0-2.546 2.756-2.765 3.01-.648.755-1.11 2.26-.697 3.314a15.249 15.249 0 0 1-1.244-.803c-1.277-2.096-.97-4.843-.675-7.206.098-.196-.44-1.506-.643-1.608-1.105-1.104-1.793-2.17-1.237-3.744.256-.726.917-1.32.89-2.106-.024-.691-.64-1.266-.937-1.861 0-.218-.553-1.396-.804-1.446-.992-.662-.56-1.147-.75-1.855zm19.787-2.724c-.32.107-.482 0-.482-.321.053-.107.187-.215.401-.322 0-.053-.026-.107-.08-.16-.046-.279.01-.386.121-.386.335.001 1.172.964 1.244 1.109.321.696.401 1.098.241 1.205-.599.599-1.124-.484-1.124-.884l-.08-.241h-.24zm7.309 5.583c.507 1.505.793 3.11.793 4.786 0 4.989-2.446 9.397-6.194 12.124.536-1.19.334-2.67.813-4.008.392-1.091.963-1.373.934-2.62-.023-.936.466-2.454.2-3.253 0-.373-3.231-.305-3.694-.517-2.31-1.06-2.047-2.408-1.713-4.527a4.038 4.038 0 0 1 3.098-3.31c.799-.181 1.918-.119 2.71.136.563.178.922.594 1.447.828.548.244 1.054.215 1.606.361z" fill="#56D882"/><path d="M25.384 9.787a4.72 4.72 0 0 0-1.035.104 4.04 4.04 0 0 0-3.1 3.313c-.335 2.121-.597 3.469 1.714 4.529.463.213 3.696.144 3.696.518.267.8-.222 2.318-.199 3.255.028 1.248-.543 1.53-.935 2.623-.479 1.338-.277 2.819-.814 4.012 3.751-2.73 6.199-7.142 6.199-12.135 0-1.676-.286-3.283-.794-4.788-.552-.147-1.059-.118-1.607-.363-.525-.234-.885-.649-1.447-.828a5.726 5.726 0 0 0-1.678-.24M22.762 4.44c-.111 0-.167.107-.121.386.054.053.08.107.08.16-.214.107-.348.216-.401.322 0 .242.09.362.271.362a.669.669 0 0 0 .211-.04h.241l.08.241c0 .317.329 1.062.764 1.062.114 0 .236-.052.361-.177.16-.108.08-.51-.241-1.206-.072-.145-.91-1.109-1.245-1.11m.846-1.298c-.211.226-.246.628-.12.987.276.766 1.06.639 1.564 1.179 1.284 1.371-.309 1.843-1.285 2.332h-.241c-1.013.434.584 1.725 1.57 1.725.509 0 .855-.344.6-1.324a.482.482 0 0 1 .355-.147c.97 0 2.655 2.388 3.422 2.559.143 0 .269.018.382.048a15.058 15.058 0 0 0-6.247-7.359m-7.244-2.124c-.107.828-.593 2.161.289 2.481a.73.73 0 0 0 .252.048c.61 0 .912-.891 1.315-1.294.107-.053.349-.133.724-.241.165 0 .33-.196.496-.579a15.029 15.029 0 0 0-3.076-.415M15.792 1C10.345 1.039 5.6 3.982 3 8.355c.192.709-.241 1.194.752 1.857.251.05.804 1.229.804 1.447.298.595.914 1.171.938 1.862.027.787-.634 1.381-.891 2.108-.556 1.575.133 2.641 1.239 3.747.202.101.741 1.413.643 1.609-.295 2.365-.602 5.114.675 7.211.402.287.816.556 1.245.804-.413-1.054.049-2.561.698-3.316.219-.254 2.465-3.012 2.767-3.012.75-.214 1.18-.402 1.286-.561.547-.548.59-1.985 1.287-2.332 2.228-1.784-.553-2.079-1.447-2.975-.799-.4-.893-1.739-1.507-2.373-.562-.581-1.515-.966-2.214-1.358-.53-.298-1.131-.777-1.776-.777-.043 0-.086.002-.13.007-.53.053-.784.402-1.149.402-.165 0-.353-.071-.599-.272-.391-.321-.836-1.796-.582-2.301.269-.133.416-.334.442-.604-.311-.31-1.013-.123-1.247-.522-.409-.698.47-1.565.974-1.875.36-.222.693-.356 1.019-.356.288 0 .57.103.86.342.143.117.641 1.254.891 1.254a.068.068 0 0 0 .034-.008c.415-.138.169-1.263.384-1.599.315-.489 1.148-.739 1.666-.934.913-.341 2.791-.38 3.496-1.085a.64.64 0 0 1 .197-.036c.282 0 .341.278.688.278a.2.2 0 0 0 .049.006c.295 0 .573-.654.596-1.307.023-.653-.208-1.306-.929-1.306-.232 0-.515.068-.857.225-.27.124-1.036.785-1.451.785-.23 0-.352-.204-.221-.815.152-.715.673-.837 1.21-.837.278 0 .561.032.798.032.469.058.924.164 1.367.323.635-.212.887-.58.787-1.093M7.499 13.296c.223 0 .582.222.9.418.132.081.261.161.387.231.19.107.398.213.612.322.502.257 1.071.548 1.373.859.131.135.269.467.392.759.248.591.554 1.318 1.239 1.733.343.303.765.52 1.175.73.172.088.424.217.597.328a3.166 3.166 0 0 1-.294.271c-.668.399-.929 1.153-1.14 1.764-.078.224-.208.6-.292.692a.174.174 0 0 1-.012.014c-.074.038-.274.127-.736.263-.472.054-.943.452-3.182 3.145l-.174.208c-.338.394-.63.923-.827 1.506-.507-1.694-.252-3.731-.04-5.43l-.009-.002c.083-.752-.44-1.93-.928-2.43l.008-.009c-1.095-1.094-1.339-1.752-1.001-2.707.062-.176.185-.381.316-.596.268-.445.597-.99.629-1.683a2.23 2.23 0 0 0 .692-.266c.14-.075.211-.111.315-.12m17.885-2.509c.491 0 .992.07 1.375.192.171.055.339.171.551.319.223.154.475.329.791.47.461.207.876.268 1.241.322.377 1.284.568 2.599.568 3.916 0 3.504-1.338 6.87-3.672 9.43.051-.339.119-.665.228-.969.111-.31.243-.541.382-.786.298-.525.637-1.12.611-2.2-.007-.281.06-.712.124-1.129.121-.785.246-1.595.066-2.281-.123-.989-1.311-1.06-3.059-1.166-.424-.025-1.054-.063-1.261-.104-1.524-.714-1.426-1.329-1.112-3.318l.02-.124a3.021 3.021 0 0 1 2.333-2.493c.228-.052.509-.079.814-.079m1.05-3.991l.16.186a2.019 2.019 0 0 0-.213-.055c.02-.042.037-.086.053-.131m-2.019-3.101h.005-.005m-10.344-.304a1.118 1.118 0 0 1 .011.357 1.37 1.37 0 0 0-.327-.039c-.131 0-.265.018-.401.055l.136-.094c.1-.069.187-.132.23-.156.163-.076.277-.109.351-.123m-3.495-.351c.007.304.081.622.301.894a1.244 1.244 0 0 0 1.063.453c-.29.069-.593.126-.829.17-.512.096-.996.186-1.401.337l-.187.069c-.635.229-1.503.544-1.965 1.256a2.287 2.287 0 0 0-1.228-.442 13.84 13.84 0 0 1 4.246-2.737" fill="#000" opacity=".4"/></g></svg>