<svg xmlns="http://www.w3.org/2000/svg" viewBox="0 0 32 32">
  <circle class="currentColor-when-flat currentColor-when-mono" cx="5.94" cy="15.93" r="3.99" fill="#56d882"/>
  <path class="hidden-when-flat" d="M5.94,12.95a3,3,0,1,1-3,3,3,3,0,0,1,3-3m0-1a4,4,0,1,0,4,4,4,4,0,0,0-4-4Z" fill="#203a44" opacity="0.4"/>
  <circle class="currentColor-when-flat currentColor-when-mono" cx="26" cy="15.93" r="3.99" fill="#56d882"/>
  <path class="hidden-when-flat" d="M26,12.95a3,3,0,1,1-3,3,3,3,0,0,1,3-3m0-1a4,4,0,1,0,4,4,4,4,0,0,0-4-4Z" fill="#203a44" opacity="0.4"/>
  <circle class="currentColor-when-flat currentColor-when-mono" cx="15.98" cy="15.93" r="3.99" fill="#56d882"/>
  <path class="hidden-when-flat" d="M16,12.95a3,3,0,1,1-3,3,3,3,0,0,1,3-3m0-1a4,4,0,1,0,4,4,4,4,0,0,0-4-4Z" fill="#203a44" opacity="0.4"/>
  <path class="hidden-when-flat" d="M8.76,16.87a4.16,4.16,0,0,1-2.82,1,4.16,4.16,0,0,1-2.82-1,3,3,0,0,0,5.64,0Z" fill="#203a44" opacity="0.2"/>
  <path class="hidden-when-flat" d="M18.8,16.87a4.33,4.33,0,0,1-5.64,0,3,3,0,0,0,5.64,0Z" fill="#203a44" opacity="0.2"/>
  <path class="hidden-when-flat" d="M28.82,16.87a4.33,4.33,0,0,1-5.64,0,3,3,0,0,0,5.64,0Z" fill="#203a44" opacity="0.2"/>
</svg>
