<svg id="Layer_1" data-name="Layer 1" xmlns="http://www.w3.org/2000/svg" viewBox="0 0 32 32">
<path class="currentColor-when-mono currentColor-when-flat" d="M10,10.34c1.77-1.74,3.62-3.38,5.51-5,1.7-1.46,3.7-3.42,6-1.83A3.36,3.36,0,0,1,22.89,6.9a6.54,6.54,0,0,1-1.71,2.76c-.88,1-1.82,2-2.76,3-.5.51-2.07,2.08-2.14,3.29s3,4.12,4,5.28c1.35,1.58,3.33,3.22,2.53,5.52A3.37,3.37,0,0,1,20,28.94a4.46,4.46,0,0,1-3.32-1.37,66.6,66.6,0,0,1-5.14-4.81C9.93,21.2,8,19.71,7.28,17.55,6.32,14.61,8,12.33,10,10.34Z" fill="#56d882"/>
<path class="hidden-when-flat" d="M19.74,3.92a2.11,2.11,0,0,1,1.2.41,2.37,2.37,0,0,1,1,2.36,5.28,5.28,0,0,1-1.34,2.13L20.42,9c-.9,1.06-1.88,2.08-2.72,2.95l-.07.07c-1.05,1.08-2.27,2.5-2.35,3.85S16.63,18.8,18.65,21c.33.36.63.67.83.91l.63.71c1.37,1.51,2.17,2.52,1.71,3.83a2.38,2.38,0,0,1-2,1.54h-.24a3.92,3.92,0,0,1-2.35-1.17,60.57,60.57,0,0,1-4.68-4.36l-.38-.38c-.3-.3-.61-.6-.93-.9a10.41,10.41,0,0,1-3-3.92c-.66-2,0-3.82,2.45-6.19,1.91-1.88,3.92-3.63,5.46-4.95l.31-.27c1-.89,2.2-1.91,3.29-1.91m0-1c-1.59,0-3,1.35-4.25,2.42C13.6,7,11.75,8.6,10,10.34c-2,2-3.66,4.27-2.7,7.21.7,2.15,2.65,3.65,4.21,5.21a66.6,66.6,0,0,0,5.14,4.81,4.79,4.79,0,0,0,3,1.39l.35,0a3.37,3.37,0,0,0,2.81-2.2c.8-2.3-1.17-3.94-2.53-5.52-1-1.16-4-4.07-4-5.28s1.64-2.77,2.14-3.29c.94-1,1.88-2,2.76-3A6.54,6.54,0,0,0,22.89,6.9a3.36,3.36,0,0,0-1.39-3.39,3.08,3.08,0,0,0-1.77-.59Z" fill="#203a44" opacity="0.4" style="isolation:isolate"/>
<path class="hidden-when-flat" d="M21.91,6.7a5.28,5.28,0,0,1-1.34,2.13L20.42,9c-.9,1.06-1.88,2.08-2.72,2.95l-.07.07a8.22,8.22,0,0,0-2.28,3.43,2,2,0,0,1-.07-.58c.08-1.35,1.3-2.77,2.35-3.85L17.7,11c.84-.87,1.82-1.89,2.72-2.95l.16-.18a5.58,5.58,0,0,0,1.3-2A2.22,2.22,0,0,1,21.91,6.7Z" fill="#203a44" opacity="0.2" style="isolation:isolate"/>
<path class="hidden-when-flat" d="M12.59,22.44l-.38-.38c-.3-.3-.61-.6-.93-.9a10.41,10.41,0,0,1-3-3.92A4.29,4.29,0,0,1,8,15.38a4.76,4.76,0,0,0,.19.87,10.41,10.41,0,0,0,3,3.92c.32.3.63.6.93.9l.38.38a60.57,60.57,0,0,0,4.68,4.36A3.92,3.92,0,0,0,19.62,27h.24a2.38,2.38,0,0,0,2-1.54,2.28,2.28,0,0,0,.06-.23,2.09,2.09,0,0,1-.06,1.23,2.38,2.38,0,0,1-2,1.54h-.24a3.92,3.92,0,0,1-2.35-1.17A60.57,60.57,0,0,1,12.59,22.44Z" fill="#203a44" opacity="0.2" style="isolation:isolate"/></svg>
