<svg xmlns="http://www.w3.org/2000/svg" viewBox="0 0 32 32">
<path class="currentColor-when-flat currentColor-when-mono" id="Fill" d="M26.82,12.47A7,7,0,0,0,24.58,12l-.45,0a100.56,100.56,0,0,0-15.07.17l-.85.06c-.69,0-1.38.09-2.06.18a3.68,3.68,0,0,0-2.47,1.47,3.53,3.53,0,0,0-.63,2.73A3.62,3.62,0,0,0,4.58,19a5.62,5.62,0,0,0,2.76.74l.23,0a100.77,100.77,0,0,0,17.83-.34,4.85,4.85,0,0,0,1.5-.41,3.63,3.63,0,0,0,1.89-2.13,3.56,3.56,0,0,0-.2-2.79A3.62,3.62,0,0,0,26.82,12.47Z" fill="#56d882"/>
<path class="hidden-when-flat" id="Fill-2" data-name="Fill" d="M17.24,12.81c2,0,4.08.06,6.81.19l.46,0a6.15,6.15,0,0,1,1.92.35,2.61,2.61,0,0,1,1.29,1.16,2.56,2.56,0,0,1,.14,2,2.62,2.62,0,0,1-1.37,1.54,3.86,3.86,0,0,1-1.19.32A102.61,102.61,0,0,1,14.48,19c-2.29,0-4.57-.08-6.77-.24l-.18,0H7.43a4.81,4.81,0,0,1-2.29-.57A2.6,2.6,0,0,1,4,16.44a2.54,2.54,0,0,1,.46-2A2.67,2.67,0,0,1,6.28,13.4c.64-.08,1.32-.13,2-.17l.87-.06c2.93-.25,5.43-.37,8.1-.37m0-1c-2.68,0-5.21.11-8.18.37l-.85.06c-.69,0-1.38.09-2.06.18a3.68,3.68,0,0,0-2.47,1.47,3.53,3.53,0,0,0-.63,2.73A3.62,3.62,0,0,0,4.58,19a5.62,5.62,0,0,0,2.76.74l.23,0c2.37.17,4.68.25,6.9.25a103.87,103.87,0,0,0,10.93-.58,4.85,4.85,0,0,0,1.5-.41,3.63,3.63,0,0,0,1.89-2.13,3.56,3.56,0,0,0-.2-2.79,3.62,3.62,0,0,0-1.79-1.61A7,7,0,0,0,24.58,12l-.45,0c-2.58-.13-4.78-.2-6.89-.2Z" fill="#203a44" opacity="0.4" style="isolation:isolate"/>
<path class="hidden-when-flat" d="M4,16.44a2.6,2.6,0,0,0,1.11,1.7,4.81,4.81,0,0,0,2.29.57h.09l.18,0c2.2.16,4.48.24,6.77.24a102.61,102.61,0,0,0,10.82-.58,3.86,3.86,0,0,0,1.19-.32,2.62,2.62,0,0,0,1.46-2.82,2.65,2.65,0,0,1-.09.4,2.62,2.62,0,0,1-1.37,1.54,3.86,3.86,0,0,1-1.19.32,102.61,102.61,0,0,1-10.82.58c-2.29,0-4.57-.08-6.77-.24l-.18,0H7.43a4.81,4.81,0,0,1-2.29-.57A2.6,2.6,0,0,1,4,15.58,2.55,2.55,0,0,0,4,16.44Z" fill="#203a44" opacity="0.2" style="isolation:isolate"/></svg>
