<svg width="32" height="32" viewBox="0 0 32 32" xmlns="http://www.w3.org/2000/svg"><title>Open Book</title><g fill="none" fill-rule="evenodd"><path d="M15.913 29.54c-1.798-.044-3.199-.997-3.39-2.246-.956-.532-2.495-.743-4.445-.668-1.205.046-2.5.198-3.808.422a36.42 36.42 0 0 0-2.149.437.5.5 0 0 1-.615-.407c-1.121-7.134-.91-15.056 0-21.152a.5.5 0 0 1 .268-.372c1.97-.997 4.96-1.049 8.598-.437a42.32 42.32 0 0 1 3.825.836 39 39 0 0 1 1.76.507 39 39 0 0 1 1.758-.507 42.32 42.32 0 0 1 3.826-.836c3.638-.612 6.627-.56 8.597.437a.5.5 0 0 1 .27.372c.908 6.096 1.12 14.018-.002 21.152a.5.5 0 0 1-.616.407 35.624 35.624 0 0 0-2.125-.437 28.947 28.947 0 0 0-3.795-.423c-1.923-.073-3.444.14-4.394.67-.202 1.243-1.665 2.2-3.437 2.243l-.126.002z" fill="#2491BB"/><path d="M15.62 28.714a.5.5 0 0 1 .293-.167C17.43 28.512 18.5 27.753 18.5 27a.5.5 0 0 1 .223-.416c1.149-.766 2.928-1.044 5.185-.958 1.25.047 2.583.204 3.927.437.57.098 1.102.204 1.585.31 1.076-6.762.877-14.22.037-20.036-1.74-.767-4.457-.787-7.75-.234-1.256.211-2.518.493-3.735.816-.786.209-1.424.4-1.86.542a.5.5 0 0 1-.31 0 36.32 36.32 0 0 0-1.862-.542 41.335 41.335 0 0 0-3.734-.816c-3.294-.553-6.01-.533-7.75.234-.84 5.815-1.04 13.274-.043 20.055a35.463 35.463 0 0 1 1.688-.33 30.56 30.56 0 0 1 3.939-.436c2.286-.087 4.084.19 5.237.958A.5.5 0 0 1 13.5 27c0 .771 1.002 1.513 2.421 1.539.191.028.295.086.37.174l-.378.327v-.5H16v.5l-.38-.326zm.293.826c-1.798-.044-3.199-.997-3.39-2.246-.956-.532-2.495-.743-4.445-.668-1.205.046-2.5.198-3.808.422a36.42 36.42 0 0 0-2.149.437.5.5 0 0 1-.615-.407c-1.121-7.134-.91-15.056 0-21.152a.5.5 0 0 1 .268-.372c1.97-.997 4.96-1.049 8.598-.437a42.32 42.32 0 0 1 3.825.836 39 39 0 0 1 1.76.507 39 39 0 0 1 1.758-.507 42.32 42.32 0 0 1 3.826-.836c3.638-.612 6.627-.56 8.597.437a.5.5 0 0 1 .27.372c.908 6.096 1.12 14.018-.002 21.152a.5.5 0 0 1-.616.407 35.624 35.624 0 0 0-2.125-.437 28.947 28.947 0 0 0-3.795-.423c-1.923-.073-3.444.14-4.394.67-.202 1.243-1.665 2.2-3.437 2.243l-.126.002z" fill="#000" fill-rule="nonzero" opacity=".4"/><path d="M28.843 7.76c.541 1.855.818 4.553.893 7.942.049 2.251.008 4.572-.098 7.235a753.72 753.72 0 0 1-.09 2.084.5.5 0 0 1-.577.473c-6.222-.982-8.978-.626-12.636 1.917a.494.494 0 0 1-.31.089.494.494 0 0 1-.31-.09c-3.658-2.542-6.415-2.898-12.637-1.916a.5.5 0 0 1-.578-.473c.007.145-.066-1.507-.089-2.084-.105-2.663-.147-4.984-.097-7.235.07-3.216.323-5.81.811-7.65a104.1 104.1 0 0 1 .38-3.124.5.5 0 0 1 .26-.37C7.819 2.407 10.814 2.415 16 4.462c5.187-2.048 8.108-2.056 12.231.095a.5.5 0 0 1 .264.371l.039.282a105.229 105.229 0 0 1 .31 2.55z" fill="#000" fill-rule="nonzero" opacity=".2"/><path d="M28.231 4.557a.5.5 0 0 1 .264.371l.039.282a107.958 107.958 0 0 1 .413 3.545 89.85 89.85 0 0 1 .433 6.63c.096 3.912-.172 6.944-.916 8.8a.5.5 0 0 1-.601.296c-3.804-1.087-7.276-1.087-10.199-.437-.423.094-.794.194-1.11.294-.186.059-.31.103-.368.126-.197.079-.421.025-.384-.005a3.675 3.675 0 0 0-.185-.07 9.24 9.24 0 0 0-.595-.19 15.206 15.206 0 0 0-2.326-.453c-2.539-.305-5.413-.121-8.565.736a.5.5 0 0 1-.598-.302c-.725-1.885-.994-4.881-.91-8.71.047-2.145.203-4.437.434-6.751a105.885 105.885 0 0 1 .448-3.791.5.5 0 0 1 .26-.37C7.819 2.407 10.814 2.415 16 4.462c5.187-2.048 8.108-2.056 12.231.095z" fill="#FFF" fill-rule="nonzero"/><path d="M28.843 7.76c.541 1.855.818 4.553.893 7.942.049 2.251.008 4.572-.098 7.235a753.72 753.72 0 0 1-.09 2.084.5.5 0 0 1-.577.473c-6.222-.982-8.978-.626-12.636 1.917a.494.494 0 0 1-.31.089.494.494 0 0 1-.31-.09c-3.658-2.542-6.415-2.898-12.637-1.916a.5.5 0 0 1-.578-.473c.007.145-.066-1.507-.089-2.084-.105-2.663-.147-4.984-.097-7.235.07-3.216.323-5.81.811-7.65-.023.218-.046.44-.068.667a88.464 88.464 0 0 0-.434 6.75c-.084 3.83.185 6.826.91 8.71a.5.5 0 0 0 .598.303c3.152-.857 6.026-1.04 8.565-.736.884.106 1.662.265 2.326.454.23.065.429.129.595.188.096.035.158.06.185.071-.037.03.187.084.384.005.058-.023.182-.067.367-.126.317-.1.688-.2 1.111-.294 2.923-.65 6.395-.65 10.199.437a.5.5 0 0 0 .601-.295c.744-1.857 1.012-4.889.916-8.8a89.85 89.85 0 0 0-.433-6.631c-.034-.34-.069-.67-.104-.994z" fill="#000" fill-rule="nonzero" opacity=".2"/><path d="M12.815 22.753c1.294.156 2.565.467 3.188.713l.25-.082c.343-.108.742-.216 1.194-.317 2.96-.657 6.441-.682 10.24.328.565-1.737.779-4.498.693-7.985a88.88 88.88 0 0 0-.428-6.556 106.963 106.963 0 0 0-.409-3.51c-3.77-1.928-6.406-1.86-11.357.12a.5.5 0 0 1-.372 0C10.867 3.485 8.16 3.417 4.46 5.324a104.89 104.89 0 0 0-.408 3.494 87.493 87.493 0 0 0-.428 6.673c-.075 3.42.14 6.149.697 7.908 3.103-.79 5.954-.95 8.495-.646zM28.231 4.557a.5.5 0 0 1 .264.371l.039.282a107.958 107.958 0 0 1 .413 3.545 89.85 89.85 0 0 1 .433 6.63c.096 3.912-.172 6.944-.916 8.8a.5.5 0 0 1-.601.296c-3.804-1.087-7.276-1.087-10.199-.437-.423.094-.794.194-1.11.294-.186.059-.31.103-.368.126-.197.079-.421.025-.384-.005a3.675 3.675 0 0 0-.185-.07 9.24 9.24 0 0 0-.595-.19 15.206 15.206 0 0 0-2.326-.453c-2.539-.305-5.413-.121-8.565.736a.5.5 0 0 1-.598-.302c-.725-1.885-.994-4.881-.91-8.71.047-2.145.203-4.437.434-6.751a105.885 105.885 0 0 1 .448-3.791.5.5 0 0 1 .26-.37C7.819 2.407 10.814 2.415 16 4.462c5.187-2.048 8.108-2.056 12.231.095z" fill="#203A44" fill-rule="nonzero" opacity=".7"/><path d="M6.239 7.903c1.053-.573 5.21-.762 7.603.035a.5.5 0 1 0 .316-.948c-2.643-.881-7.086-.679-8.397.035a.5.5 0 0 0 .478.878zM18.239 7.903c1.053-.573 5.21-.762 7.603.035a.5.5 0 1 0 .316-.948c-2.643-.881-7.086-.679-8.397.035a.5.5 0 0 0 .478.878zM6.239 10.903c1.053-.573 5.21-.762 7.603.035a.5.5 0 1 0 .316-.948c-2.643-.881-7.086-.679-8.397.035a.5.5 0 1 0 .478.878zM18.239 10.903c1.053-.573 5.21-.762 7.603.035a.5.5 0 1 0 .316-.948c-2.643-.881-7.086-.679-8.397.035a.5.5 0 0 0 .478.878zM6.239 13.903c1.053-.573 5.21-.762 7.603.035a.5.5 0 1 0 .316-.948c-2.643-.881-7.086-.679-8.397.035a.5.5 0 1 0 .478.878zM18.239 13.903c1.053-.573 5.21-.762 7.603.035a.5.5 0 1 0 .316-.948c-2.643-.881-7.086-.679-8.397.035a.5.5 0 0 0 .478.878zM6.239 16.903c1.053-.573 5.21-.762 7.603.035a.5.5 0 1 0 .316-.948c-2.643-.881-7.086-.679-8.397.035a.5.5 0 1 0 .478.878zM18.239 16.903c1.053-.573 5.21-.762 7.603.035a.5.5 0 1 0 .316-.948c-2.643-.881-7.086-.679-8.397.035a.5.5 0 0 0 .478.878zM6.239 19.903c.783-.426 3.922-.693 6.191-.309a.5.5 0 1 0 .167-.986c-2.471-.418-5.826-.133-6.836.417a.5.5 0 1 0 .478.878zM18.239 19.903c.56-.304 2.727-.58 4.643-.48a.5.5 0 0 0 .053-.998c-2.085-.11-4.416.187-5.174.6a.5.5 0 0 0 .478.878z" fill="#203A44" fill-rule="nonzero" opacity=".15"/></g></svg>