<svg xmlns="http://www.w3.org/2000/svg" viewBox="0 0 32 32">
<path class="currentColor-when-flat currentColor-when-mono" d="M27.64,14.22A3.34,3.34,0,0,0,26,12.73a6.42,6.42,0,0,0-2.07-.4l-.42,0c-1.39-.07-2.67-.12-3.88-.15-.1-1.77-.23-3.43-.39-4.94a4.47,4.47,0,0,0-.38-1.38,3.35,3.35,0,0,0-2-1.75,3.29,3.29,0,0,0-2.58.18,3.34,3.34,0,0,0-1.49,1.65A6.42,6.42,0,0,0,12.43,8l0,.42c-.07,1.4-.12,2.67-.15,3.88-.86.05-1.73.11-2.66.19l-.78.05c-.63,0-1.27.08-1.9.16A3.4,3.4,0,0,0,4.63,14,3.26,3.26,0,0,0,4,16.56a3.34,3.34,0,0,0,1.42,2.17A5.19,5.19,0,0,0,8,19.41l.21,0c1.41.1,2.79.16,4.14.2.05.86.11,1.73.19,2.66l.05.78c0,.63.08,1.27.16,1.9a3.4,3.4,0,0,0,1.36,2.28,3.26,3.26,0,0,0,2.52.58,3.34,3.34,0,0,0,2.17-1.42,5.19,5.19,0,0,0,.68-2.55l0-.21c.1-1.41.16-2.79.2-4.14,1.77-.1,3.43-.23,4.94-.39a4.47,4.47,0,0,0,1.38-.38,3.35,3.35,0,0,0,1.75-2A3.29,3.29,0,0,0,27.64,14.22Z" fill="#56d882"/>
<path class="hidden-when-flat" d="M15.81,4.9a2.38,2.38,0,0,1,2.14,1.35,3.49,3.49,0,0,1,.29,1.07c.17,1.56.3,3.2.39,4.89l.05.92.92,0c1.16,0,2.42.08,3.82.15l.42,0a5.62,5.62,0,0,1,1.75.32,2.34,2.34,0,0,1,1.16,1,2.28,2.28,0,0,1,.12,1.79,2.35,2.35,0,0,1-1.22,1.38,3.48,3.48,0,0,1-1.07.29c-1.56.17-3.2.3-4.89.39l-.92.05,0,.92c0,1.44-.1,2.76-.19,4l0,.16v.09A4.38,4.38,0,0,1,18,25.88a2.33,2.33,0,0,1-1.93,1,2.27,2.27,0,0,1-1.35-.44,2.39,2.39,0,0,1-1-1.6c-.08-.59-.12-1.22-.16-1.83l-.05-.8c-.07-.84-.13-1.68-.19-2.63l-.05-.92-.92,0c-1.44,0-2.76-.1-4-.19l-.16,0H8.09A4.38,4.38,0,0,1,6,17.9a2.33,2.33,0,0,1-1-1.52,2.27,2.27,0,0,1,.41-1.75,2.39,2.39,0,0,1,1.6-1c.59-.08,1.21-.12,1.83-.16l.8-.05c.84-.07,1.68-.13,2.63-.19l.92-.05,0-.92c0-1.16.08-2.42.15-3.82l0-.42a5.62,5.62,0,0,1,.32-1.75,2.34,2.34,0,0,1,1-1.16,2.21,2.21,0,0,1,1-.25m0-1a3.21,3.21,0,0,0-1.49.36,3.34,3.34,0,0,0-1.49,1.65A6.42,6.42,0,0,0,12.43,8l0,.42c-.07,1.4-.12,2.67-.15,3.88-.86.05-1.73.11-2.66.19l-.78.05c-.63,0-1.27.08-1.9.16A3.4,3.4,0,0,0,4.63,14,3.26,3.26,0,0,0,4,16.56a3.34,3.34,0,0,0,1.42,2.17A5.19,5.19,0,0,0,8,19.41l.21,0c1.41.1,2.79.16,4.14.2.05.86.11,1.73.19,2.66l.05.78c0,.63.08,1.27.16,1.9a3.4,3.4,0,0,0,1.36,2.28,3.26,3.26,0,0,0,1.93.64,3.33,3.33,0,0,0,2.76-1.47,5.19,5.19,0,0,0,.68-2.55l0-.21c.1-1.41.16-2.79.2-4.14,1.77-.1,3.43-.23,4.94-.39a4.47,4.47,0,0,0,1.38-.38,3.35,3.35,0,0,0,1.75-2,3.29,3.29,0,0,0-.18-2.58A3.34,3.34,0,0,0,26,12.73a6.42,6.42,0,0,0-2.07-.4l-.42,0c-1.39-.07-2.67-.12-3.88-.15-.1-1.77-.23-3.43-.39-4.94a4.48,4.48,0,0,0-.38-1.38A3.38,3.38,0,0,0,15.81,3.9Z" fill="#203a44" opacity="0.4" style="isolation:isolate"/>
<path class="hidden-when-flat" d="M18,25.88a4.38,4.38,0,0,0,.52-2.08v-.09l0-.16c.09-1.28.16-2.6.19-4l0-.92.92-.05c1.69-.09,3.34-.22,4.89-.39a3.48,3.48,0,0,0,1.07-.29,2.35,2.35,0,0,0,1.29-2.65,2.2,2.2,0,0,1-1.29,1.65,3.48,3.48,0,0,1-1.07.29c-1.56.17-3.2.3-4.89.39l-.92.05,0,.92c0,1.44-.1,2.76-.19,4l0,.16v.09A4.38,4.38,0,0,1,18,24.88a2.33,2.33,0,0,1-1.93,1,2.27,2.27,0,0,1-1.35-.44,2.39,2.39,0,0,1-1-1.6c-.08-.59-.12-1.22-.16-1.83l-.05-.8c-.07-.84-.13-1.68-.19-2.63l-.05-.92-.92,0c-1.44,0-2.76-.1-4-.19l-.16,0H8.09A4.38,4.38,0,0,1,6,16.9a2.32,2.32,0,0,1-1-1.44,2.28,2.28,0,0,0,0,.92A2.33,2.33,0,0,0,6,17.9a4.38,4.38,0,0,0,2.08.52h.09l.16,0c1.28.09,2.61.16,4,.19l.92,0,.05.92c.06,1,.12,1.79.19,2.63l.05.8c0,.62.08,1.24.16,1.83a2.39,2.39,0,0,0,1,1.6,2.27,2.27,0,0,0,1.35.44,2.33,2.33,0,0,0,1.93-1Z" fill="#203a44" opacity="0.2" style="isolation:isolate"/></svg>
