<svg xmlns="http://www.w3.org/2000/svg" viewBox="0 0 32 32">
<path class="currentColor-when-mono currentColor-when-flat" d="M22,10.34c-1.77-1.74-3.62-3.38-5.51-5-1.7-1.46-3.7-3.42-6-1.83A3.36,3.36,0,0,0,9.06,6.9a6.54,6.54,0,0,0,1.71,2.76c.88,1,1.82,2,2.76,3,.5.51,2.07,2.08,2.14,3.29s-3,4.12-4,5.28c-1.35,1.58-3.33,3.22-2.53,5.52A3.37,3.37,0,0,0,12,28.94a4.46,4.46,0,0,0,3.32-1.37,66.6,66.6,0,0,0,5.14-4.81C22,21.2,24,19.71,24.67,17.55,25.64,14.61,24,12.33,22,10.34Z" fill="#56d882"/>
<path class="hidden-when-flat" d="M12.22,3.92c1.08,0,2.26,1,3.29,1.91l.31.27c1.54,1.32,3.54,3.07,5.46,4.95,2.4,2.37,3.11,4.16,2.45,6.19a10.41,10.41,0,0,1-3,3.92c-.32.3-.63.6-.93.9l-.38.38a60.57,60.57,0,0,1-4.68,4.36A3.92,3.92,0,0,1,12.34,28H12.1a2.38,2.38,0,0,1-2-1.54c-.46-1.31.34-2.32,1.71-3.83l.63-.71c.2-.24.5-.55.83-.91,2-2.17,3.45-3.8,3.37-5.08s-1.3-2.77-2.35-3.85L14.26,12c-.84-.87-1.82-1.89-2.72-2.95l-.16-.18A5.28,5.28,0,0,1,10,6.7a2.37,2.37,0,0,1,1-2.36,2.11,2.11,0,0,1,1.2-.41m0-1a3.08,3.08,0,0,0-1.77.59A3.36,3.36,0,0,0,9.06,6.9a6.54,6.54,0,0,0,1.71,2.76c.88,1,1.82,2,2.76,3,.5.51,2.07,2.08,2.14,3.29s-3,4.12-4,5.28c-1.35,1.58-3.33,3.22-2.53,5.52A3.37,3.37,0,0,0,12,28.94l.35,0a4.79,4.79,0,0,0,3-1.39,66.6,66.6,0,0,0,5.14-4.81C22,21.2,24,19.71,24.67,17.55c1-2.94-.68-5.22-2.7-7.21-1.77-1.74-3.62-3.38-5.51-5-1.25-1.07-2.67-2.42-4.25-2.42Z" fill="#203a44" opacity="0.4" style="isolation:isolate"/>
<path class="hidden-when-flat" d="M10,6.7a5.28,5.28,0,0,0,1.34,2.13l.16.18c.9,1.06,1.88,2.08,2.72,2.95l.07.07a8.22,8.22,0,0,1,2.28,3.43,2,2,0,0,0,.07-.58c-.08-1.35-1.3-2.77-2.35-3.85L14.26,11c-.84-.87-1.82-1.89-2.72-2.95l-.16-.18a5.58,5.58,0,0,1-1.3-2A2.22,2.22,0,0,0,10,6.7Z" fill="#203a44" opacity="0.2" style="isolation:isolate"/>
<path class="hidden-when-flat" d="M19.37,22.44l.38-.38c.3-.3.61-.6.93-.9a10.41,10.41,0,0,0,3-3.92,4.29,4.29,0,0,0,.19-1.87,4.76,4.76,0,0,1-.19.87,10.41,10.41,0,0,1-3,3.92c-.32.3-.63.6-.93.9l-.38.38a60.57,60.57,0,0,1-4.68,4.36A3.92,3.92,0,0,1,12.34,27H12.1a2.38,2.38,0,0,1-2-1.54,2.28,2.28,0,0,1-.06-.23,2.09,2.09,0,0,0,.06,1.23,2.38,2.38,0,0,0,2,1.54h.24a3.92,3.92,0,0,0,2.35-1.17A60.57,60.57,0,0,0,19.37,22.44Z" fill="#203a44" opacity="0.2" style="isolation:isolate"/></svg>
