<svg width="32" height="32" viewBox="0 0 32 32" xmlns="http://www.w3.org/2000/svg"><title>Search</title><g fill="none" fill-rule="evenodd"><path d="M21.6 16.838c3.62 3.328 6.816 6.542 7.966 8.099 2.439 2.73.006 6.51-3.32 4.678-2.28-1.583-5.93-4.815-9.134-8.153l-.438-.456.544-.32a9.77 9.77 0 0 0 3.606-3.721l.307-.559.47.432z" fill="#73D4FA"/><path d="M19.866 19.89c-.496.495-1.034.936-1.606 1.32 3.055 3.135 6.434 6.11 8.513 7.556 2.22 1.222 3.787-1.215 2.018-3.199-1.08-1.458-4.03-4.44-7.413-7.574-.428.68-.933 1.315-1.512 1.897zm1.735-3.052c3.618 3.328 6.815 6.542 7.965 8.099 2.439 2.73.006 6.51-3.32 4.678-2.28-1.583-5.93-4.815-9.134-8.153l-.438-.456.544-.32a9.77 9.77 0 0 0 3.606-3.721l.307-.559.47.432z" fill="#000" fill-rule="nonzero" opacity=".4"/><path d="M4.653 19.89C.45 15.664.45 8.855 4.653 4.664 8.85.452 15.66.446 19.864 4.644c4.224 4.211 4.224 11.004 0 15.246-4.2 4.191-11.01 4.191-15.212 0z" fill="#56D882"/><path d="M5.36 19.183c3.81 3.8 9.988 3.8 13.798 0 3.834-3.85 3.834-10.01.001-13.832-3.813-3.807-9.99-3.802-13.8.02-3.812 3.802-3.812 9.979.002 13.812zm-.707.707C.45 15.664.45 8.855 4.653 4.664 8.85.452 15.66.446 19.864 4.644c4.224 4.211 4.224 11.004 0 15.246-4.2 4.191-11.01 4.191-15.212 0z" fill="#000" fill-rule="nonzero" opacity=".4"/><path d="M7.129 17.413a7.272 7.272 0 0 0 10.265 0 7.26 7.26 0 0 0 0-10.292 7.255 7.255 0 0 0-10.267.015c-2.836 2.83-2.836 7.425.002 10.277z" fill="#FFF" opacity=".7"/><path d="M7.129 17.413a7.272 7.272 0 0 0 10.265 0 7.26 7.26 0 0 0 0-10.292 7.255 7.255 0 0 0-10.267.015c-2.836 2.83-2.836 7.425.002 10.277zm-.708.707c-3.228-3.245-3.228-8.473 0-11.69a8.254 8.254 0 0 1 11.68-.017c3.243 3.234 3.243 8.45 0 11.707a8.272 8.272 0 0 1-11.68 0z" fill="#000" fill-rule="nonzero" opacity=".4"/><path d="M8.62 12.498a.505.505 0 0 1-.152-.015c-.32-.08-.523-.431-.455-.786.498-2.543 2.777-4.15 5.058-3.584.322.08.525.431.456.785-.069.356-.387.585-.704.499-1.66-.411-3.29.752-3.648 2.588-.06.297-.291.503-.554.513" fill="#FFF" opacity=".7"/></g></svg>