<svg xmlns="http://www.w3.org/2000/svg" viewBox="0 0 256 256"><title>favicon</title><g style="isolation:isolate"><rect width="256" height="256" style="fill:none"/><path d="M16.08,155.6a15.31,15.31,0,1,0,21.65,0A15.3,15.3,0,0,0,16.08,155.6Z" style="fill:#56d882;mix-blend-mode:multiply"/><path d="M15.16,51.81a8.93,8.93,0,0,0-12.6-.08,9,9,0,1,0,12.6.08Z" style="fill:#56d882;mix-blend-mode:multiply"/><path d="M233.35,172.34c-11,11.58-34.7,28.72-41.43,28.68-1.81,0-4.84-1.34-8.47-3.42h0c-1.81-1-3.78-2.29-5.84-3.67l-.37-.25c-1.9-1.29-3.86-2.7-5.84-4.18l-.69-.51-1.66-1.27-1-.81-1.5-1.19q-1.16-.93-2.3-1.87l-1.1-.92-1.55-1.32-1-.89-1.82-1.62-.62-.55q-1.18-1.07-2.28-2.13l-.63-.61q-.84-.81-1.62-1.6l-.61-.62c-.68-.69-1.33-1.38-1.94-2-1.28-1.41-2.5-2.8-3.69-4.19l-1.06-1.27q-1.24-1.48-2.42-3l-1.07-1.35q-1.2-1.54-2.32-3.08l-.77-1c-1-1.39-2-2.77-2.85-4.14h0c-.88-1.35-1.71-2.69-2.5-4l-.55-1q-.91-1.57-1.73-3.13l-.52-1q-.87-1.71-1.64-3.4l-.25-.53c-.61-1.36-1.16-2.71-1.66-4.05h0a52.11,52.11,0,0,1-3.56-18.72,35.48,35.48,0,0,1,9.23-23.47,41.29,41.29,0,0,0-21.14-5.85c-.4,0-.8,0-1.2,0-.89-1.07-1.82-2.12-2.83-3.12a42.76,42.76,0,0,0-52.71-6.07c-.23-.25-.44-.51-.68-.75A21.72,21.72,0,1,0,35.42,115.1a42.69,42.69,0,0,0,43.09,43.33q7.43,14.46,21.67,30.13c12,13.18,38.11,32.79,45.67,32.9,5.47,0,21-10.1,33.76-20.6,5.22,3.39,9.69,5.65,12,5.68,6.45,0,29.2-16.39,39.7-27.48,13-13.68,21.2-26.68,24.66-38.81C251.48,150.44,243.93,161.18,233.35,172.34Z" style="fill:#56d882"/><path d="M151,171.54c-17.82-19.55-26.77-37.68-26.61-53.85.18-20,17.08-36.1,37.62-35.89a37.55,37.55,0,0,1,30.89,16.45,37.51,37.51,0,0,1,31.17-15.87,38.29,38.29,0,0,1,6.36.63c-.27-23.65-20-42.92-44.39-43.18A45.12,45.12,0,0,0,148.54,58.9a45.08,45.08,0,0,0-37.11-19.79c-24.73-.24-45,19.14-45.26,43.16-.19,19.46,10.58,41.27,32,64.78,13,14.2,41,35.33,49.2,35.45,2.22,0,6-1.57,10.59-4.11C155.34,176,153,173.69,151,171.54Z" style="fill:#1bab6b"/></g></svg>