<svg xmlns="http://www.w3.org/2000/svg" viewBox="0 0 157.72 112.34"><title>mark-inverted</title><g style="opacity:0.66"><path d="M9.9,71.77a9.43,9.43,0,1,0,13.34,0A9.42,9.42,0,0,0,9.9,71.77Z" style="fill:#fff"/><path d="M9.34,7.82a5.5,5.5,0,0,0-7.76-.05A5.54,5.54,0,0,0,9.41,15.6,5.49,5.49,0,0,0,9.34,7.82Z" style="fill:#fff"/><path d="M143.77,82.08c-6.75,7.14-21.38,17.69-25.52,17.67-1.12,0-3-.82-5.22-2.11h0c-1.12-.64-2.33-1.41-3.6-2.26l-.23-.16c-1.17-.79-2.38-1.66-3.6-2.58l-.42-.32-1-.78-.64-.5-.93-.73-1.42-1.15-.68-.57-1-.81-.63-.55-1.12-1-.38-.34q-.73-.66-1.41-1.31l-.39-.37-1-1-.38-.38c-.42-.43-.82-.85-1.19-1.26-.79-.87-1.54-1.73-2.28-2.58l-.66-.78q-.77-.91-1.49-1.82L88,75.57q-.74-1-1.43-1.89L86.05,73c-.61-.86-1.2-1.71-1.76-2.55h0c-.54-.83-1.05-1.66-1.54-2.48l-.34-.59q-.56-1-1.07-1.93L81,64.86q-.54-1.05-1-2.09l-.15-.33c-.37-.84-.72-1.67-1-2.5h0a32.1,32.1,0,0,1-2.19-11.53,21.86,21.86,0,0,1,5.69-14.46,25.44,25.44,0,0,0-13-3.6c-.25,0-.49,0-.74,0-.55-.66-1.12-1.3-1.74-1.92a26.34,26.34,0,0,0-32.47-3.74c-.14-.15-.27-.31-.42-.46A13.38,13.38,0,1,0,21.82,46.81,26.3,26.3,0,0,0,48.37,73.51,87.55,87.55,0,0,0,61.72,92.07c7.41,8.12,23.48,20.2,28.14,20.27,3.37,0,12.93-6.22,20.8-12.69,3.21,2.09,6,3.48,7.42,3.5,4,0,18-10.09,24.46-16.93,8-8.43,13.06-16.44,15.19-23.91C154.94,68.59,150.29,75.2,143.77,82.08Z" style="fill:#fff"/></g><path d="M93,81.59c-11-12-16.49-23.22-16.4-33.18C76.75,36.1,87.16,26.17,99.82,26.3a23.14,23.14,0,0,1,19,10.13,23.11,23.11,0,0,1,19.21-9.78A23.59,23.59,0,0,1,142,27C141.81,12.47,129.66.6,114.62.44A27.8,27.8,0,0,0,91.51,12.19,27.77,27.77,0,0,0,68.65,0C53.41-.15,40.9,11.8,40.76,26.59c-.12,12,6.52,25.42,19.72,39.91,8,8.75,25.29,21.77,30.31,21.84,1.37,0,3.71-1,6.52-2.53C95.71,84.35,94.24,82.91,93,81.59Z" style="fill:#fff"/></svg>