<svg xmlns="http://www.w3.org/2000/svg" viewBox="0 0 512 91.46"><title>old-inverted</title><rect x="1.28" y="0.33" width="514.15" height="91.13" style="fill:#585858"/><path d="M93.32.36A22.63,22.63,0,0,0,74.51,9.92,22.62,22.62,0,0,0,55.89,0,22.36,22.36,0,0,0,33.62,17.66a21.43,21.43,0,0,1,20.78,5.5c.5.5,1,1,1.42,1.56l.6,0A20.72,20.72,0,0,1,67,27.64a19,19,0,0,1,29.73,2,18.83,18.83,0,0,1,15.64-8,19.21,19.21,0,0,1,3.19.32C115.45,10.15,105.56.48,93.32.36Z" style="fill:#fff;opacity:0.8"/><path d="M35.36,44.8A19.66,19.66,0,0,1,37.06,37a34.16,34.16,0,0,1-3.87-15.3,21.2,21.2,0,0,1,.43-4A21.49,21.49,0,0,0,28,20.14a10.87,10.87,0,0,1-10.21,18A21.42,21.42,0,0,0,39.38,59.84,32.33,32.33,0,0,1,35.36,44.8Z" style="fill:#fff;opacity:0.5"/><path d="M28,20.14c-.12-.13-.23-.26-.35-.39a10.89,10.89,0,1,0-9.86,18.37A21.21,21.21,0,0,1,28,20.14Z" style="fill:#fff;opacity:0.8"/><path d="M27.62,35.16a10.87,10.87,0,0,0,.35-15,21.21,21.21,0,0,0-10.21,18A10.9,10.9,0,0,0,27.62,35.16Z" style="fill:#fff"/><path d="M8.06,69.3a7.69,7.69,0,1,1,10.86,0A7.68,7.68,0,0,1,8.06,69.3Z" style="fill:#fff;opacity:0.5"/><path d="M1.33,12.65a4.48,4.48,0,0,1,0-6.32,4.47,4.47,0,0,1,6.32,0,4.47,4.47,0,0,1,.06,6.33A4.48,4.48,0,0,1,1.33,12.65Z" style="fill:#fff;opacity:0.9"/><path d="M128.79,65.34c-3.17,3.39-8,5.51-14.48,5.51-11.55,0-17.67-7.73-17.67-16.84s6-16.85,17.6-16.85c11.23,0,16.91,7.13,16.91,16.46a20.33,20.33,0,0,1-.29,3.45H107.37c.92,3.87,4,5.69,7.9,5.69A17.62,17.62,0,0,0,124.2,60ZM121.25,51a6.67,6.67,0,0,0-.17-1.55c-.57-2.92-2.92-4.19-6.55-4.19-4.34,0-6.59,2.48-7.06,5.48l0,.26Z" style="fill:#fff"/><path d="M144.1,70.13l-13-32.23h11l7.51,21,7.51-21h11l-13,32.23Z" style="fill:#fff"/><path d="M200.3,65.34c-3.17,3.39-8,5.51-14.48,5.51-11.55,0-17.67-7.73-17.67-16.84s6-16.85,17.6-16.85c11.23,0,16.91,7.13,16.91,16.46a20.33,20.33,0,0,1-.29,3.45H178.88c.92,3.87,4,5.69,7.9,5.69A17.62,17.62,0,0,0,195.71,60ZM192.76,51a6.58,6.58,0,0,0-.17-1.55c-.57-2.92-2.92-4.19-6.54-4.19-4.34,0-6.59,2.48-7.06,5.48l0,.26Z" style="fill:#fff"/><path d="M226.33,45.77h-1.95c-1.78,0-4.3.53-6.65,3.81V70.13H206.88V37.9h9.54l.53,4.26c2.27-2.82,5.11-5,9.07-5.07h.3Z" style="fill:#fff"/><path d="M249.65,76c-1.84,4.45-4.44,7-7.56,8.51s-6.85,1.74-10.77,1.74V78.19c3.33,0,5.5-.39,7-1.22a7.92,7.92,0,0,0,3.16-4.19l1-2.64h-1.22L228.19,37.9h11l7.39,20.53L254,37.9h11Z" style="fill:#fff"/><path d="M291.4,70.13l-.48-3.81c-2.4,2.95-6.55,4.45-10.71,4.45-7.65,0-15-5-15-16.82,0-11.24,7.41-16.8,15.28-16.8a14.24,14.24,0,0,1,9.61,3.59V24.57h10.85V70.13ZM290.1,49.65a7.47,7.47,0,0,0-6.73-3.89c-4.52,0-7.32,2.72-7.32,8.24s2.87,8.25,7.46,8.25a7,7,0,0,0,6.59-3.89Z" style="fill:#fff"/><path d="M307,40.94a32.31,32.31,0,0,1,14.86-3.78c8.24,0,15.59,3.76,15.59,12.51V70.13h-9.54l-.47-3.73A13.09,13.09,0,0,1,317.25,71c-6.08,0-12.07-4-12.07-11.12,0-7.67,6.94-11.06,13.85-11.06a19.63,19.63,0,0,1,7.59,1.47v-.85c-.14-3.34-3.21-4.67-6.76-4.67a24.24,24.24,0,0,0-10.33,2.64Zm19.63,15.87A11.6,11.6,0,0,0,321,55.43c-3,0-5.7,1.12-5.7,3.78,0,2.47,2.44,3.75,5.2,3.75a7.88,7.88,0,0,0,6.16-2.56Z" style="fill:#fff"/><path d="M360.24,76c-1.84,4.45-4.44,7-7.56,8.51s-6.85,1.74-10.77,1.74V78.19c3.33,0,5.5-.39,7-1.22a7.92,7.92,0,0,0,3.16-4.19l1-2.64h-1.22L338.78,37.9h11l7.39,20.53,7.45-20.53h11Z" style="fill:#fff"/><path d="M389.53,41.38c2.59-2.47,5.37-4.3,9.37-4.3,6,0,12.57,3.67,12.57,12.51V70.13H400.61V51.9c0-4.58-2.29-6.14-5-6.14-1.69,0-3.44.4-6.07,3.94V70.13H378.68V24.57h10.85Z" style="fill:#fff"/><path d="M447.71,65.34c-3.17,3.39-8,5.51-14.48,5.51-11.55,0-17.67-7.73-17.67-16.84s6-16.85,17.6-16.85c11.23,0,16.91,7.13,16.91,16.46a20.33,20.33,0,0,1-.29,3.45H426.29c.92,3.87,4,5.69,7.9,5.69A17.62,17.62,0,0,0,443.12,60ZM440.17,51a6.58,6.58,0,0,0-.17-1.55c-.57-2.92-2.92-4.19-6.54-4.19-4.34,0-6.59,2.48-7.06,5.48l0,.26Z" style="fill:#fff"/><path d="M473.73,45.77h-1.95c-1.78,0-4.3.53-6.65,3.81V70.13H454.28V37.9h9.54l.53,4.26c2.27-2.82,5.11-5,9.07-5.07h.3Z" style="fill:#fff"/><path d="M512,54c0,9.24-6.26,16.82-18.43,16.82S475.14,63.09,475.14,54s6.36-16.86,18.43-16.86C505.43,37.16,512,44.64,512,54Zm-18.43-8.25c-4.48,0-7.58,2.9-7.58,8.25s3.1,8.25,7.58,8.25,7.58-2.78,7.58-8.25-3.09-8.25-7.58-8.25Z" style="fill:#fff"/><path d="M96.75,29.66a18.71,18.71,0,0,1,2.56-2.91,21.26,21.26,0,0,0-6.94-1.63A19.17,19.17,0,0,1,96.75,29.66Z" style="fill:#fff"/><path d="M51.22,56.19a21.44,21.44,0,0,1-11.84,3.66A71.26,71.26,0,0,0,50.25,75c6,6.61,19.11,16.45,22.9,16.5,3,0,12.19-6.16,18.86-12a82,82,0,0,1-12.79-9.63c-2.29,1.27-4.19,2.07-5.31,2.06C70.21,71.87,58.25,63.13,51.22,56.19Z" style="fill:#fff;opacity:0.8"/><path d="M37.06,37A20.91,20.91,0,0,1,55.82,24.73c-.44-.54-.91-1.06-1.42-1.56a21.43,21.43,0,0,0-20.78-5.5,21.2,21.2,0,0,0-.43,4A34.16,34.16,0,0,0,37.06,37Z" style="fill:#fff;opacity:0.8"/><path d="M49.24,54.15A75.16,75.16,0,0,1,37.06,37a19.66,19.66,0,0,0-1.7,7.85,32.33,32.33,0,0,0,4,15,21.44,21.44,0,0,0,11.84-3.66C50.51,55.49,49.83,54.8,49.24,54.15Z" style="fill:#fff;opacity:0.8"/><path d="M37.06,37A75.16,75.16,0,0,0,49.24,54.15c.6.65,1.27,1.34,2,2a21.44,21.44,0,0,0,4.6-31.46A20.91,20.91,0,0,0,37.06,37Z" style="fill:#fff"/><path d="M55.82,24.73a21.44,21.44,0,0,1-4.6,31.46c7,6.94,19,15.68,22.7,15.74,1.11,0,3-.79,5.31-2.06-1.31-1.2-2.5-2.37-3.48-3.44-8.94-9.8-13.43-18.9-13.35-27,0-.6,0-1.18.11-1.76,0-.22.07-.43.1-.64s.1-.71.18-1.06.13-.53.2-.8.14-.56.23-.83.2-.59.31-.88.17-.45.26-.67.27-.63.42-.93l.27-.53c.18-.33.36-.66.55-1l.24-.38c.22-.35.45-.69.7-1l.18-.23c.28-.37.57-.72.88-1.07a20.72,20.72,0,0,0-10.6-2.93Z" style="fill:#fff;opacity:0.9"/></svg>