<svg xmlns="http://www.w3.org/2000/svg" viewBox="0 0 157.03 113.03"><title>old-mark-inverted</title><rect width="157.03" height="113.03" style="fill:#585858"/><path d="M14.33,43.18a13.38,13.38,0,1,1,18.91,0A13.39,13.39,0,0,1,14.33,43.18Z" style="fill:#fff"/><path d="M9.21,85.11a9.44,9.44,0,1,1,13.34,0A9.42,9.42,0,0,1,9.21,85.11Z" style="fill:#fff;opacity:0.5"/><path d="M.94,15.53A5.5,5.5,0,0,1,.88,7.77a5.5,5.5,0,0,1,7.76.05,5.49,5.49,0,0,1,.07,7.78A5.5,5.5,0,0,1,.94,15.53Z" style="fill:#fff;opacity:0.9"/><path d="M28.84,65.81a26.39,26.39,0,1,1,37.29,0A26.38,26.38,0,0,1,28.84,65.81Z" style="fill:#fff;opacity:0.5"/><path d="M92.34,81.59c-11-12-16.49-23.22-16.4-33.18C76.06,36.1,86.47,26.17,99.13,26.3a23.14,23.14,0,0,1,19,10.13,23.11,23.11,0,0,1,19.21-9.78,23.59,23.59,0,0,1,3.92.39C141.12,12.47,129,.59,113.93.44A27.8,27.8,0,0,0,90.82,12.19,27.77,27.77,0,0,0,68,0C52.72-.15,40.21,11.8,40.07,26.59,40,38.58,46.59,52,59.79,66.51c8,8.75,25.29,21.77,30.31,21.84,1.37,0,3.71-1,6.52-2.53C95,84.35,93.55,82.91,92.34,81.59Z" style="fill:#fff;opacity:0.8"/><path d="M118.16,36.43a22.93,22.93,0,0,1,3.14-3.58,26.11,26.11,0,0,0-8.53-2A23.62,23.62,0,0,1,118.16,36.43Z" style="fill:#fff;opacity:0.8"/><path d="M92.34,81.59c-11-12-16.49-23.22-16.4-33.18a21.86,21.86,0,0,1,5.69-14.46,25.44,25.44,0,0,0-13-3.6C54.47,30.22,42.85,41.29,42.74,55c-.11,11.12,6,23.59,18.29,37,7.41,8.12,23.48,20.2,28.14,20.27,3.71,0,15-7.57,23.17-14.69A99.93,99.93,0,0,1,92.34,81.59Z" style="fill:#fff;opacity:0.8"/><path d="M143.07,82.08c-6.75,7.14-21.38,17.69-25.52,17.67S99,88.87,92.34,81.59C85.43,74,80.68,66.76,78.14,59.94c1.67,8,6.71,16.61,15.08,25.8,6.36,7,20.16,17.34,24.16,17.4s18-10.09,24.46-16.93c8-8.43,13.06-16.44,15.19-23.91C154.25,68.59,149.59,75.2,143.07,82.08Z" style="fill:#fff;opacity:0.8"/></svg>