<svg xmlns="http://www.w3.org/2000/svg" viewBox="0 0 576.47 195.94"><title>powered-by-inverted-padded-background</title><rect x="-1" width="577.47" height="195.76" style="fill:#213b45"/><rect x="-1" width="577.47" height="195.76" style="fill:#213b45"/><g style="opacity:0.6000000000000001"><path d="M208.55,73.26V41.1h4.34v3.33a9.49,9.49,0,0,1,7.62-3.91c6.08,0,10.37,4.58,10.37,12.2S226.58,65,220.51,65a9.29,9.29,0,0,1-7.62-4V73.26Zm10.8-28.88a8,8,0,0,0-6.46,3.42v9.88a8.11,8.11,0,0,0,6.46,3.42c4.34,0,7-3.52,7-8.39S223.69,44.38,219.35,44.38Z" style="fill:#fff"/><path d="M234.92,52.72c0-6.7,4.53-12.2,11.77-12.2s11.77,5.5,11.77,12.2S254,65,246.69,65,234.92,59.47,234.92,52.72Zm19,0c0-4.39-2.56-8.34-7.23-8.34s-7.23,4-7.23,8.34,2.6,8.39,7.23,8.39S253.92,57.16,253.92,52.72Z" style="fill:#fff"/><path d="M278.41,46.5l-5.74,17.89h-4.48L260.86,41.1h4.53l5.3,17.74,5.83-17.74h3.76l5.83,17.74,5.3-17.74H296l-7.33,23.29h-4.48Z" style="fill:#fff"/><path d="M310,40.53c7,0,11.33,5.45,11.33,12.59v1.06H303a7.64,7.64,0,0,0,7.91,7.23,9.9,9.9,0,0,0,6.9-2.75l2,2.84A13.09,13.09,0,0,1,310.43,65c-6.94,0-12.05-4.92-12.05-12.25C298.37,46,303.24,40.53,310,40.53ZM302.91,51h14.22A6.89,6.89,0,0,0,310,44.09C305.37,44.09,303.15,47.85,302.91,51Z" style="fill:#fff"/><path d="M326.82,41.1h4.34v3.57a9.89,9.89,0,0,1,7.62-4.1V45a6.88,6.88,0,0,0-1.5-.14,8.23,8.23,0,0,0-6.12,3.38v16.2h-4.34Z" style="fill:#fff"/><path d="M353.34,40.53c7,0,11.33,5.45,11.33,12.59v1.06H346.25a7.64,7.64,0,0,0,7.91,7.23,9.9,9.9,0,0,0,6.9-2.75l2,2.84A13.09,13.09,0,0,1,353.73,65c-6.94,0-12.05-4.92-12.05-12.25C341.67,46,346.54,40.53,353.34,40.53ZM346.2,51h14.22a6.89,6.89,0,0,0-7.09-6.94C348.66,44.09,346.44,47.85,346.2,51Z" style="fill:#fff"/><path d="M386.71,61.07A9.63,9.63,0,0,1,379.09,65c-6.08,0-10.42-4.58-10.42-12.2S373,40.53,379.09,40.53a9.48,9.48,0,0,1,7.62,4V32.23H391V64.39h-4.34Zm0-13.26a8,8,0,0,0-6.46-3.42c-4.34,0-7,3.52-7,8.39s2.7,8.34,7,8.34a8,8,0,0,0,6.46-3.38Z" style="fill:#fff"/><path d="M410.43,32.23h4.34V44.48a9.35,9.35,0,0,1,7.62-4c6.08,0,10.37,4.77,10.37,12.25S428.41,65,422.39,65a9.56,9.56,0,0,1-7.62-3.91v3.33h-4.34Zm10.8,28.88c4.34,0,7-3.47,7-8.34s-2.7-8.39-7-8.39a8,8,0,0,0-6.46,3.47v9.89A7.94,7.94,0,0,0,421.23,61.11Z" style="fill:#fff"/><path d="M439.74,70a3.22,3.22,0,0,0,3.38-2.27l1.35-3.09-9.6-23.53h4.63l7.28,18.27,7.28-18.27h4.68L447.26,68.83c-1.5,3.66-4.05,5-7.43,5a12.56,12.56,0,0,1-2.7-.34l.67-3.91A5.29,5.29,0,0,0,439.74,70Z" style="fill:#fff"/></g><path d="M161,137.54c-3.17,3.39-8,5.51-14.48,5.51-11.55,0-17.67-7.73-17.67-16.84s6-16.85,17.6-16.85c11.23,0,16.91,7.13,16.91,16.46a20.33,20.33,0,0,1-.29,3.45H139.58c.92,3.87,4,5.69,7.9,5.69a17.62,17.62,0,0,0,8.93-2.72Zm-7.54-14.34a6.67,6.67,0,0,0-.17-1.55c-.57-2.92-2.92-4.19-6.55-4.19-4.34,0-6.59,2.48-7.06,5.48l0,.26Z" style="fill:#fff"/><path d="M176.31,142.33l-13-32.23h11l7.51,21,7.51-21h11l-13,32.23Z" style="fill:#fff"/><path d="M232.52,137.54c-3.17,3.39-8,5.51-14.49,5.51-11.55,0-17.67-7.73-17.67-16.84s6-16.85,17.6-16.85c11.23,0,16.91,7.13,16.91,16.46a20.33,20.33,0,0,1-.29,3.45H211.1c.92,3.87,4,5.69,7.9,5.69a17.62,17.62,0,0,0,8.93-2.72ZM225,123.2a6.58,6.58,0,0,0-.17-1.55c-.57-2.92-2.92-4.19-6.54-4.19-4.34,0-6.59,2.48-7.06,5.48l0,.26Z" style="fill:#fff"/><path d="M258.54,118H256.6c-1.78,0-4.3.53-6.65,3.81v20.56H239.09V110.1h9.54l.53,4.26c2.27-2.82,5.11-5,9.08-5.07h.3Z" style="fill:#fff"/><path d="M281.87,148.2c-1.84,4.45-4.44,7-7.56,8.51s-6.85,1.74-10.77,1.74v-8.06c3.33,0,5.5-.39,7-1.22a7.92,7.92,0,0,0,3.16-4.19l1-2.64h-1.22L260.4,110.1h11l7.39,20.53,7.45-20.53h11Z" style="fill:#fff"/><path d="M323.63,142.33l-.48-3.81c-2.4,2.95-6.55,4.45-10.71,4.45-7.65,0-15-5-15-16.82,0-11.24,7.41-16.8,15.28-16.8a14.24,14.24,0,0,1,9.61,3.59V96.77h10.85v45.57Zm-1.31-20.48a7.48,7.48,0,0,0-6.73-3.89c-4.52,0-7.32,2.72-7.32,8.24s2.87,8.25,7.46,8.25a7,7,0,0,0,6.59-3.89Z" style="fill:#fff"/><path d="M339.24,113.14a32.31,32.31,0,0,1,14.86-3.78c8.24,0,15.59,3.76,15.59,12.51v20.46h-9.54l-.47-3.73a13.09,13.09,0,0,1-10.21,4.6c-6.08,0-12.07-4-12.07-11.12,0-7.67,6.94-11.06,13.85-11.06a19.63,19.63,0,0,1,7.59,1.47v-.85c-.14-3.34-3.21-4.67-6.76-4.67a24.24,24.24,0,0,0-10.33,2.64ZM358.88,129a11.61,11.61,0,0,0-5.65-1.38c-3,0-5.7,1.12-5.7,3.78,0,2.47,2.44,3.75,5.2,3.75a7.88,7.88,0,0,0,6.16-2.56Z" style="fill:#fff"/><path d="M392.47,148.2c-1.84,4.45-4.44,7-7.56,8.51s-6.85,1.74-10.77,1.74v-8.06c3.33,0,5.5-.39,7-1.22a7.92,7.92,0,0,0,3.16-4.19l1-2.64h-1.22L371,110.1h11l7.39,20.53,7.45-20.53h11Z" style="fill:#fff"/><path d="M421.75,113.58c2.59-2.47,5.37-4.3,9.37-4.3,6,0,12.57,3.67,12.57,12.51v20.54H432.84V124.1c0-4.58-2.29-6.14-5-6.14-1.69,0-3.44.4-6.07,3.94v20.42H410.91V96.77h10.85Z" style="fill:#fff"/><path d="M479.94,137.54c-3.17,3.39-8,5.51-14.49,5.51-11.55,0-17.67-7.73-17.67-16.84s6-16.85,17.6-16.85c11.23,0,16.91,7.13,16.91,16.46a20.33,20.33,0,0,1-.29,3.45H458.52c.92,3.87,4,5.69,7.9,5.69a17.62,17.62,0,0,0,8.93-2.72ZM472.4,123.2a6.58,6.58,0,0,0-.17-1.55c-.57-2.92-2.92-4.19-6.54-4.19-4.34,0-6.59,2.48-7.06,5.48l0,.26Z" style="fill:#fff"/><path d="M506,118H504c-1.78,0-4.3.53-6.65,3.81v20.56H486.51V110.1h9.54l.53,4.26c2.27-2.82,5.11-5,9.08-5.07h.3Z" style="fill:#fff"/><path d="M544.23,126.22c0,9.24-6.27,16.83-18.43,16.83s-18.43-7.75-18.43-16.83,6.36-16.86,18.43-16.86C537.66,109.36,544.23,116.84,544.23,126.22ZM525.8,118c-4.48,0-7.58,2.9-7.58,8.25s3.1,8.25,7.58,8.25,7.58-2.78,7.58-8.25S530.3,118,525.8,118Z" style="fill:#fff"/><path d="M128.82,101.84a18.64,18.64,0,0,1,2.56-2.91,21.22,21.22,0,0,0-6.93-1.63A19.19,19.19,0,0,1,128.82,101.84Z" style="fill:#fff"/><g style="opacity:0.7000000000000001"><path d="M40.28,130.56a7.67,7.67,0,1,0,10.84,0A7.66,7.66,0,0,0,40.28,130.56Z" style="fill:#fff"/><path d="M39.82,78.59a4.43,4.43,0,1,0,.06,6.32A4.47,4.47,0,0,0,39.82,78.59Z" style="fill:#fff"/><path d="M107.84,138.54c-8.92-9.79-13.4-18.87-13.32-27a17.76,17.76,0,0,1,4.62-11.75,20.67,20.67,0,0,0-10.58-2.93l-.6,0c-.44-.54-.91-1.06-1.42-1.56a21.41,21.41,0,0,0-26.39-3c-.11-.12-.22-.25-.34-.37A10.87,10.87,0,1,0,50,110.28,21.38,21.38,0,0,0,71.54,132a71.15,71.15,0,0,0,10.85,15.08c6,6.6,19.08,16.41,22.86,16.47,3,0,12.17-6.15,18.83-11.94A81.21,81.21,0,0,1,107.84,138.54Z" style="fill:#fff"/></g><path d="M107.84,138.54c-8.92-9.79-13.4-18.87-13.32-27,.09-10,8.55-18.08,18.84-18a18.8,18.8,0,0,1,15.46,8.23,18.78,18.78,0,0,1,15.61-7.95,19.17,19.17,0,0,1,3.18.32c-.13-11.84-10-21.49-22.23-21.62a22.59,22.59,0,0,0-18.78,9.55A22.57,22.57,0,0,0,88,72.23c-12.38-.12-22.55,9.59-22.66,21.61-.1,9.74,5.3,20.66,16,32.44C87.87,133.39,101.94,144,106,144c1.11,0,3-.79,5.3-2.06C110,140.78,108.82,139.61,107.84,138.54Z" style="fill:#fff"/></svg>