<svg width="772" height="608" viewBox="0 0 772 608" xmlns="http://www.w3.org/2000/svg"><title>Shapes</title><g stroke="#000" stroke-width="2" fill="none" fill-rule="evenodd"><path d="M607.752 319.077c2.127 11.081 13.42 19.2 24.345 19.649l8.405.288c25.292.725 56.38-.678 85.234-3.492 14.02-1.434 23.692-13.412 23.715-27.097 1.235-24.073.987-48.37-1.589-72.351-1.247-11.615-2.093-23.016-12.682-30.153-7.863-5.301-18.76-5.189-27.921-5.956-19.272-1.609-38.712-2.038-58.044-1.636-16.657.348-35.537 1.538-39.31 21.95l-.447 4.797c-2.918 32.488-2.615 89.269-1.706 94zM71.063 108.518C60.126 96.523 54.633 85.392 54.728 75.47 54.84 63.206 65.212 53.32 77.82 53.448c11.446.104 17.42 7.788 18.961 10.09 1.581-2.273 7.693-9.85 19.135-9.74 1.334.013 2.631.163 3.903.39-.163-14.513-12.265-26.34-27.25-26.5-13.768-.139-21.117 8.975-23.023 11.708-1.843-2.773-9.025-12.01-22.783-12.14-15.178-.147-27.65 11.748-27.781 26.486-.12 11.94 6.493 25.323 19.645 39.752 7.953 8.716 25.197 21.682 30.202 21.757 1.364.006 3.695-.963 6.498-2.52-1.604-1.464-3.064-2.898-4.265-4.213zM702.618 50.385c15.64 16.463 2.89 39.316-9.158 53.487-4.118 4.843-8.658 9.177-13.623 13.15-4.77 3.82-9.836 7.606-15.351 10.291-3.082 1.503-5.762 1.8-8.937.39-2.976-1.32-5.756-3.127-8.441-4.953-5.176-3.52-10.13-7.44-14.68-11.738-13.51-12.766-30.59-36.192-19.829-55.424 9.236-16.506 34.68-19.43 47.008-1.67 9.479-14.459 31.04-16.139 43.011-3.533zM292.6 203.534c11.446.106 17.42 7.79 18.961 10.093 1.58-2.274 7.693-9.851 19.134-9.74M155.169 467.943c1.58-2.274 7.692-9.851 19.134-9.741 1.334.015 2.631.16 3.903.39M242.748 366.337c5.728-8.234 27.87-35.685 69.328-35.291 4.831.052 9.536.59 14.138 1.41M230.337 223.036c-.163-14.513-12.266-26.34-27.248-26.499-13.769-.137-21.117 8.976-23.025 11.71-1.843-2.773-9.025-12.01-22.783-12.143-15.177-.144-27.648 11.748-27.782 26.486M272.46 87.278c-10.265-10.312-10.265-26.93 0-37.161 10.26-10.288 26.892-10.288 37.151-.05 10.316 10.28 10.316 26.857 0 37.211-10.26 10.23-26.89 10.23-37.15 0zM35.588 225.208c.035-14.548 11.79-26.299 26.284-26.276 14.532-.023 26.293 11.732 26.305 26.226M640.483 548.443c.03 33.816 52.506 33.822 52.59-.05-16.584 11.08-35.879 10.317-52.59.05zM218.178 566.524c4.933-7.632 13.673-12.484 23.381-11.988a26.31 26.31 0 0 1 13.194 4.298c4.272 2.818 7.37 7.073 11.606 9.91 4.262 2.86 9.4 4.355 14.524 4.346 9.719.017 18.208-5.263 22.756-13.132M198.262 81.418c-10.937-11.994-16.43-23.126-16.336-33.046.05-5.518 2.19-10.544 5.664-14.404-3.301-1.974-7.588-3.536-12.974-3.586-14.088-.13-25.663 10.905-25.78 24.585-.113 11.078 6.022 23.496 18.227 36.889 7.38 8.086 23.39 20.118 28.03 20.189 3.7.019 14.924-7.542 23.085-14.636-6.097-3.5-15.072-10.683-19.916-15.99zM109.746 451.784c-6.12 5.32-13.963 10.902-19.063 13.354M267.115 433.762c3.253 2.65 8 8.153 11.398 13.045-3.399 4.89-8.18 10.398-11.431 13.045M492.561 293.748c12.468-9.597 29.944-24.763 36.29-30.268-8.64-1.488-29.705-3.029-47.58-3.408-6.08-16.818-15.255-39.772-19.765-49.377-4.177 7.433-13.733 30.311-20.35 49.669-17.15.577-41.736 2.278-50.9 3.352 7.861 7.958 23.717 21.702 39.423 33.473-4.264 15.003-9.502 36.316-11.709 47.143 6.95-3.17 26.462-16.185 41.14-26.234 15.443 10.429 36.746 22.832 46.847 28.425-2.102-14.048-7.28-32.89-13.396-52.775zM147.496 560.692c-43.027 5.534-94.496 7.142-124.47 2.933M531.449 155.418c3.845-31.894 2.062-84.868-3.366-128.871-45.7-5.883-100.193-7.434-132.028-2.965-5.966 46.336-8.093 101.437-2.709 134.846 22.896 6.198 92.401 2.869 138.103-3.01zM159.791 378.824c-6.097-3.502-15.072-10.683-19.916-15.99-10.937-11.997-16.43-23.126-16.335-33.045.052-5.52 2.191-10.546 5.665-14.406M51.588 311.797c-14.088-.13-25.665 10.904-25.78 24.585-.113 11.077 6.02 23.495 18.225 36.888M609.494 519.554c68.527 27.288 123.978-4.953 138.774-14.936 0 0-123.089 8.457-162.001 2.993 0 0 15.243 8.755 23.227 11.943z" stroke-linecap="round" stroke-linejoin="round"/><path d="M480.475 396.758c-24.705 6.708-35.547 45.168 9.519 52.435 65.607 7.03 142.634 2.54 177.225-4.352 31.154-9.979 22.088-50.332-9.143-52.272-37.353-6.157-161.469 0-177.601 4.189z"/><path d="M559.376 587.066c7.902-1.516 13.688-9.567 14.01-17.356l.204-5.992c.518-18.03-.483-40.193-2.489-60.763-1.022-9.994-9.561-16.89-19.317-16.907-17.162-.88-123.65-.703-140.744 1.133-8.28.89-16.408 1.493-21.496 9.041-3.78 5.606-3.7 13.375-4.248 19.905-1.145 13.74-1.452 27.598-1.165 41.38.248 11.875 1.095 25.334 15.647 28.023l3.421.32c23.16 2.08 152.805 1.864 156.177 1.216z" stroke-linecap="round" stroke-linejoin="round"/></g></svg>