<svg width="512" height="512" viewBox="0 0 512 512" xmlns="http://www.w3.org/2000/svg" xmlns:xlink="http://www.w3.org/1999/xlink"><title>Illustration</title><defs><ellipse id="a" cx="256" cy="256" rx="150" ry="150"/><mask id="o" x="0" y="0" width="300" height="300" fill="#fff"><use xlink:href="#a"/></mask><path d="M25.524 47.88c-1.257-.585-2.432-1.396-3.432-2.109a47.794 47.794 0 0 1-5.836-4.91C9.74 34.388 4.242 24.719 8.357 16.987c1.895-3.56 5.583-5.9 9.625-6.106 3.7-.16 7.1 1.37 9.477 4.308 1.916-2.42 4.714-3.95 7.85-4.245 3.646-.342 7.142 1.012 9.588 3.719 7.25 8.024-.056 18.896-3.536 23.197a40.175 40.175 0 0 1-5.434 5.515c-1.86 1.566-3.894 3.175-6.156 4.333-.82.42-1.58.63-2.327.63-.639 0-1.268-.152-1.92-.457z" id="b"/><mask id="p" x="0" y="0" width="41.054" height="37.468" fill="#fff"><use xlink:href="#b"/></mask><path d="M25.524 47.88c-1.257-.585-2.432-1.396-3.432-2.109a47.794 47.794 0 0 1-5.836-4.91C9.74 34.388 4.242 24.719 8.357 16.987c1.895-3.56 5.583-5.9 9.625-6.106 3.7-.16 7.1 1.37 9.477 4.308 1.916-2.42 4.714-3.95 7.85-4.245 3.646-.342 7.142 1.012 9.588 3.719 7.25 8.024-.056 18.896-3.536 23.197a40.175 40.175 0 0 1-5.434 5.515c-1.86 1.566-3.894 3.175-6.156 4.333-.82.42-1.58.63-2.327.63-.639 0-1.268-.152-1.92-.457z" id="c"/><mask id="q" x="0" y="0" width="41.054" height="37.468" fill="#fff"><use xlink:href="#c"/></mask><path d="M29.202 54.78c-1.439-.67-2.782-1.597-3.927-2.413a54.68 54.68 0 0 1-6.677-5.617c-7.455-7.407-13.744-18.47-9.036-27.317 2.167-4.073 6.386-6.75 11.011-6.985 4.234-.183 8.124 1.567 10.842 4.929 2.193-2.77 5.394-4.52 8.981-4.857 4.172-.392 8.172 1.158 10.97 4.254 8.296 9.181-.063 21.62-4.045 26.54a45.964 45.964 0 0 1-6.217 6.31c-2.128 1.792-4.455 3.633-7.043 4.958-.938.48-1.807.72-2.662.72-.73 0-1.451-.174-2.197-.522z" id="d"/><mask id="r" x="0" y="0" width="46.97" height="42.867" fill="#fff"><use xlink:href="#d"/></mask><path d="M19.001 35.644c-.936-.436-1.81-1.04-2.555-1.57a35.58 35.58 0 0 1-4.344-3.655C7.25 25.6 3.158 18.401 6.222 12.645A8.648 8.648 0 0 1 13.387 8.1c2.754-.12 5.286 1.02 7.054 3.207a8.406 8.406 0 0 1 5.844-3.16c2.714-.255 5.317.753 7.138 2.768 5.398 5.974-.042 14.067-2.632 17.269a29.908 29.908 0 0 1-4.045 4.106c-1.385 1.165-2.9 2.363-4.583 3.225-.61.313-1.176.469-1.732.469-.476 0-.945-.113-1.43-.34z" id="e"/><mask id="s" x="0" y="0" width="30.562" height="27.893" fill="#fff"><use xlink:href="#e"/></mask><path d="M15.183 28.482c-.748-.348-1.446-.83-2.042-1.255a28.43 28.43 0 0 1-3.471-2.92c-3.876-3.851-7.146-9.604-4.699-14.203a6.91 6.91 0 0 1 5.726-3.632c2.201-.095 4.224.815 5.637 2.563a6.717 6.717 0 0 1 4.67-2.525 6.766 6.766 0 0 1 5.703 2.212c4.314 4.773-.033 11.24-2.103 13.799a23.898 23.898 0 0 1-3.232 3.28c-1.107.932-2.317 1.89-3.662 2.578-.488.25-.94.375-1.385.375-.38 0-.754-.09-1.142-.272z" id="f"/><mask id="t" x="0" y="0" width="24.421" height="22.288" fill="#fff"><use xlink:href="#f"/></mask><path d="M13.415 25.165c-.66-.308-1.278-.734-1.804-1.108a25.12 25.12 0 0 1-3.067-2.58C5.119 18.072 2.23 12.99 4.392 8.926a6.106 6.106 0 0 1 5.06-3.208c1.944-.084 3.731.72 4.98 2.264a5.935 5.935 0 0 1 4.126-2.231 5.978 5.978 0 0 1 5.04 1.954c3.81 4.217-.03 9.932-1.86 12.192a21.115 21.115 0 0 1-2.855 2.899c-.978.823-2.047 1.668-3.236 2.277-.43.221-.83.331-1.223.331-.335 0-.666-.08-1.009-.24z" id="g"/><mask id="u" x="0" y="0" width="21.577" height="19.693" fill="#fff"><use xlink:href="#g"/></mask><path d="M14.846 27.848c-.732-.34-1.415-.812-1.997-1.226a27.798 27.798 0 0 1-3.394-2.856c-3.79-3.765-6.987-9.39-4.594-13.887a6.757 6.757 0 0 1 5.598-3.55c2.152-.094 4.13.796 5.512 2.505a6.568 6.568 0 0 1 4.565-2.47c2.121-.198 4.154.59 5.577 2.164 4.218 4.667-.032 10.99-2.056 13.492a23.367 23.367 0 0 1-3.16 3.208c-1.083.91-2.266 1.846-3.581 2.52-.477.244-.92.366-1.354.366-.371 0-.738-.089-1.116-.266z" id="h"/><mask id="v" x="0" y="0" width="23.878" height="21.792" fill="#fff"><use xlink:href="#h"/></mask><path d="M19.048 35.587c-.939-.436-1.815-1.038-2.562-1.568a35.632 35.632 0 0 1-4.355-3.649C7.27 25.558 3.166 18.371 6.237 12.625c1.414-2.647 4.166-4.386 7.183-4.538 2.761-.119 5.299 1.018 7.072 3.202a8.436 8.436 0 0 1 5.858-3.156c2.72-.254 5.33.752 7.155 2.764 5.411 5.964-.042 14.045-2.638 17.241a29.918 29.918 0 0 1-4.056 4.1c-1.388 1.163-2.906 2.36-4.594 3.22-.611.313-1.179.468-1.736.468-.477 0-.947-.113-1.433-.34z" id="i"/><mask id="w" x="0" y="0" width="30.637" height="27.848" fill="#fff"><use xlink:href="#i"/></mask><path d="M19.206 36.027c-.947-.44-1.83-1.05-2.583-1.587a35.962 35.962 0 0 1-4.391-3.694C7.329 25.875 3.192 18.6 6.288 12.781a8.741 8.741 0 0 1 7.243-4.594c2.784-.12 5.342 1.03 7.13 3.241a8.497 8.497 0 0 1 5.907-3.194c2.743-.258 5.374.761 7.215 2.798 5.456 6.038-.042 14.219-2.66 17.455a30.23 30.23 0 0 1-4.09 4.15c-1.4 1.178-2.93 2.389-4.632 3.26-.616.317-1.188.474-1.75.474a3.37 3.37 0 0 1-1.445-.344z" id="j"/><mask id="x" x="0" y="0" width="30.891" height="28.193" fill="#fff"><use xlink:href="#j"/></mask><path d="M19.206 36.027c-.947-.44-1.83-1.05-2.583-1.587a35.962 35.962 0 0 1-4.391-3.694C7.329 25.875 3.192 18.6 6.288 12.781a8.741 8.741 0 0 1 7.243-4.594c2.784-.12 5.342 1.03 7.13 3.241a8.497 8.497 0 0 1 5.907-3.194c2.743-.258 5.374.761 7.215 2.798 5.456 6.038-.042 14.219-2.66 17.455a30.23 30.23 0 0 1-4.09 4.15c-1.4 1.178-2.93 2.389-4.632 3.26-.616.317-1.188.474-1.75.474a3.37 3.37 0 0 1-1.445-.344z" id="k"/><mask id="y" x="0" y="0" width="30.891" height="28.193" fill="#fff"><use xlink:href="#k"/></mask><path d="M13.807 25.9c-.68-.316-1.315-.755-1.857-1.14a25.854 25.854 0 0 1-3.156-2.656C5.269 18.602 2.295 13.371 4.52 9.188a6.284 6.284 0 0 1 5.206-3.302c2.002-.087 3.841.74 5.127 2.33A6.108 6.108 0 0 1 19.1 5.92a6.153 6.153 0 0 1 5.187 2.011c3.922 4.341-.03 10.222-1.913 12.548a21.732 21.732 0 0 1-2.94 2.984c-1.006.847-2.106 1.717-3.33 2.344-.443.227-.854.34-1.258.34-.346 0-.686-.082-1.039-.246z" id="l"/><mask id="z" x="0" y="0" width="22.208" height="20.268" fill="#fff"><use xlink:href="#l"/></mask><path d="M13.807 25.9c-.68-.316-1.315-.755-1.857-1.14a25.854 25.854 0 0 1-3.156-2.656C5.269 18.602 2.295 13.371 4.52 9.188a6.284 6.284 0 0 1 5.206-3.302c2.002-.087 3.841.74 5.127 2.33A6.108 6.108 0 0 1 19.1 5.92a6.153 6.153 0 0 1 5.187 2.011c3.922 4.341-.03 10.222-1.913 12.548a21.732 21.732 0 0 1-2.94 2.984c-1.006.847-2.106 1.717-3.33 2.344-.443.227-.854.34-1.258.34-.346 0-.686-.082-1.039-.246z" id="m"/><mask id="A" x="0" y="0" width="22.208" height="20.268" fill="#fff"><use xlink:href="#m"/></mask><path d="M22.337 41.9c-1.101-.512-2.129-1.221-3.004-1.845a41.825 41.825 0 0 1-5.107-4.296C8.523 30.093 3.713 21.63 7.314 14.864c1.658-3.115 4.885-5.163 8.422-5.343 3.239-.14 6.214 1.199 8.293 3.77a9.882 9.882 0 0 1 6.87-3.715c3.19-.3 6.25.886 8.39 3.254 6.346 7.023-.048 16.537-3.093 20.3a35.157 35.157 0 0 1-4.756 4.827c-1.628 1.37-3.407 2.778-5.387 3.792-.717.368-1.382.551-2.036.551-.56 0-1.11-.133-1.68-.4z" id="n"/><mask id="B" x="0" y="0" width="35.927" height="32.789" fill="#fff"><use xlink:href="#n"/></mask></defs><g fill="none" fill-rule="evenodd"><path fill="#D2F0F7" d="M0 0h512v512H0z"/><use stroke-opacity=".4" stroke="#000" mask="url(#o)" stroke-width="4" fill="#56D882" xlink:href="#a"/><path d="M233.469 185.98c-.338.406.116 1.635-.117 2.109-.216.434-1.041 1.04-1.473 1.259-.589.3-1.996.942-2.57.613-.54-.31-.083-.905-.315-1.053-.215-.137-.803.304-1.008.153-.447-.329-.663-1.747-.335-2.194.637-.866 3.464.086 4.25-.648.449-.42.091-1.976.536-2.4.31-.295 1.257-.266 1.684-.292.499-.03 1.71-.304 1.996.105.277.395-.212 1.513-.563 1.844-.39.367-1.742.092-2.085.504zm-11.228 5.673c-.44-.322-.285-1.642-.162-2.173.125-.545.584-1.789 1.124-1.935.575-.156 1.772.66 2.073 1.174.279.475.353 1.77.013 2.204-.483.616-2.414 1.191-3.048.73zm83.163-36.482c.743-.723 2.819-1.472 3.855-1.535.784-.048 2.537.197 3.038.801.518.627.52 2.486.228 3.245-.677 1.765-3.748 4.41-5.442 5.249-.783.387-2.751 1.044-3.455.526-.628-.462-.569-2.31-.47-3.083.181-1.405 1.23-4.216 2.246-5.203zm5.404-7.58c.921-.855 3.58-2.256 4.721-1.73 1.39.642 1.358 4.42 2.133 5.74.63 1.075 2.351 2.916 3.234 3.797.47.469 1.43 1.421 2.023 1.717.764.38 2.998-.039 3.332.747.454 1.07-1.484 3.283-2.42 3.973-1.172.866-4.223 1.138-5.652 1.426-1.07.217-3.47 1.347-4.317.658-1.01-.819-1.005-4.104-.293-5.193.507-.775 3.053-.464 3.473-1.29.276-.547-.266-1.898-.67-2.359-.656-.751-2.753-1.176-3.66-1.59-.653-.3-2.162-.666-2.59-1.243-.353-.479-.438-1.763-.357-2.353.086-.625.58-1.87 1.043-2.3zm67.773 35.189c-1.41-.37-3.74-2.444-4.532-3.667-.947-1.462-.139-6.17-1.786-6.735-1.083-.371-3.084 1.775-3.641 2.775-1.065 1.907-.862 8.697-.862 8.697s-5.56-3.426-6.664-5.234c-.762-1.246-.287-4.531-1.113-5.736-1.046-1.525-4.736-2.89-6.267-3.926-.604-.41-1.649-1.547-2.357-1.72-1.58-.386-5.703-.476-6.43.98-.687 1.374 1.75 4.405 2.908 5.416 1.687 1.473 6.436 2.04 8.39 3.135.432.242 1.572.725 1.56 1.22-.01.473-1.361.656-1.544 1.092-.44 1.06 1.232 3.484.755 4.527-.43.938-2.52 1.9-3.522 2.146-.81.199-2.573.136-3.33-.215-.798-.372-2.744-1.719-2.438-2.545.46-1.241 4.17.222 5.27-.515.497-.334 1.309-1.55 1.12-2.119-1.116-3.355-10.322-3.514-12.781-6.055-.606-.626-.527-3.077-1.39-3.196-1.59-.22-2.592 4.325-4.059 4.976-1.128.5-3.85-.854-4.928-.254-2.634 1.465-5.829 10.555-5.829 10.555s-.161 3.199-.86 3.917c-.824.845-3.425.897-4.581 1.131-1.704.345-5.133 1.202-6.868 1.09-1.145-.073-3.587-.489-4.403-1.295-1.485-1.467-2.363-5.896-2.454-7.982-.046-1.052.882-4.119.882-4.119s4.974-2.31 6.762-2.598c1.944-.313 6.398 1.682 7.867.37.815-.73.999-3.538.284-4.366-.55-.637-2.791.352-3.357-.272-1.133-1.248-.9-5.392.108-6.744 1.174-1.576 5.998-1.096 7.493-2.372 1.788-1.525 2.434-6.869 4.213-8.404 1.077-.929 4.002-1.548 5.406-1.776 1.263-.204 3.843.079 5.119-.02.463-.037 1.59.112 1.838-.28.972-1.54-.399-6.31-2.093-6.972-1.547-.604-4.106 3.798-5.714 3.385-1.405-.362-1.683-4.288-2.947-5-.785-.442-3.605.046-3.605.046s-1.34-2.62-1.217-3.55c.141-1.068 1.62-2.84 2.408-3.575 1.359-1.27 5.234-2.31 6.437-3.729.59-.696 1.285-3.417 1.285-3.417-29.594-19.017-65.897-27.74-103.323-22.21-32.907 5.009-61.43 20.176-83.22 41.77 0 0 5.592-1.384 7.477-1.2.959.094 2.672 1.14 3.615 1.339 1.591.335 5.19-.575 6.491.399.51.381.326 2.059.868 2.395 2.15 1.331 8.946 1.121 10.052-1.154.385-.792-1.05-2.617-1.843-2.999-2.025-.973-7.813 3.06-8.919 1.105-.358-.633 1.717-1.567 1.793-2.29.066-.619-.538-1.949-1.089-2.238-1.798-.944-7.107 3.033-8.03 1.224-1.256-2.463 5.303-6.618 7.766-7.875 1.89-.964 6.375-1.946 8.389-1.278 1.611.535 3.176 4.253 4.772 4.832 1.559.567 5.156.18 6.605-.628 1.213-.677 2.03-4.012 3.355-4.43.8-.253 2.942.229 3.195 1.029.58 1.831-2.984 5.138-4.624 6.136-1.546.94-7.507 1.273-7.135 1.216.372-.056.322 4.344 1.413 5.084 1.908 1.295 7.4-.055 9.075-1.64.487-.462.141-2.145.622-2.615 1.138-1.113 5.196-.115 6.227-1.329.617-.727.834-3.116.18-3.811-.649-.692-3.202.681-3.795-.06-.562-.7.174-2.81.728-3.517.463-.59 1.984-1.09 2.706-1.292 2.406-.675 8.757-3.215 9.944-1.016.883 1.637-4.412 3.931-4.694 5.77-.15.98.644 3.128 1.464 3.685 1.201.816 4.89 1.128 5.806.002 1.104-1.357-2.051-5.219-1.425-6.852.555-1.447 3.6-2.994 4.994-3.667 2.209-1.066 7.01-2.577 9.462-2.577 3.07 0 8.886 2.42 11.848 3.227.755.205 2.5.238 3.02.822.893 1.002-.167 4.385.809 5.306.843.796 3.992-.546 4.619.43.649 1.011-.661 3.768-1.585 4.535-.984.817-3.792.578-5.056.77-.309.047-1.008-.025-1.236.189-.952.89-.077 4.318-1.126 5.093-3.005 2.221-13.867 2.39-14.9-1.203-.895-3.112 10.525-4.506 10.384-7.742-.063-1.43-3.452-2.81-4.869-3.007-2.462-.342-7.532 1.284-9.561 2.719-.253.179-.422.92-.718 1.013-.698 1.093-1.673 2.992-2.52 3.566-.973.66-3.997.072-4.573 1.097-.29.517.29 1.853.724 2.257.323.302 1.432.085 1.716.423-.495 1.565-3.07 1.105-3.634 1.885-.327.453.403 1.795.056 2.232-.568.717-2.796 1.207-3.583.74-.957-.565-.292-3.804-1.31-4.25-1.57-.688-4.733 2.042-6.181 2.957-3.277 2.071-11.14 5.993-12.048 9.763-.335 1.39 2.317 5.227 2.317 5.227l4.067 1.847s6.114-1.327 7.555-.106c1.623 1.375-.528 7.294 1.281 8.413.744.46 2.718-.449 3.332-1.072 1.293-1.313.958-5.647 2.151-7.052 1.351-1.59 6.52-1.842 7.486-3.692 1.18-2.262-2.317-7.66-1.537-10.09.424-1.32 2.574-3.483 3.872-3.97 2.574-.965 9.057-1.099 10.961.884 1.175 1.224-1.036 5.7.272 6.78.555.458 2.175-.166 2.843-.433 2.034-.812 7.188-5.007 7.188-5.007s.307 6.982 1.706 8.7c.485.594 2.123.889 2.831 1.185.839.35 2.812.674 3.354 1.403.785 1.054 1.174 4.07.552 5.229-.358.666-2.34.72-2.683 1.395-.414.814-.054 2.927.55 3.612.792.899 3.834.395 4.61 1.308.587.689.937 2.852.42 3.594-.277.394-1.463.7-1.875.449-.492-.477-1.813-.36-2.409-.45-1.564-.232-5.066.11-6.256-.932-.508-.444-.18-2.228-.749-2.592-.336-.663 1.902-1.324 2.143-2.023.2-.577.076-1.993-.367-2.412-.491-.464-2.163-.676-2.69-.254-.459.365.073 1.875-.303 2.323-.748.891-3.277 1.318-4.437 1.395-.656.487-1.6.755-1.982.625-.693-.236-1.081-1.979-1.681-2.399-.337-.234-1.177-.4-1.586-.422-.819-.045-2.519.105-3.24.493-.424.228-1.152.969-1.29 1.43-.196.649-.067 2.198.408 2.682.517.527 2.177.443 2.913.502.697.055 2.595-.703 2.794-.034-1.243 1.023-1.71 3.396-2.645 3.51-.444.054-.906-1.03-1.314-1.216-.573-.26-1.924-.515-2.505-.27-2.102.889-6.048 4.944-5.63 7.189.051.276.948.295.964.576.167 2.801-6.947 4.827-8.89 6.852-2.305 2.407-6.685 7.714-7.683 10.893-.324 1.032.026 4.324.026 4.324s-6.385 5.353-8.242 7.41c-1.09 1.206-3.494 3.664-3.837 5.255-.487 2.26 3.587 7.483 1.89 9.052-1.29 1.192-6.744-1.972-6.744-1.972s.321-4.542-.762-5.347c-3.555-2.64-13.407 1.008-17.51 2.675-2.38.967-8.363 5.973-8.363 5.973s-2.364 5.826-2.84 7.86c-.343 1.47-1.029 4.529-.68 5.996.36 1.51 2.027 4.477 3.404 5.194 1.613.84 5.588.466 7.274-.218 3.2-1.298 6.817-10.044 10.194-9.323.963.206 1.532 2.628 1.569 3.612.068 1.872-3.54 5.538-2.47 7.075 1.269 1.82 7.156-1.249 8.872.158 2.616 2.144 2.89 13.218 2.89 13.218s9.483 1.653 12.156.206c2.557-1.385 3.615-8.503 6.194-9.846 2.09-1.088 7.266-.501 9.415.466 1.267.57 2.557 3.571 3.888 3.973 2.123.64 7.33-.088 8.676-1.85.398-.524-.668-2.224-.15-2.628 1.068-.833 4.034.874 5.168 1.612 2.139 1.392 4.336 6.788 6.727 7.68 2.22.828 7.188-2.18 9.388-1.298 1.635.656 3.623 3.93 4.38 5.522.806 1.693.29 6 1.62 7.323 1.278 1.273 5.29 1.143 7.053 1.524.979.211 2.914.809 3.915.845 3.304.117 10.003-3.046 13.091-1.866 1.738.665 3.17 4.782 4.789 5.7 1.338.758 5.114-.228 6.076.973.839 1.047.054 4.072-.327 5.358-.738 2.492-4.52 6.516-5.122 9.044-1.053 4.42 2.43 13.883.867 18.148-.635 1.736-3.392 4.57-5.038 5.41-1.92.977-6.853-.28-8.554 1.042-1.133.88-1.924 3.922-2.08 5.347.628 2.357 3.677 6.569 3.511 8.958-.058.86-1.268 2.253-1.69 3.004-1.442 2.563-4.54 7.579-5.765 10.252-.651 1.421-1.171 4.646-2.129 5.881-1.517 1.957-8.178 5.587-8.178 5.587s-4.823.546-5.67 1.765c-.357.513-.29 2.04.135 2.499.73.785 3.556-.267 4.25.548.442.52.141 2.084-.088 2.726-.43 1.207-3.223 2.794-3.114 4.07.077.898 1.786 2.172 2.643 2.449 1.057.34 3.546-1.247 4.406-.545.666.544.316 2.57.27 3.429-.047.89-.582 2.62-.66 3.51-.059.689-.305 2.166.037 2.767 1.062 1.866 6.412 2.538 7.324 4.481.318.68.102 2.444-.432 2.971-1.588 1.57-6.673 1.66-8.854 1.178-2.882-.635-7.77-4.358-9.962-6.336-2.6-2.347-7.422-7.726-8.685-10.993-1.062-2.75-.811-11.768-.811-11.768s-5.415-4.097-6.234-6.123c-1.128-2.791 2.279-9.756.315-12.037-.528-.613-2.635.169-3.215-.396-4.609-4.48-3.871-25.416-3.871-25.416s-9.632-5.232-10.123-5.157c-.492.075-3.806.333-4.731-.41-.964-.776-.928-3.643-1.603-4.679-2.483-3.813-13.361-12.358-13.361-12.358s.367-3.918.339-5.227c-.044-2.093-1.614-6.36-.894-8.325.825-2.25 6.3-4.301 6.938-6.61.628-2.273-.59-7.735-2.518-9.09-2.355-1.653-8.737 1.758-11.475.876-3.242-1.045-10.423-8.773-10.423-8.773s-4.908-.642-6.553-.763c-1.043-.075-3.443.617-4.18-.126-.663-.67.6-3.117-.077-3.774-.95-.922-4.436-.958-5.293.05-.344.404.682 1.711.319 2.097-2.314 2.457-10.426.284-13.44-1.232-2.153-1.084-5.974-4.818-6.427-7.185-.21-1.095 1.756-3.097 1.534-4.19-.73-3.597-8.17-7.558-10.03-10.722-1.137-1.934-.837-7.363-2.745-8.544-.715-.443-2.874-.202-3.328.508-1.17 1.827 1.358 6.44 2.405 8.34 1.273 2.313 6.1 5.417 7.006 7.896.305.835.547 2.936-.09 3.556-.881.858-3.81.521-4.921-.01-2.67-1.274-6.259-6.484-7.455-9.19-1.201-2.717.152-9.498-1.789-11.746-1.13-1.31-6.617-2.026-6.617-2.026l-1.286-8.45c-4.907 19.018-6.144 39.303-3.005 59.915 12.47 81.874 89.209 138.336 171.062 125.864 46.597-7.157 84.682-34.908 106.771-72.428l-4.897.746s-.373-7.645-1.503-9.871c-1.089-2.142-6.822-6.77-6.822-6.77s-.252-9.303-1.807-11.87c-.802-1.32-4.137-2.36-4.987-3.65-.69-1.046-1.19-3.632-1.125-4.883.157-2.99 3.894-11.326 3.894-11.326l-13.22-16.8s1.686-10.531-.663-12.657c-1.768-1.6-7.245 1.143-9.527.452-1.181-.358-2.777-2.634-3.975-2.93-1.546-.38-4.918.163-6.297.96-.954.552-1.795 2.895-2.75 3.447-2.43 1.406-9.062-.235-11.105 1.692-.194.183-.028.86-.222 1.044-1.136 1.07-6.169.94-6.169.94l-16.643-13.997s-3.225-9.758-1.803-12.606c.281-.565 1.883-.68 2.212-1.219.643-1.056 1.063-4.128.136-4.947-.63-.558-2.59.912-3.326.506-1.16-.638-2.383-3.549-2.132-4.849.968-5.027 12.99-9.487 14.61-14.343.67-2.013-2.067-6.42-1.279-8.39.863-2.158 5.17-4.878 7.348-5.685.774-.287 2.475-.086 3.297-.17 1.663-.169 5.07-.36 6.612-1.007 1.368-.575 3.4-2.936 4.744-3.564 3.83-1.787 12.962-6.207 16.46-3.837 1.783 1.208-.265 7.035 1.298 8.516 2.489 2.359 10.357.372 13.65 1.33.772.225 2.077 1.328 2.871 1.456.601.096 2.046.123 2.406-.367.695-.944-1.353-3.657-.705-4.633 1.065-1.606 5.557-2.124 7.47-1.894 2.26.273 5.798 3.89 8.043 4.27 2.95.503 9.241-.31 11.836-1.803.247-.142.714-.886.714-.886a148.858 148.858 0 0 0-5.8-11.16s-5.825 1.806-7.719 1.31z" fill="#2491BB"/><path d="M106.099 250.5A152.69 152.69 0 0 0 106 256c0 82.843 67.157 150 150 150s150-67.157 150-150c0-1.841-.033-3.675-.099-5.5C403.007 330.795 337.001 395 256 395s-147.007-64.205-149.901-144.5z" fill="#000" opacity=".1"/><path d="M381.671 193.468c-.707 0-1.324-.042-1.787-.12-.664-.113-2.082-1.079-3.117-1.784-1.738-1.184-3.379-2.303-5.02-2.501a10.563 10.563 0 0 0-1.247-.066c-.64 0-6.3.08-8.13 2.84-.868 1.307-.332 2.812.127 4.037a15.013 15.013 0 0 1-.699-.414c-.573-.352-1.165-.716-1.775-.893-.86-.251-1.902-.363-3.374-.363-.89 0-1.855.042-2.789.082-.945.041-1.922.083-2.833.083-2.484 0-3.409-.345-3.752-.594-.156-.489-.083-1.871-.038-2.715.12-2.259.254-4.82-1.598-6.075-1.006-.682-2.304-1.027-3.86-1.027-4.509 0-10.779 2.934-14.147 4.511l-.42.197a4.816 4.816 0 0 0-.357.184c.11-.61.19-1.3.237-2.069 1.497-4.178 3.597-8.258 4.676-9.109.317.014.83.123 1.287.218.708.15 1.44.304 2.154.304.556 0 1.037-.094 1.47-.286 1.216-.539 1.941-1.814 2.617-3.093.143.316.328.613.584.877 1.458 1.506 4.045 2.22 6.783 2.976 1.496.413 4.41 1.217 5.295 1.998l-.02.028h-.02c-.337 0-.802-.052-1.252-.101-.554-.062-1.127-.125-1.678-.125-2.157 0-2.903 1.145-3.156 1.827-1.074 2.9 3.425 5.031 3.471 5.053.961.447 2.273.514 2.97.514.451 0 1.11-.03 1.681-.17.038-.01 3.846-1.037 4.862-3.256.576-1.259.11-2.594-.303-3.773-.052-.151-.115-.332-.173-.509.306-.166.646-.397.921-.722.04.078.082.153.128.227 1.257 2.057 5.922 5.031 7.322 5.893a1.997 1.997 0 0 0 2.05.029 2 2 0 0 0 .998-1.792c-.088-2.95.14-6.822.608-7.662.19-.337.594-.807.993-1.187.053.446.09.943.12 1.315.11 1.493.215 2.903.89 3.945.961 1.483 3.66 3.978 5.703 4.515.39.101.83.151 1.348.151 1.743 0 4.282-.598 5.917-1.039a147.815 147.815 0 0 1 4.313 8.304c-1.878.753-5.252 1.337-7.98 1.337m-24.263-18.342c-.079-.04-.149-.075-.204-.107-1.043-.584-2.484-.983-4.01-1.405-1.442-.398-3.417-.945-4.042-1.491-.828-.723-1.852-2.11-2.212-2.927.376-.102 1.008-.206 1.944-.206.84 0 1.53.085 1.907.165.21.126.637.498.873.704.321.279.624.544.931.751.621.421 1.447.84 2.322 1.284 1.127.572 3.013 1.529 3.392 2.077.135.277.21 1.205.255 1.841-.405-.301-.833-.52-1.156-.686M225.29 190.923c-.36.46-1.528.897-2.36.897-.283 0-.528-.051-.688-.168-.44-.321-.285-1.642-.163-2.172.125-.546.584-1.789 1.124-1.935a.577.577 0 0 1 .16-.02c.612 0 1.638.724 1.913 1.194.28.475.354 1.77.014 2.204m78.91 9.237c-.667 1.666-.037 3.673.573 5.613.286.912.764 2.438.665 2.888-.57 1.71-3.674 3.899-6.413 5.83-3.913 2.759-7.608 5.364-8.263 8.768-.392 2.032 1.085 5.854 3.131 6.979.385.212.82.32 1.291.32.535 0 1.05-.142 1.525-.307a6.403 6.403 0 0 1-.238 1.315l-.173.061c-.737.257-1.746.61-2.253 1.626-1.66 3.327.878 11.653 1.695 14.126.116.352.328.665.612.903l16.642 13.997c.347.291.783.457 1.236.469 0 0 .213.006.565.006 5.447 0 6.595-1.082 7.028-1.492.421-.397.597-.863.674-1.259.956-.279 2.945-.28 4.108-.28 2.361-.002 4.59-.003 6.174-.919.912-.527 1.502-1.48 2.074-2.401.21-.339.554-.894.734-1.078.7-.369 2.534-.783 3.963-.783.403 0 .637.033.748.055.262.137.851.688 1.207 1.021.832.777 1.693 1.582 2.715 1.892a5.1 5.1 0 0 0 1.49.2c1.156 0 2.48-.291 3.758-.573 1.127-.247 2.293-.503 3.108-.503.235 0 .372.022.441.038.741 1.051.747 6.123 0 10.814a2 2 0 0 0 .401 1.552l12.48 15.857c-1.076 2.496-3.439 8.254-3.58 10.928-.078 1.503.437 4.546 1.453 6.087.683 1.038 1.935 1.743 3.145 2.425.598.337 1.598.9 1.801 1.162.79 1.303 1.403 6.666 1.518 10.888.016.584.288 1.133.744 1.5 2.597 2.099 5.743 5.035 6.294 6.121.645 1.269 1.142 6.064 1.29 9.062a2.001 2.001 0 0 0 2.298 1.88l.662-.101c-22.972 36.621-60.332 61.253-103.138 67.829a149.263 149.263 0 0 1-22.405 1.703c-35.019 0-69.104-12.6-95.975-35.479-27.144-23.111-45.045-55.22-50.404-90.412-2.542-16.688-2.245-33.391.872-49.778.307.32.72.537 1.182.597 2.272.297 4.812.952 5.392 1.386.592.768.642 3.463.675 5.257.041 2.261.081 4.396.77 5.954 1.166 2.64 4.953 8.531 8.421 10.188.927.442 2.402.728 3.758.728 1.526 0 2.677-.367 3.421-1.092 1.513-1.472.955-4.444.637-5.482 1.273 1.136 2.421 2.312 2.731 3.204-.1.244-.329.645-.489.929-.578 1.022-1.235 2.181-.99 3.449.634 3.312 5.211 7.447 7.492 8.596 2.11 1.06 6.793 2.554 10.604 2.554 2.358 0 4.104-.585 5.191-1.739.674-.716.694-1.536.552-2.208a5.09 5.09 0 0 1 1.073.049l-.03.157c-.208 1.091-.492 2.584.58 3.666.93.94 2.265.94 2.704.94.602 0 1.222-.074 1.77-.138.361-.043.735-.088.975-.088h.004c1.205.088 4.325.479 5.733.66 1.972 2.078 7.56 7.747 10.775 8.784.512.165 1.075.245 1.722.245 1.416 0 3.056-.399 4.641-.785 1.408-.344 2.865-.698 3.887-.698.528 0 .69.097.69.097 1.057.742 2.195 5.268 1.741 6.912-.189.533-1.85 1.691-2.74 2.313-1.817 1.267-3.53 2.462-4.15 4.149-.649 1.773-.152 4.136.33 6.421.211 1.004.43 2.043.443 2.633.02.98-.232 3.941-.33 4.999-.065.677.221 1.34.755 1.76 2.953 2.319 11.032 8.976 12.906 11.851.108.21.251.914.345 1.38.273 1.357.584 2.896 1.695 3.791.822.661 2.081.957 4.081.957.651 0 1.256-.035 1.688-.072 1.143.498 4.798 2.407 8.304 4.297-.12 5.457-.052 21.24 4.511 25.677.807.784 1.898.784 2.257.784a12.264 12.264 0 0 0 .97-.048c.103 1.029-.325 3.175-.55 4.306-.5 2.511-.974 4.882-.237 6.706.808 2 4.217 4.881 6.068 6.34-.042 2.714-.02 8.969.967 11.522 1.528 3.956 6.964 9.731 9.21 11.758 1.796 1.622 7.252 6.006 10.871 6.804.89.196 2.076.305 3.34.305 1.985 0 5.58-.262 7.35-2.013 1.213-1.197 1.475-3.884.837-5.244-.8-1.702-2.819-2.524-4.773-3.317-.81-.33-2.126-.864-2.54-1.218-.01-.34.056-.952.087-1.237.02-.171.037-.325.047-.455.025-.283.157-.864.275-1.378.183-.801.356-1.556.39-2.197.007-.133.024-.299.041-.484.14-1.469.328-3.481-1.045-4.601-.352-.288-.966-.632-1.887-.632-.797 0-1.582.246-2.34.485-.302.093-.73.228-.972.274a4.832 4.832 0 0 1-.863-.609c.24-.255.556-.554.78-.766.796-.752 1.62-1.53 1.966-2.503.113-.315 1.063-3.127-.27-4.694-.88-1.035-2.255-1.035-2.707-1.035h-.062c.82-.203 1.82-.388 2.755-.495.256-.029.505-.107.731-.231 1.174-.64 7.115-3.94 8.802-6.117.822-1.061 1.287-2.707 1.736-4.299.217-.768.441-1.561.631-1.975.814-1.775 2.586-4.791 4.011-7.214.646-1.101 1.238-2.108 1.68-2.89.08-.143.263-.406.441-.661.666-.954 1.422-2.034 1.5-3.187.14-2.007-1.056-4.343-2.21-6.6-.493-.962-.999-1.953-1.256-2.668.238-1.486.888-3.241 1.255-3.586.117-.075.568-.245 2.217-.245.36 0 .727.006 1.093.012.386.007.772.014 1.147.014 1.326 0 2.703-.076 3.79-.63 2.006-1.021 5.173-4.224 6.008-6.503 1.007-2.751.398-6.588-.245-10.649-.47-2.967-.957-6.034-.555-7.724.227-.954 1.353-2.604 2.346-4.061 1.185-1.739 2.305-3.38 2.748-4.878 1.384-4.671.645-6.333-.029-7.177-1.124-1.402-3.1-1.402-4.41-1.402l-.479.001-.45.002c-.845 0-1.197-.043-1.34-.084-.36-.264-1.058-1.367-1.48-2.034-.989-1.565-2.01-3.183-3.553-3.773-.698-.267-1.489-.397-2.417-.397-1.999 0-4.319.611-6.56 1.201-1.746.459-3.55.933-4.644.933l-.113-.002c-.48-.017-1.628-.314-2.387-.512a34.59 34.59 0 0 0-1.177-.29c-.65-.14-1.462-.215-2.319-.294-1.04-.097-3.19-.296-3.735-.685-.275-.443-.418-2.068-.495-2.95-.125-1.429-.243-2.779-.74-3.822-.104-.218-2.583-5.372-5.443-6.519-.515-.206-1.082-.307-1.73-.307-1.352 0-2.858.452-4.316.89-1.177.352-2.394.718-3.15.718-.166 0-.236-.021-.236-.021-.717-.267-1.992-2.147-2.836-3.391-1.13-1.668-2.199-3.245-3.5-4.09-1.238-.807-3.598-2.16-5.477-2.16-.977 0-1.632.351-2.01.646-1.264.985-.91 2.509-.683 3.328-.848.443-2.636.957-4.639.957-.706 0-1.118-.072-1.313-.121-.273-.209-.8-.92-1.12-1.354-.754-1.016-1.532-2.066-2.61-2.552-1.632-.733-4.382-1.228-6.84-1.228-1.832 0-3.284.274-4.319.813-1.93 1.005-2.952 3.395-4.034 5.927-.609 1.424-1.529 3.577-2.189 3.933-.108.06-.76.353-2.923.353-2.18 0-4.738-.301-6.347-.527-.204-3.81-.937-10.89-3.556-13.038-.685-.561-1.572-.835-2.712-.835-1.045 0-2.197.229-3.312.45-.717.142-1.452.288-2.044.344.238-.495.583-1.094.827-1.518.834-1.448 1.621-2.814 1.57-4.2-.002-.049-.262-4.877-3.15-5.494a3.939 3.939 0 0 0-.818-.087c-2.8 0-4.98 2.902-7.088 5.707-1.096 1.459-2.597 3.457-3.457 3.805-.663.27-2.18.555-3.686.555-1.12 0-1.729-.161-1.913-.257-.619-.331-2.074-2.593-2.382-3.884-.076-.321-.163-1.461.682-5.076.33-1.411 1.817-5.247 2.56-7.101 2.28-1.881 6.012-4.751 7.45-5.335 5.49-2.231 10.131-3.459 13.07-3.459.986.001 1.781.142 2.28.404.19.641.272 2.306.173 3.733-.054.762.33 1.488.991 1.871.723.419 4.45 2.51 6.858 2.51 1.141 0 1.851-.434 2.247-.8 1.985-1.836.726-4.796-.285-7.173-.392-.92-1.047-2.46-1.007-2.926.188-.877 2.182-3.046 2.933-3.863.16-.172.304-.331.433-.474 1.446-1.601 6.296-5.752 8.043-7.217.51-.427.773-1.081.703-1.743-.154-1.458-.2-3.112-.106-3.514.82-2.611 4.793-7.575 7.22-10.108.495-.516 1.905-1.256 3.15-1.908 3.033-1.592 6.472-3.396 6.292-6.447a2.064 2.064 0 0 0-.79-1.527c.668-1.385 2.835-3.595 4.11-4.218.243 0 .556.056.78.113a.717.717 0 0 0 .025.033c.35.462.976 1.288 2.034 1.422a2.626 2.626 0 0 0-.152.36c-.707-.491-1.555-.844-2.326-.844-.234 0-.463.03-.682.089-1.748.474-2.394 2.736-2.55 3.418-.21.915-.54 3.16.933 4.236.502.366 1.13.552 1.867.552 1.274 0 3.087-.583 3.933-1.664.262-.332.434-.739.535-1.175.046.015.092.029.14.041.247.325.543.54.777.674.412.236.887.356 1.413.356.828 0 1.858-.31 3.058-.922.017-.008 1.733-.892 2.36-2.156.225-.458.282-.92.276-1.347.501-.082 1.041-.26 1.504-.696.616-.581 1.647-2.371 1.128-3.864 1.388.855 3.396.909 5.192.959.64.017 1.242.034 1.597.087.267.04.54.051.827.063.201.008.547.022.74.053.031.022.062.042.094.062.417.255.913.384 1.474.384.728 0 2.31-.291 3.082-1.395 1.144-1.64.495-4.825-.535-6.036-.91-1.067-2.353-1.219-3.627-1.353-.303-.032-.757-.08-1.05-.138a4.209 4.209 0 0 1-.177-.892l.108-.035c.82-.254 1.941-.603 2.506-1.654 1.032-1.919.475-5.778-.709-7.37-.78-1.047-2.172-1.45-3.399-1.806-.3-.087-.639-.185-.787-.247a10.347 10.347 0 0 0-1.039-.348c-.3-.09-.825-.246-1.083-.367-.506-.91-1.049-4.256-1.19-7.413a1.999 1.999 0 0 0-3.26-1.464c-2.042 1.663-5.46 4.22-6.667 4.701-.169.068-.322.126-.458.175.047-.336.108-.688.155-.96.166-.961.345-1.992.264-2.947 2.796-.015 6.431-.543 8.386-1.988 1.32-.975 1.37-2.654 1.412-4.135.007-.218.016-.508.032-.773l.031-.005c.27-.041.768-.058 1.251-.076 1.674-.06 3.57-.128 4.78-1.132 1.313-1.089 3.425-4.921 1.992-7.153-.55-.859-1.48-1.294-2.763-1.294-.5 0-1.009.06-1.499.118-.165.019-.33.039-.489.055-.003-.294.007-.62.014-.863.04-1.368.086-2.919-.88-4.004-.849-.951-2.226-1.151-3.33-1.312a8.662 8.662 0 0 1-.659-.109c-.838-.229-1.988-.617-3.203-1.029-3.14-1.063-6.7-2.269-9.17-2.269-2.837 0-7.929 1.617-10.33 2.776-1.428.689-2.58 1.339-3.487 1.972-.009-.02-.02-.039-.03-.058-.475-.88-1.534-1.929-3.885-1.929-2.18 0-4.956.891-6.982 1.541-.533.172-1.006.323-1.378.428-2.725.765-3.468 1.638-3.72 1.958-1.12-1.039-2.982-1.301-3.783-1.301a3.84 3.84 0 0 0-1.149.16c-1.483.468-2.28 1.956-2.983 3.269-.229.429-.604 1.131-.813 1.357-.609.3-2.122.609-3.528.609-.9 0-1.285-.124-1.309-.13-.327-.18-1.046-1.15-1.475-1.729-.973-1.314-1.979-2.671-3.393-3.14-.652-.216-1.418-.321-2.34-.321-1.674 0-3.606.349-5.217.819 18.818-13.448 40.534-22.268 63.87-25.821a150.605 150.605 0 0 1 21.93-1.617c27.894 0 55.094 7.855 78.76 22.732-.192.583-.38 1.075-.499 1.274-.4.424-1.797 1.067-2.729 1.496-1.365.63-2.655 1.224-3.52 2.032-.027.026-2.735 2.578-3.025 4.776-.136 1.027.342 2.615 1.42 4.721a2.002 2.002 0 0 0 2.12 1.061c.326-.056 1.338-.202 2.083-.202.051 0 .097 0 .138.002.168.339.376.916.512 1.295.568 1.579 1.211 3.369 2.98 3.824.145.038.293.063.442.078-1.798.328-4.47.984-5.805 2.135-.769.662-1.319 1.607-1.788 2.69-.827-.515-1.89-.562-2.684-.596-.213-.01-.517-.023-.686-.044-.177-.122-.576-.444-1.424-1.292-1.09-1.087-2.485-2.647-2.922-3.392-.138-.249-.316-1.127-.434-1.708-.382-1.885-.815-4.02-2.587-4.837a3.434 3.434 0 0 0-1.448-.299c-1.897 0-4.397 1.382-5.472 2.379-.922.858-1.538 2.59-1.663 3.492a7.597 7.597 0 0 0 .093 2.235c-1.332.332-2.974 1.015-3.867 1.885-1.532 1.488-2.643 4.893-2.834 6.381-.177 1.371-.247 3.836 1.267 4.949.523.385 1.182.581 1.958.581 1.34 0 2.874-.581 3.57-.925.888-.44 2.068-1.263 3.187-2.25.184 1.225.644 2.349 1.444 2.999.545.442 1.234.667 2.05.667.474 0 .971-.079 1.457-.192-.757 2.384-.748 5.958.793 7.655.526.579 1.27.872 2.212.872.368 0 .737-.042 1.073-.084a4.176 4.176 0 0 1-.119.95 2.908 2.908 0 0 1-.207.007c-.71 0-1.714-.208-2.685-.408-1.113-.23-2.163-.447-3.11-.447a4.96 4.96 0 0 0-.795.059c-1.96.317-6.413 2.354-7.286 2.759-.517.24-.907.689-1.072 1.235-.308 1.02-1.02 3.527-.966 4.785.061 1.393.757 7.055 3.046 9.317.9.889 2.478 1.363 3.75 1.611-2.46 1.321-5.623 3.601-6.543 5.902m-76.548-13.294c.236-.32.772-.392 1.393-.392.5 0 1.053.046 1.551.046.556 0 1.044-.057 1.305-.301.45-.419.091-1.976.537-2.401.31-.294 1.256-.266 1.683-.291.29-.017.822-.118 1.273-.118.323 0 .604.052.723.223.277.395-.212 1.513-.563 1.843-.39.368-1.74.093-2.085.505-.337.406.117 1.635-.117 2.109-.215.434-1.04 1.039-1.473 1.258-.474.242-1.478.705-2.15.705a.842.842 0 0 1-.419-.091c-.54-.31-.083-.906-.316-1.054a.193.193 0 0 0-.107-.026c-.217 0-.569.212-.785.212a.19.19 0 0 1-.116-.032c-.447-.329-.663-1.747-.334-2.195m1.557-3.443c.267-.506.6-1.135.875-1.363a2 2 0 0 0 .717-1.764c.73-.016 1.596-.282 2.343-.708.706-.077 1.878-.252 2.991-.64.044.182.114.371.213.566.047.092.1.179.16.262.013.11.025.244.035.346.045.474.101 1.054.327 1.602-.372-.187-.854-.315-1.476-.315-.409 0-.803.05-1.118.089-.106.013-.2.027-.276.032l-.203.008c-.769.025-1.93.062-2.739.832-.664.634-.812 1.451-.863 2.141l-.287-.012c-.292-.012-.585-.025-.863-.025-.114 0-.266 0-.442.01.231-.35.425-.719.606-1.061m-18.737-40.437c-1.01 0-1.849-.228-2.122-.363-.26-.317-.609-1.228-.654-1.656.28-.378 1.16-1.083 1.702-1.518l.271-.217c.198.748.523 1.504.843 2.248.177.413.434 1.013.586 1.47a5.037 5.037 0 0 1-.626.036m-12.785-.138c.514 0 1.02-.095 1.511-.196-.017.152-.042.3-.073.424-.424.082-1.203.107-1.705.123-1.615.052-3.286.105-4.398 1.192-.788.771-.857 1.831-.907 2.606l-.015.231c-.97.621-3.194 1.367-5.088 1.367-.47 0-.787-.052-.974-.102-.132-.388-.247-1.088-.329-1.666 1.924-.192 4.528-.584 5.776-1.341.734-.448 2.605-1.852 3.993-3.604.36.443 1.032.966 2.21.966m114.838 14.834c-.677 1.765-3.749 4.41-5.443 5.248-.577.286-1.798.718-2.682.718-.315 0-.587-.055-.772-.192-.629-.462-.569-2.309-.47-3.083.181-1.405 1.23-4.215 2.245-5.202.744-.724 2.82-1.473 3.855-1.536.063-.003.133-.005.207-.005.851 0 2.37.251 2.831.807.52.627.521 2.486.23 3.245m11.305 4.153c-1.173.866-4.223 1.138-5.652 1.426-.826.167-2.444.878-3.529.878-.32 0-.595-.063-.789-.22-1.009-.819-1.004-4.105-.293-5.193.507-.775 3.054-.464 3.473-1.29.276-.547-.266-1.898-.669-2.359-.657-.751-2.753-1.176-3.66-1.591-.653-.299-2.162-.665-2.59-1.243-.353-.478-.439-1.763-.357-2.352.086-.626.58-1.87 1.043-2.3.781-.726 2.815-1.845 4.11-1.845.232 0 .44.036.611.115 1.39.641 1.357 4.419 2.132 5.739.631 1.076 2.352 2.917 3.235 3.798.47.468 1.43 1.421 2.023 1.716.764.381 2.997-.038 3.331.747.454 1.071-1.483 3.284-2.419 3.974M125.06 231.824a2.796 2.796 0 0 1 .634-.049c.384.593.69 2.456.857 3.49.062.381.124.756.19 1.123-1.41-2.77-1.673-4.024-1.68-4.564m101.591-53.376c-.18.037-.452.092-.54.103a16.036 16.036 0 0 0-.597-.026c-.218-.007-.584-.018-.886-.045a3.22 3.22 0 0 1-.024-.446c.094-.115.246-.267.344-.34.274-.108 1.156-.259 1.97-.259.072 0 .14.002.201.005.108.006.296.039.454.077.061.115.127.249.18.355.06.119.122.246.19.376-.446.029-.89.119-1.292.2m-6.177-27.612c-1.695.09-3.267.367-4.36.777-1.912.716-4.472 3.356-5.074 5.23-.569 1.771.11 3.851.826 6.052.356 1.089 1.011 3.098.851 3.692-.382.358-1.863.817-2.759 1.094-1.79.554-3.482 1.078-4.488 2.261-.943 1.11-1.198 2.718-1.47 4.422-.129.81-.344 2.158-.592 2.529-.134.113-.397.259-.666.378-.023-.61.03-1.449.064-2.027.135-2.213.274-4.503-1.282-5.822-.798-.676-1.977-.991-3.71-.991-1.79 0-3.859.341-4.898.536l-2.962-1.346c-.838-1.289-1.576-2.734-1.68-3.305.728-2.274 6.284-5.535 8.98-7.117a81.534 81.534 0 0 0 2.154-1.292c.345-.218.73-.492 1.173-.81.591-.423 1.765-1.262 2.615-1.688l.014.156c.11 1.277.247 2.865 1.603 3.667.517.306 1.162.461 1.917.461 1.01 0 3.196-.351 4.251-1.68.553-.698.575-1.49.487-2.134 1.122-.244 2.84-.755 3.431-2.624a2.003 2.003 0 0 0-.376-1.889 2.62 2.62 0 0 0-.19-.201c.688-.086 1.35-.252 1.914-.634.945-.64 1.667-1.782 2.586-3.326.11-.183.215-.361.316-.526.323-.313.52-.673.653-.937 1.66-1.021 5.252-2.21 7.385-2.21.176 0 .332.009.462.027.788.11 2.155.691 2.86 1.169-.819.612-2.734 1.414-3.848 1.881-3.158 1.323-7.086 2.968-6.187 6.227m-62.232-4.617a6.19 6.19 0 0 0-.59-.026c-.249 0-.526.013-.82.036.707-.641 1.42-1.275 2.138-1.902-.188.675-.203 1.358.012 2.035a4.406 4.406 0 0 0-.74-.143m7.506 1.211c.59-.231 1.325-.521 1.901-.683a5.68 5.68 0 0 0-.753.772c-.332-.03-.654-.037-.953-.037-.112 0-.223.001-.335.003l.14-.055m7.8 3.407c.994-.352 2.23-.788 2.855-.801.141.12.313.317.458.514-.642.292-1.91.617-3.638.617-.204 0-.4-.005-.586-.013.3-.102.602-.209.91-.317m165.405-2.022c.281-.265.687-.646 1.016-.915.45.725.863 2.102.925 3.035-.122 0-.234.005-.327.012-.158.012-.34.016-.54.016-.424 0-.91-.018-1.409-.036a48.158 48.158 0 0 0-1.704-.042c-.312 0-.59.007-.842.021 1.061-.377 1.983-1.245 2.881-2.091M386.3 181.47s-4.504 1.396-6.879 1.396c-.326 0-.61-.026-.84-.086-1.41-.37-3.74-2.444-4.533-3.667-.946-1.462-.139-6.17-1.785-6.735a.83.83 0 0 0-.27-.043c-1.117 0-2.857 1.896-3.372 2.817-1.065 1.908-.86 8.697-.86 8.697s-5.56-3.425-6.666-5.233c-.76-1.247-.286-4.532-1.112-5.736-1.046-1.525-4.737-2.89-6.267-3.926-.605-.409-1.649-1.548-2.357-1.721-.58-.141-1.503-.243-2.475-.243-1.675 0-3.495.302-3.956 1.223-.687 1.375 1.751 4.406 2.91 5.417 1.685 1.473 6.435 2.04 8.39 3.134.43.243 1.571.725 1.56 1.221-.013.473-1.363.655-1.545 1.092-.44 1.059 1.232 3.484.754 4.527-.429.937-2.52 1.899-3.52 2.146-.303.074-.739.112-1.204.112-.783 0-1.653-.107-2.127-.328-.799-.371-2.745-1.718-2.438-2.544.15-.404.644-.522 1.28-.522.883 0 2.04.226 2.93.226.44 0 .814-.056 1.06-.22.497-.333 1.308-1.549 1.12-2.118-1.116-3.356-10.322-3.514-12.78-6.055-.608-.626-.529-3.078-1.39-3.197a.848.848 0 0 0-.112-.007c-1.527-.001-2.516 4.348-3.949 4.983a1.628 1.628 0 0 1-.658.114c-1.015 0-2.48-.524-3.51-.524-.297 0-.557.044-.759.156-2.634 1.465-5.83 10.556-5.83 10.556s-.16 3.199-.86 3.917c-.823.845-3.425.897-4.58 1.131-1.602.324-4.726 1.101-6.536 1.101-.116 0-.228-.004-.333-.011-1.145-.073-3.587-.489-4.402-1.295-1.486-1.467-2.364-5.896-2.455-7.982-.045-1.052.882-4.119.882-4.119s4.975-2.309 6.763-2.598c.144-.024.305-.034.475-.034 1.54 0 4.03.855 5.796.855.664 0 1.224-.121 1.595-.452.816-.729 1-3.537.284-4.365-.146-.17-.414-.225-.737-.225-.57 0-1.317.169-1.889.169-.318 0-.583-.052-.73-.216-1.134-1.248-.9-5.392.107-6.745 1.174-1.576 5.998-1.095 7.493-2.371 1.788-1.525 2.435-6.869 4.213-8.404 1.08-.929 4.002-1.548 5.407-1.776.353-.057.81-.077 1.31-.077 1.008 0 2.2.078 3.112.078.258 0 .494-.006.696-.022a2.71 2.71 0 0 1 .214-.007c.15 0 .33.006.513.006.463 0 .957-.035 1.112-.279.972-1.538-.399-6.31-2.094-6.971a.84.84 0 0 0-.31-.057c-1.486 0-3.676 3.469-5.18 3.469a.874.874 0 0 1-.223-.028c-1.405-.361-1.684-4.287-2.947-4.999-.245-.138-.689-.185-1.182-.185-1.089 0-2.424.231-2.424.231s-1.339-2.62-1.217-3.549c.142-1.069 1.621-2.841 2.41-3.577 1.357-1.27 5.233-2.309 6.435-3.728.59-.696 1.286-3.418 1.286-3.418-23.689-15.222-51.679-23.849-81.1-23.849-7.335 0-14.756.535-22.224 1.639-32.906 5.01-61.43 20.177-83.22 41.771 0 0 4.915-1.217 7.082-1.217.145 0 .277.005.395.017.96.094 2.673 1.139 3.616 1.339.273.057.606.078.975.078.974 0 2.21-.145 3.305-.145.91 0 1.722.1 2.21.465.51.382.327 2.06.87 2.396.868.538 2.496.824 4.2.824 2.512 0 5.191-.623 5.85-1.979.385-.791-1.049-2.616-1.843-2.998-.224-.108-.495-.154-.799-.154-1.898-.001-5.14 1.801-6.96 1.801-.529 0-.938-.151-1.159-.542-.358-.633 1.716-1.567 1.793-2.29.066-.619-.538-1.949-1.089-2.238-.196-.103-.433-.147-.7-.147-1.733 0-4.77 1.848-6.386 1.848-.437 0-.77-.134-.945-.478-1.255-2.462 5.303-6.617 7.766-7.874 1.457-.743 4.458-1.497 6.68-1.497.658 0 1.248.066 1.71.219 1.61.534 3.176 4.253 4.771 4.832.51.185 1.238.269 2.036.269 1.646 0 3.594-.353 4.57-.897 1.213-.677 2.03-4.012 3.355-4.43.145-.046.334-.068.548-.068.966 0 2.44.442 2.646 1.097.581 1.831-2.983 5.138-4.624 6.136-1.418.863-6.553 1.214-7.104 1.222.34.188.322 4.359 1.383 5.078.535.364 1.353.518 2.29.518 2.4 0 5.58-1.018 6.784-2.159.488-.462.142-2.145.622-2.614 1.14-1.113 5.197-.115 6.228-1.329.617-.727.834-3.116.18-3.812-.138-.148-.364-.201-.639-.201-.722 0-1.783.368-2.5.368-.289 0-.523-.059-.657-.226-.56-.701.174-2.811.73-3.518.461-.59 1.982-1.089 2.704-1.291 1.706-.479 5.395-1.895 7.82-1.895.996 0 1.78.239 2.124.879.883 1.637-4.412 3.931-4.694 5.769-.15.98.645 3.129 1.465 3.685.648.441 2.021.735 3.292.735 1.083 0 2.092-.214 2.513-.732 1.104-1.358-2.05-5.219-1.424-6.853.554-1.446 3.6-2.993 4.994-3.666 2.208-1.066 7.01-2.578 9.461-2.578 3.07 0 8.886 2.421 11.848 3.228.755.205 2.5.238 3.021.822.892 1.002-.167 4.385.808 5.305.213.202.574.267 1.004.267.772 0 1.768-.209 2.536-.209.495 0 .896.087 1.08.373.648 1.011-.662 3.768-1.586 4.535-.984.816-3.79.577-5.056.77-.309.047-1.007-.025-1.235.188-.952.891-.077 4.319-1.126 5.094-1.367 1.01-4.362 1.596-7.316 1.596-3.539 0-7.02-.841-7.585-2.799-.895-3.112 10.526-4.506 10.384-7.742-.062-1.43-3.452-2.81-4.868-3.007a5.456 5.456 0 0 0-.737-.046c-2.627 0-6.982 1.461-8.825 2.765-.253.179-.42.919-.717 1.012-.699 1.094-1.673 2.992-2.52 3.567-.974.659-3.997.071-4.574 1.096-.29.517.292 1.854.724 2.258.324.301 1.432.084 1.716.423-.494 1.565-3.069 1.105-3.633 1.885-.328.452.403 1.795.055 2.232-.413.522-1.707.923-2.683.923-.365 0-.685-.056-.899-.183-.957-.565-.293-3.804-1.31-4.25a1.405 1.405 0 0 0-.572-.11c-1.673 0-4.32 2.252-5.61 3.067-3.276 2.071-11.14 5.993-12.047 9.762-.335 1.39 2.317 5.228 2.317 5.228l4.066 1.847s2.868-.623 5.14-.623c1.044 0 1.961.132 2.416.517 1.623 1.375-.528 7.293 1.281 8.413.141.087.327.126.54.126.904 0 2.294-.693 2.792-1.198 1.293-1.314.958-5.647 2.15-7.052 1.352-1.59 6.522-1.842 7.487-3.692 1.178-2.263-2.318-7.661-1.537-10.09.424-1.32 2.574-3.483 3.872-3.969 1.12-.42 2.976-.683 4.875-.683 2.47 0 5.01.445 6.085 1.566 1.176 1.224-1.036 5.701.273 6.78.141.116.351.163.598.163.72 0 1.747-.398 2.245-.596 2.034-.812 7.187-5.007 7.187-5.007s.307 6.981 1.707 8.699c.485.595 2.123.89 2.83 1.185.84.352 2.812.675 3.355 1.404.784 1.054 1.174 4.071.552 5.228-.359.666-2.34.721-2.684 1.395-.414.815-.054 2.928.551 3.613.792.899 3.834.395 4.61 1.308.586.688.937 2.852.42 3.594-.208.294-.923.54-1.443.54-.175 0-.328-.028-.432-.091-.493-.477-1.813-.361-2.409-.449-1.565-.234-5.067.108-6.257-.933-.507-.444-.18-2.229-.748-2.592-.336-.663 1.901-1.324 2.143-2.023.2-.577.076-1.993-.368-2.412-.306-.29-1.075-.481-1.736-.481-.397 0-.756.068-.954.227-.458.365.073 1.875-.303 2.323-.747.891-3.277 1.317-4.436 1.395-.545.404-1.288.657-1.743.657a.73.73 0 0 1-.239-.033c-.693-.235-1.082-1.978-1.68-2.398-.338-.234-1.178-.4-1.588-.422a5.79 5.79 0 0 0-.309-.008c-.882 0-2.29.157-2.93.501-.424.228-1.153.968-1.292 1.429-.194.65-.066 2.198.41 2.683.517.527 2.176.442 2.913.501a.986.986 0 0 0 .08.003c.51 0 1.488-.314 2.126-.314.301 0 .526.07.588.278-1.244 1.023-1.709 3.396-2.645 3.51l-.032.002c-.435 0-.885-1.038-1.282-1.218-.41-.186-1.215-.369-1.854-.369-.256 0-.485.029-.65.099-2.104.888-6.05 4.944-5.632 7.189.052.276.948.295.965.575.166 2.802-6.948 4.828-8.89 6.853-2.306 2.406-6.685 7.713-7.684 10.893-.324 1.032.027 4.324.027 4.324s-6.385 5.353-8.242 7.409c-1.09 1.207-3.494 3.665-3.837 5.256-.488 2.26 3.586 7.482 1.89 9.052-.206.189-.514.268-.89.268-1.993 0-5.854-2.24-5.854-2.24s.321-4.542-.762-5.347c-.895-.664-2.188-.93-3.686-.931-4.462 0-10.753 2.358-13.824 3.606-2.38.967-8.364 5.973-8.364 5.973s-2.363 5.826-2.839 7.86c-.344 1.47-1.03 4.528-.68 5.996.36 1.511 2.026 4.477 3.403 5.193.658.343 1.71.484 2.837.484 1.638 0 3.44-.296 4.438-.701 3.073-1.247 6.531-9.366 9.793-9.366.134 0 .267.014.401.043.962.206 1.531 2.628 1.568 3.612.07 1.872-3.54 5.538-2.469 7.075.307.44.886.595 1.611.595 1.674 0 4.125-.82 5.816-.82.6 0 1.104.104 1.445.382 2.615 2.145 2.89 13.219 2.89 13.219s4.587.799 8.28.799c1.617 0 3.061-.153 3.876-.594 2.556-1.384 3.615-8.503 6.194-9.846.796-.414 2.04-.586 3.394-.586 2.2 0 4.69.453 6.021 1.052 1.267.571 2.557 3.572 3.888 3.974.511.154 1.202.229 1.975.229 2.433 0 5.68-.742 6.7-2.08.4-.523-.667-2.223-.149-2.628.201-.156.47-.223.781-.223 1.34 0 3.466 1.237 4.386 1.836 2.14 1.392 4.337 6.788 6.728 7.679.273.103.588.147.935.147 2.101 0 5.355-1.608 7.465-1.608.367 0 .701.049.987.163 1.636.657 3.624 3.932 4.381 5.523.806 1.692.29 6 1.62 7.322 1.278 1.274 5.29 1.144 7.053 1.525.98.21 2.914.809 3.914.844.061.003.122.004.185.004 2.822 0 7.864-2.134 11.204-2.134.638 0 1.216.078 1.703.265 1.738.665 3.17 4.781 4.788 5.699.51.288 1.373.324 2.3.324l.928-.003c1.214 0 2.374.06 2.848.653.84 1.047.055 4.071-.327 5.358-.737 2.491-4.52 6.516-5.122 9.044-1.052 4.419 2.431 13.883.868 18.149-.636 1.734-3.393 4.57-5.039 5.409-.677.345-1.729.411-2.88.411-.73 0-1.5-.026-2.24-.026-1.409 0-2.712.096-3.434.657-1.133.88-1.923 3.922-2.08 5.347.628 2.357 3.677 6.568 3.512 8.958-.059.859-1.269 2.253-1.69 3.004-1.443 2.563-4.54 7.579-5.765 10.251-.652 1.422-1.17 4.647-2.13 5.882-1.517 1.957-8.178 5.587-8.178 5.587s-4.822.545-5.67 1.765c-.356.513-.29 2.04.136 2.499.227.244.657.31 1.164.31.6 0 1.304-.092 1.903-.092.52 0 .96.069 1.182.331.442.518.142 2.083-.088 2.725-.43 1.206-3.222 2.793-3.113 4.07.076.898 1.785 2.172 2.642 2.449.106.033.225.049.354.049.938 0 2.456-.776 3.43-.776.25 0 .464.052.623.182.666.543.316 2.57.27 3.429-.048.891-.583 2.62-.66 3.509-.059.69-.306 2.166.036 2.768 1.063 1.866 6.412 2.537 7.324 4.48.32.68.103 2.445-.43 2.972-1.06 1.047-3.675 1.436-5.946 1.436-1.134 0-2.183-.098-2.91-.258-2.882-.636-7.77-4.358-9.962-6.336-2.599-2.347-7.42-7.726-8.684-10.993-1.063-2.75-.812-11.768-.812-11.768s-5.415-4.098-6.233-6.123c-1.128-2.791 2.278-9.756.314-12.037-.17-.197-.502-.25-.894-.25-.459 0-.999.072-1.458.072-.37 0-.687-.047-.862-.219-4.609-4.479-3.872-25.415-3.872-25.415s-9.495-5.158-10.11-5.158l-.013.001c-.22.033-1.013.105-1.903.105-1.087 0-2.318-.107-2.828-.516-.963-.775-.928-3.643-1.603-4.679-2.482-3.812-13.36-12.357-13.36-12.357s.366-3.918.34-5.228c-.046-2.092-1.615-6.359-.896-8.324.826-2.25 6.3-4.302 6.938-6.611.628-2.273-.589-7.734-2.518-9.088-.47-.332-1.105-.46-1.839-.46-2.495 0-6.148 1.483-8.528 1.483-.41 0-.785-.045-1.108-.148-3.242-1.045-10.422-8.773-10.422-8.773s-4.908-.642-6.554-.763a2.505 2.505 0 0 0-.179-.006c-.695 0-1.808.227-2.716.227-.548 0-1.022-.083-1.284-.347-.664-.67.6-3.117-.078-3.775-.472-.459-1.575-.698-2.668-.698-1.1 0-2.194.243-2.625.749-.343.404.682 1.711.32 2.097-.755.801-2.126 1.109-3.735 1.109-3.327 0-7.674-1.319-9.705-2.342-2.153-1.083-5.974-4.817-6.428-7.184-.209-1.096 1.757-3.097 1.535-4.19-.73-3.597-8.17-7.558-10.03-10.722-1.137-1.934-.838-7.363-2.745-8.544-.245-.152-.659-.223-1.116-.223-.878 0-1.914.264-2.213.73-1.17 1.828 1.36 6.44 2.406 8.341 1.273 2.312 6.1 5.416 7.005 7.895.306.836.548 2.937-.09 3.557-.387.378-1.172.524-2.025.524-1.083 0-2.274-.236-2.895-.533-2.67-1.276-6.259-6.486-7.456-9.192-1.2-2.716.153-9.498-1.789-11.745-1.13-1.309-6.616-2.026-6.616-2.026l-1.287-8.451c-4.906 19.018-6.143 39.304-3.005 59.916 11.307 74.238 75.468 127.59 148.357 127.59 7.497 0 15.072-.563 22.706-1.726 46.596-7.157 84.681-34.908 106.771-72.429l-4.897.746s-.373-7.645-1.504-9.871c-1.088-2.141-6.822-6.769-6.822-6.769s-.25-9.304-1.807-11.87c-.8-1.322-4.137-2.361-4.986-3.651-.69-1.046-1.19-3.632-1.125-4.882.157-2.991 3.893-11.327 3.893-11.327l-13.219-16.799s1.686-10.532-.664-12.658c-.41-.372-1.023-.509-1.75-.509-2.032 0-4.958 1.076-6.867 1.076-.339 0-.645-.034-.909-.115-1.182-.357-2.777-2.633-3.976-2.928-.347-.086-.786-.125-1.274-.125-1.686 0-3.953.466-5.023 1.084-.954.551-1.794 2.895-2.75 3.447-2.43 1.406-9.06-.235-11.104 1.692-.194.183-.028.861-.223 1.043-.913.861-4.344.946-5.655.946-.32 0-.514-.005-.514-.005l-16.642-13.997s-3.225-9.758-1.804-12.606c.281-.566 1.884-.679 2.212-1.219.644-1.056 1.064-4.128.137-4.948-.104-.091-.24-.127-.404-.127-.71-.001-1.883.706-2.596.706a.668.668 0 0 1-.326-.072c-1.162-.638-2.383-3.549-2.132-4.849.967-5.027 12.99-9.487 14.61-14.343.67-2.013-2.067-6.421-1.279-8.391.863-2.157 5.17-4.877 7.347-5.685.362-.133.923-.161 1.504-.161.412 0 .833.014 1.2.014.223 0 .426-.005.593-.022 1.663-.169 5.071-.36 6.613-1.007 1.367-.575 3.4-2.937 4.744-3.564 3.051-1.424 9.47-4.52 13.722-4.52 1.084 0 2.028.201 2.74.683 1.781 1.207-.268 7.035 1.296 8.515 1.04.986 3.02 1.213 5.212 1.213 1.87 0 3.894-.165 5.622-.165 1.095 0 2.072.067 2.815.283.773.225 2.077 1.328 2.872 1.455.2.032.496.057.814.057.631 0 1.352-.097 1.591-.423.696-.944-1.352-3.658-.705-4.634.906-1.367 4.295-1.945 6.464-1.945.38 0 .722.018 1.007.052 2.26.273 5.798 3.889 8.042 4.271.592.1 1.318.148 2.122.148 3.203 0 7.64-.759 9.715-1.953.246-.141.714-.886.714-.886a148.864 148.864 0 0 0-5.8-11.159" fill="#000" opacity=".4"/><g transform="translate(181 71)"><ellipse fill="#000" opacity=".05" transform="rotate(-14 37.821 63.394)" cx="37.821" cy="63.394" rx="13.95" ry="7.278"/><g transform="rotate(-11 55.486 5.343)"><use stroke-opacity=".4" stroke="#000" mask="url(#p)" stroke-width="4" fill="#EE638F" xlink:href="#b"/><path d="M12.856 23.902a.84.84 0 0 1-.264-.029c-.555-.143-.908-.78-.789-1.423.863-4.606 4.815-7.516 8.771-6.491.557.144.91.78.79 1.42-.119.645-.67 1.06-1.22.904-2.878-.744-5.706 1.364-6.327 4.688-.103.539-.505.912-.96.93" fill="#FFF" opacity=".3"/></g></g><g transform="rotate(-108 185.136 166.524)"><ellipse fill="#000" opacity=".05" transform="rotate(-14 45.914 81.684)" cx="45.914" cy="81.684" rx="13.95" ry="7.278"/><g transform="rotate(-11 55.486 5.343)"><use stroke-opacity=".4" stroke="#000" mask="url(#q)" stroke-width="4" fill="#EE638F" xlink:href="#c"/><path d="M12.856 23.902a.84.84 0 0 1-.264-.029c-.555-.143-.908-.78-.789-1.423.863-4.606 4.815-7.516 8.771-6.491.557.144.91.78.79 1.42-.119.645-.67 1.06-1.22.904-2.878-.744-5.706 1.364-6.327 4.688-.103.539-.505.912-.96.93" fill="#FFF" opacity=".3"/></g></g><g transform="rotate(81 88.29 316.882)"><ellipse fill="#000" opacity=".05" transform="rotate(-14 44.271 70.53)" cx="44.271" cy="70.529" rx="15.96" ry="8.327"/><g transform="rotate(-11 63.914 1.462)"><use stroke-opacity=".4" stroke="#000" mask="url(#r)" stroke-width="4" fill="#EE638F" xlink:href="#d"/><path d="M14.709 27.346a.962.962 0 0 1-.302-.033c-.636-.163-1.04-.892-.903-1.628.988-5.27 5.51-8.6 10.035-7.427.637.166 1.041.893.904 1.626-.136.738-.768 1.212-1.397 1.034-3.292-.851-6.528 1.56-7.238 5.364-.118.615-.577 1.042-1.099 1.064" fill="#FFF" opacity=".3"/></g></g><g transform="rotate(100 126.266 313.644)"><ellipse fill="#000" opacity=".05" transform="rotate(-14 32.156 60.193)" cx="32.156" cy="60.193" rx="10.385" ry="5.418"/><g transform="rotate(-11 43.738 -.27)"><use stroke-opacity=".4" stroke="#000" mask="url(#s)" stroke-width="4" fill="#EE638F" xlink:href="#e"/><path d="M9.57 17.793a.626.626 0 0 1-.196-.02c-.413-.107-.676-.581-.587-1.06.642-3.43 3.584-5.596 6.53-4.833.414.108.677.58.588 1.058-.09.48-.5.789-.91.673-2.141-.554-4.247 1.015-4.709 3.49-.077.4-.376.678-.715.692" fill="#FFF" opacity=".3"/></g></g><g transform="rotate(136 126.635 262.394)"><ellipse fill="#000" opacity=".05" transform="rotate(-14 25.695 48.099)" cx="25.695" cy="48.099" rx="8.298" ry="4.329"/><g transform="rotate(-11 34.95 -.215)"><use stroke-opacity=".4" stroke="#000" mask="url(#t)" stroke-width="4" fill="#EE638F" xlink:href="#f"/><path d="M7.648 14.218a.5.5 0 0 1-.157-.017c-.33-.085-.54-.464-.47-.846.514-2.74 2.865-4.472 5.218-3.862.331.086.541.464.47.845-.071.384-.4.63-.727.538-1.711-.443-3.393.811-3.763 2.789-.061.32-.3.542-.571.553" fill="#FFF" opacity=".3"/></g></g><g transform="rotate(-166 156.639 198.705)"><ellipse fill="#000" opacity=".05" transform="rotate(-14 22.702 42.497)" cx="22.702" cy="42.497" rx="7.332" ry="3.825"/><g transform="rotate(-11 30.88 -.19)"><use stroke-opacity=".4" stroke="#000" mask="url(#u)" stroke-width="4" fill="#EE638F" xlink:href="#g"/><path d="M6.757 12.562a.442.442 0 0 1-.139-.015c-.292-.075-.477-.41-.414-.747.453-2.422 2.53-3.951 4.61-3.412.292.076.478.41.415.746-.063.34-.353.557-.642.475-1.512-.39-2.999.717-3.325 2.464-.054.283-.265.48-.505.49" fill="#FFF" opacity=".3"/></g></g><g transform="rotate(-46 260.521 5.737)"><ellipse fill="#000" opacity=".05" transform="rotate(-14 26.721 49.964)" cx="26.721" cy="49.964" rx="5.464" ry="2.851"/><g transform="rotate(-11 36.245 .542)"><use stroke-opacity=".4" stroke="#000" mask="url(#v)" stroke-width="4" fill="#EE638F" xlink:href="#h"/><path d="M7.478 13.902a.489.489 0 0 1-.154-.017c-.323-.083-.528-.453-.459-.827.502-2.68 2.8-4.372 5.101-3.776.325.084.53.454.46.826-.07.375-.39.617-.71.526-1.674-.433-3.319.793-3.68 2.727-.06.313-.293.53-.558.54" fill="#FFF" opacity=".3"/></g></g><g transform="rotate(25 2.448 786.983)"><ellipse fill="#000" opacity=".05" transform="rotate(-5 30.924 63.74)" cx="30.924" cy="63.741" rx="10.41" ry="5.409"/><g transform="rotate(-11 46.854 2.11)"><use stroke-opacity=".4" stroke="#000" mask="url(#w)" stroke-width="4" fill="#EE638F" xlink:href="#i"/><path d="M9.594 17.765a.63.63 0 0 1-.197-.022c-.414-.106-.678-.58-.589-1.057.645-3.424 3.594-5.587 6.546-4.825.416.108.679.58.59 1.056-.09.48-.501.788-.912.672-2.147-.553-4.257 1.013-4.72 3.484-.078.4-.377.678-.718.692" fill="#FFF" opacity=".3"/></g></g><g transform="rotate(-23 210.629 -296.008)"><use stroke-opacity=".4" stroke="#000" mask="url(#x)" stroke-width="4" fill="#EE638F" xlink:href="#j"/><path d="M9.674 17.985a.633.633 0 0 1-.199-.022c-.418-.107-.684-.587-.594-1.07.65-3.467 3.623-5.656 6.6-4.885.42.109.685.587.595 1.07-.09.484-.505.796-.92.679-2.164-.56-4.292 1.026-4.76 3.528-.077.405-.38.685-.722.7" fill="#FFF" opacity=".3"/></g><g transform="rotate(-12 877.233 -600.4)"><ellipse fill="#000" opacity=".05" transform="rotate(-25 37.798 46.594)" cx="37.798" cy="46.594" rx="10.491" ry="5.474"/><g transform="rotate(-29 40.272 9.802)"><use stroke-opacity=".4" stroke="#000" mask="url(#y)" stroke-width="4" fill="#EE638F" xlink:href="#k"/><path d="M9.674 17.985a.633.633 0 0 1-.199-.022c-.418-.107-.684-.587-.594-1.07.65-3.467 3.623-5.656 6.6-4.885.42.109.685.587.595 1.07-.09.484-.505.796-.92.679-2.164-.56-4.292 1.026-4.76 3.528-.077.405-.38.685-.722.7" fill="#FFF" opacity=".3"/></g></g><g transform="rotate(77 111.191 317.84)"><ellipse fill="#000" opacity=".05" transform="rotate(-25 27.174 34.497)" cx="27.174" cy="34.497" rx="7.542" ry="3.935"/><g transform="rotate(-29 30.885 7.547)"><use stroke-opacity=".4" stroke="#000" mask="url(#z)" stroke-width="4" fill="#FD669E" xlink:href="#l"/><path d="M6.955 12.93a.455.455 0 0 1-.143-.016c-.3-.077-.492-.422-.427-.77.467-2.492 2.605-4.066 4.744-3.511.302.078.493.422.428.768-.064.35-.363.573-.66.49-1.557-.403-3.087.737-3.423 2.535-.055.291-.273.493-.52.503" fill="#FFF" opacity=".3"/></g></g><g transform="rotate(-78 258.871 53.273)"><ellipse fill="#000" opacity=".05" transform="rotate(-25 35.174 48.497)" cx="35.174" cy="48.497" rx="7.542" ry="3.935"/><g transform="rotate(-29 30.169 5.905)"><use stroke-opacity=".4" stroke="#000" mask="url(#A)" stroke-width="4" fill="#FD669E" xlink:href="#m"/><path d="M6.955 12.93a.455.455 0 0 1-.143-.016c-.3-.077-.492-.422-.427-.77.467-2.492 2.605-4.066 4.744-3.511.302.078.493.422.428.768-.064.35-.363.573-.66.49-1.557-.403-3.087.737-3.423 2.535-.055.291-.273.493-.52.503" fill="#FFF" opacity=".3"/></g></g><g transform="rotate(-92 265.742 95.854)"><ellipse fill="#000" opacity=".05" transform="rotate(-25 45.96 55.807)" cx="45.96" cy="55.807" rx="12.201" ry="6.366"/><g transform="rotate(-45 43.209 16.793)"><use stroke-opacity=".4" stroke="#000" mask="url(#B)" stroke-width="4" fill="#EE638F" xlink:href="#n"/><path d="M11.25 20.916a.736.736 0 0 1-.23-.024c-.487-.125-.795-.683-.69-1.246.754-4.03 4.213-6.578 7.674-5.68.488.126.797.682.692 1.243-.104.564-.587.927-1.068.79-2.518-.65-4.993 1.194-5.536 4.104-.09.47-.442.797-.841.813" fill="#FFF" opacity=".3"/></g></g></g></svg>