<svg id="Layer_1" data-name="Layer 1" xmlns="http://www.w3.org/2000/svg" xmlns:xlink="http://www.w3.org/1999/xlink" viewBox="0 0 512 512"><defs><style>.cls-1,.cls-2,.cls-3{fill:none;}.cls-1{clip-rule:evenodd;}.cls-3{fill-rule:evenodd;}.cls-4{clip-path:url(#clip-path);}.cls-5{clip-path:url(#clip-path-2);}.cls-6{fill:#2491bb;}.cls-7{opacity:0.7;}.cls-8{fill:#fff;}.cls-9{opacity:0.4;}.cls-10{fill:#203a44;}.cls-11{clip-path:url(#clip-path-6);}.cls-12{fill:#56d882;}.cls-13{clip-path:url(#clip-path-10);}.cls-14{opacity:0.2;}.cls-15{clip-path:url(#clip-path-12);}.cls-16{clip-path:url(#clip-path-16);}.cls-17{clip-path:url(#clip-path-18);}.cls-18{clip-path:url(#clip-path-20);}.cls-19{fill:#226e8b;}.cls-20{clip-path:url(#clip-path-22);}.cls-21{clip-path:url(#clip-path-24);}.cls-22{fill:#73d4fa;}.cls-23{clip-path:url(#clip-path-28);}</style><clipPath id="clip-path"><path class="cls-1" d="M143.46,327.64c-62.29-62.64-62.29-163.59,0-225.74a159.25,159.25,0,0,1,225.44-.3c62.6,62.45,62.6,163.15,0,226A159.62,159.62,0,0,1,143.46,327.64Z"/></clipPath><clipPath id="clip-path-2"><rect class="cls-2" x="3.16" y="-2.5" width="512" height="512"/></clipPath><clipPath id="clip-path-6"><path class="cls-1" d="M278.93,332.93q8.22-14.26,14.94-28.87c7.68,11.32,15.3,25,18.21,32.91-14.19,25.82-32.82,53.19-46.79,68.59A183,183,0,0,0,254,370.5,355.25,355.25,0,0,0,278.93,332.93Z"/></clipPath><clipPath id="clip-path-10"><path class="cls-1" d="M306.79,325.5a100.13,100.13,0,0,1,5.3,11.46c-14.19,25.82-32.82,53.19-46.79,68.59-.81-4.1-2-8.81-3.48-13.7C275.5,376.31,293.15,350.24,306.79,325.5Z"/></clipPath><clipPath id="clip-path-12"><path class="cls-1" d="M188.1,277.13q.19-1.12.38-2.24c-11.64,5.3-24.69,12.67-31.07,17.73-3,27.34-3.12,58.93-.47,79.38,6.61-6.1,17.4-14,28.41-20.82l.21-.11c-2.49-21.88-1.91-46.53,2.34-72.76Z"/></clipPath><clipPath id="clip-path-16"><path class="cls-1" d="M170.85,360.87c4.54-3.28,9.5-6.6,14.51-9.69l.21-.11c-2.49-21.88-1.91-46.53,2.34-72.76l.19-1.17q.19-1.12.38-2.24l-1.8.83C177.46,305.62,172.32,334.41,170.85,360.87Z"/></clipPath><clipPath id="clip-path-18"><path class="cls-2" d="M220.72,383.34c5.36,2,10.68,4.12,15.82,6.42a4.33,4.33,0,0,0,4.91-1.09c.74-.81,7.85-9,11.16-13.25a353.72,353.72,0,0,0,27.67-41.11c32.67-56.66,48.06-117.6,36.57-179.33-2.6-13.88-8.55-28.79-17.19-44.6a2.79,2.79,0,0,0-2.9-1.09c-12,4-22.56,12.35-38.12,28.12-41.21,41.9-64.29,90-72.8,141.24a262.94,262.94,0,0,0,1.09,94.42,2.08,2.08,0,0,0,2.05,1.67,162.63,162.63,0,0,1,22.79,5.55l-.36,1.37a5.74,5.74,0,0,0-.25,1.92,4.58,4.58,0,0,0,5,4.22,4.53,4.53,0,0,0,2.7-1.37,7.51,7.51,0,0,0,1.37-2.14l.2-.41.18-.37Z"/></clipPath><clipPath id="clip-path-20"><path class="cls-1" d="M220.72,383.34c5.36,2,10.68,4.12,15.82,6.42a4.33,4.33,0,0,0,4.91-1.09c.74-.81,7.85-9,11.16-13.25a353.72,353.72,0,0,0,27.67-41.11c32.67-56.66,48.06-117.6,36.57-179.33-2.6-13.88-8.55-28.79-17.19-44.6a2.79,2.79,0,0,0-2.9-1.09c-12,4-22.56,12.35-38.12,28.12-41.21,41.9-64.29,90-72.8,141.24a262.94,262.94,0,0,0,1.09,94.42,2.08,2.08,0,0,0,2.05,1.67,162.63,162.63,0,0,1,22.79,5.55l-.36,1.37a5.74,5.74,0,0,0-.25,1.92,4.58,4.58,0,0,0,5,4.22,4.53,4.53,0,0,0,2.7-1.37,7.51,7.51,0,0,0,1.37-2.14l.2-.41.18-.37Z"/></clipPath><clipPath id="clip-path-22"><path class="cls-2" d="M229.13,386.59q3.75,1.53,7.41,3.17a4.33,4.33,0,0,0,4.91-1.09c.74-.81,7.85-9,11.16-13.25a353.72,353.72,0,0,0,27.67-41.11c32.67-56.66,48.06-117.6,36.57-179.33-2.07-11-6.26-22.76-12.25-35.05a141.9,141.9,0,0,1,7.17,29c8.41,66.94-11,131.57-47.94,190.66a381.73,381.73,0,0,1-30.95,42.66C231.88,383.49,230.55,385,229.13,386.59Z"/></clipPath><clipPath id="clip-path-24"><path class="cls-1" d="M182.32,332.54s67.11,15.82,82.16,26.28c7.08-10.46,7-10.47,7-10.47s-49.67-22.7-89.34-28.79C181.92,331.65,182.32,332.54,182.32,332.54Z"/></clipPath><clipPath id="clip-path-28"><path class="cls-1" d="M243.67,249.92a24,24,0,1,1,33.83,0A24,24,0,0,1,243.67,249.92Z"/></clipPath></defs><title>Rocket</title><g class="cls-4"><g class="cls-5"><rect class="cls-6" x="91.74" y="50" width="329.1" height="329.24"/></g></g><g class="cls-5"><g class="cls-7"><path class="cls-8" d="M343.49,298.49a1,1,0,0,1-.87-1.49c13.29-23.68,29.71-68.9,39.93-110a1,1,0,0,1,1.94.48c-10.26,41.22-26.76,86.65-40.13,110.47A1,1,0,0,1,343.49,298.49Z"/></g><g class="cls-7"><path class="cls-8" d="M358.76,200.67a1,1,0,0,1-.9-1.44c8.36-16.9,18.1-48.86,23.7-77.72a1,1,0,1,1,2,.38c-5.62,29-15.44,61.18-23.87,78.23A1,1,0,0,1,358.76,200.67Z"/></g><g class="cls-7"><path class="cls-8" d="M241.92,106.42h-.1a1,1,0,0,1-.9-1.09c1.16-11.64,6.52-31.62,13-48.58a1,1,0,1,1,1.87.72c-6.46,16.81-11.78,36.57-12.92,48.06A1,1,0,0,1,241.92,106.42Z"/></g><g class="cls-7"><path class="cls-8" d="M264.88,81.83h-.13a1,1,0,0,1-.86-1.12c.71-5.29,3.47-14.3,6.71-21.91a1,1,0,1,1,1.84.78c-3.17,7.47-5.87,16.27-6.57,21.4A1,1,0,0,1,264.88,81.83Z"/></g><g class="cls-7"><path class="cls-8" d="M121,246.84l-.19,0a1,1,0,0,1-.8-1.17c5.11-27,21.78-72.76,40.55-111.2a1,1,0,0,1,1.8.88C143.62,173.62,127,219.14,121.94,246A1,1,0,0,1,121,246.84Z"/></g><g class="cls-7"><path class="cls-8" d="M124.39,301.52h-.15a1,1,0,0,1-.84-1.14c3.46-22.63,16-61.13,30.48-93.63a1,1,0,1,1,1.83.81c-14.43,32.36-26.9,70.65-30.34,93.12A1,1,0,0,1,124.39,301.52Z"/></g></g><g class="cls-4"><g class="cls-5"><g class="cls-9"><path class="cls-10" d="M256.17,376.17A161.06,161.06,0,0,1,142,329.06h0A161.77,161.77,0,0,1,256.13,53h.2a161.58,161.58,0,1,1-.16,323.17Zm-111.3-49.94c61.37,61.26,161.24,61.26,222.61,0A157.62,157.62,0,0,0,256.33,57h-.2A157.75,157.75,0,0,0,144.88,326.23Z"/></g></g></g><g class="cls-11"><g class="cls-5"><path class="cls-12" d="M278.93,332.93q8.22-14.26,14.94-28.87c7.68,11.32,15.3,25,18.21,32.91-14.19,25.82-32.82,53.19-46.79,68.59A183,183,0,0,0,254,370.5,355.25,355.25,0,0,0,278.93,332.93Z"/></g></g><g class="cls-11"><g class="cls-5"><g class="cls-9"><path class="cls-10" d="M264.1,409.85l-.77-3.9a180.08,180.08,0,0,0-11.17-34.63l-.48-1.08.72-.94a353.57,353.57,0,0,0,24.8-37.36c5.49-9.52,10.49-19.18,14.86-28.71l1.48-3.23,2,2.94c8,11.74,15.54,25.45,18.43,33.35l.31.85-.44.8c-14.24,25.92-33.15,53.64-47.06,69Zm-7.81-39.07a190.54,190.54,0,0,1,10.12,30.5c13.27-15.39,30.3-40.61,43.48-64.46-2.74-7.06-8.93-18.34-15.7-28.68-4.05,8.59-8.59,17.25-13.52,25.8h0A358,358,0,0,1,256.29,370.77Z"/></g></g></g><g class="cls-13"><g class="cls-5"><g class="cls-14"><rect class="cls-10" x="256.81" y="320.5" width="60.28" height="90.05"/></g></g></g><g class="cls-15"><g class="cls-5"><path class="cls-12" d="M188.1,277.13q.19-1.12.38-2.24c-11.64,5.3-24.69,12.67-31.07,17.73-3,27.34-3.12,58.93-.47,79.38,6.61-6.1,17.4-14,28.41-20.82l.21-.11c-2.49-21.88-1.91-46.53,2.34-72.76Z"/></g></g><g class="cls-15"><g class="cls-5"><g class="cls-9"><path class="cls-10" d="M155.46,376.09l-.5-3.84c-2.67-20.64-2.48-52.73.47-79.86l.09-.83.65-.52c6.34-5,19.29-12.43,31.48-18l3.45-1.57-.65,3.74q-.19,1.11-.38,2.23l-.19,1.17c-4.11,25.34-4.89,49.64-2.33,72.22l.16,1.44-1.32.6c-10.78,6.66-21.55,14.55-28.1,20.59Zm3.86-82.42c-2.66,25-3,54.16-.83,74.29a219.59,219.59,0,0,1,25-18c-2.42-22.48-1.6-46.59,2.44-71.7C175.56,283.25,164.95,289.37,159.32,293.67Z"/></g></g></g><g class="cls-16"><g class="cls-5"><g class="cls-14"><rect class="cls-10" x="165.85" y="269.89" width="27.63" height="95.98"/></g></g></g><g class="cls-17"><g class="cls-5"><path class="cls-8" d="M220.72,383.34c5.36,2,10.68,4.12,15.82,6.42a4.33,4.33,0,0,0,4.91-1.09c.74-.81,7.85-9,11.16-13.25a353.72,353.72,0,0,0,27.67-41.11c32.67-56.66,48.06-117.6,36.57-179.33-2.6-13.88-8.55-28.79-17.19-44.6a2.79,2.79,0,0,0-2.9-1.09c-12,4-22.56,12.35-38.12,28.12-41.21,41.9-64.29,90-72.8,141.24a262.94,262.94,0,0,0,1.09,94.42,2.08,2.08,0,0,0,2.05,1.67,162.63,162.63,0,0,1,22.79,5.55l-.36,1.37a5.74,5.74,0,0,0-.25,1.92,4.58,4.58,0,0,0,5,4.22,4.53,4.53,0,0,0,2.7-1.37,7.51,7.51,0,0,0,1.37-2.14l.2-.41.18-.37Z"/></g></g><g class="cls-18"><g class="cls-5"><path class="cls-19" d="M238.27,392.11a6.62,6.62,0,0,1-2.47-.5c-4.69-2.1-9.4-4-14.07-5.77a8.27,8.27,0,0,1-1.4,2,6.51,6.51,0,0,1-11.17-4.11,7.06,7.06,0,0,1,.19-2.08,157.46,157.46,0,0,0-20.55-4.9,4.09,4.09,0,0,1-3.83-3.28c-6-30.16-6.43-63.06-1.1-95.14,9-54.08,33.66-102,73.35-142.31,17-17.25,27.2-24.74,38.92-28.62a4.73,4.73,0,0,1,5.29,2c9.14,16.71,14.83,31.49,17.4,45.19C329.73,213.23,317.35,274,282,335.3a355.47,355.47,0,0,1-27.83,41.34c-3.34,4.27-10.55,12.6-11.26,13.37A6.38,6.38,0,0,1,238.27,392.11Zm-18.7-11.27,1.83.62c5.31,1.94,10.68,4.11,16,6.48a2.26,2.26,0,0,0,2.62-.62c.69-.76,7.78-8.94,11.06-13.14a351.61,351.61,0,0,0,27.51-40.88c34.84-60.43,47.07-120.31,36.34-178-2.45-13.08-8.17-27.89-17-44l-.21,0-.26-.12c-11.09,3.65-20.86,10.88-37.38,27.63C221,178.56,196.66,225.72,187.82,279c-5.25,31.61-4.88,64,1.07,93.7a.08.08,0,0,0,.08.07h.17l.17,0a164.37,164.37,0,0,1,23.07,5.62l1.81.57-.84,3.23a3.85,3.85,0,0,0-.18,1.28,2.56,2.56,0,0,0,.93,1.79,2.45,2.45,0,0,0,1.87.58,2.53,2.53,0,0,0,1.5-.78,5.68,5.68,0,0,0,1-1.61l.39-.8Z"/></g></g><g class="cls-20"><g class="cls-5"><g class="cls-14"><rect class="cls-10" x="224.13" y="114.92" width="101.51" height="280.19"/></g></g></g><g class="cls-21"><g class="cls-5"><path class="cls-22" d="M182.32,332.54s67.11,15.82,82.16,26.28c7.08-10.46,7-10.47,7-10.47s-49.67-22.7-89.34-28.79C181.92,331.65,182.32,332.54,182.32,332.54Z"/></g></g><g class="cls-21"><g class="cls-5"><g class="cls-9"><path class="cls-10" d="M265,361.61l-1.66-1.16c-14.56-10.12-80.81-25.82-81.47-26l-1-.22-.41-.89c-.18-.39-.6-1.3-.35-13.86l0-2.28,2.26.35c39.48,6.07,89.36,28.72,89.86,28.95l.74.34.29.75c.39,1,.13,1.37-1.08,3.19-.88,1.33-2.64,3.95-6.15,9.13Zm-80.84-30.69c9.59,2.3,63.2,15.41,79.75,25.16,2.37-3.51,3.78-5.61,4.62-6.87-9.69-4.26-50.51-21.63-84.42-27.32C184,327.06,184.1,329.65,184.17,330.92Z"/></g></g></g><g class="cls-23"><g class="cls-5"><path class="cls-22" d="M243.67,249.92a24,24,0,1,1,33.83,0A24,24,0,0,1,243.67,249.92Z"/></g></g><g class="cls-23"><g class="cls-5"><g class="cls-9"><path class="cls-10" d="M260.58,258.9a25.86,25.86,0,0,1-18.33-7.57h0a26,26,0,0,1,0-36.71A25.74,25.74,0,0,1,260.58,207h0a25.73,25.73,0,0,1,18.31,7.58,25.94,25.94,0,0,1-18.33,44.32Zm-15.5-10.39A22,22,0,1,0,260.61,211h0a21.77,21.77,0,0,0-15.5,6.45A22,22,0,0,0,245.08,248.51Z"/></g></g></g><g class="cls-5"><path class="cls-8" d="M246.66,228.48a1,1,0,0,1-.82-1.57,19.15,19.15,0,0,1,19.33-8,1,1,0,1,1-.36,2,17.47,17.47,0,0,0-2.94-.3h-.18a17.28,17.28,0,0,0-14.2,7.43A1,1,0,0,1,246.66,228.48Z"/><path class="cls-19" d="M239.79,452.08a1,1,0,0,1-.32-1.95,9.52,9.52,0,0,0-.47-18.07,1,1,0,0,1-.49-1.58,9.59,9.59,0,0,0-3-14.36,9.13,9.13,0,0,0-7.1-.68,1,1,0,0,1-.6-1.91,11.12,11.12,0,0,1,8.64.82,11.59,11.59,0,0,1,4.42,16.26,11.51,11.51,0,0,1-.73,21.41A1,1,0,0,1,239.79,452.08Z"/><path class="cls-19" d="M219.21,448.29a1,1,0,0,1-.2-2,7.38,7.38,0,0,0,5.66-8.56,7.46,7.46,0,0,0-4.31-5.47,1,1,0,0,1-.3-1.63,7.48,7.48,0,0,0-1-11.4,7.13,7.13,0,0,0-5.43-1.2,1,1,0,0,1-.36-2,9.12,9.12,0,0,1,6.94,1.53,9.48,9.48,0,0,1,2.11,13.47,9.42,9.42,0,0,1-2.93,17.2Z"/><path class="cls-19" d="M151,431.49a1,1,0,0,1-.77-.36,10.86,10.86,0,0,1-2.42-8.12,11.31,11.31,0,0,1,13.07-10,11.24,11.24,0,0,1,19.64-7.13,1,1,0,1,1-1.52,1.3,9.25,9.25,0,0,0-16.1,7,1,1,0,0,1-1.28,1.05,9.31,9.31,0,0,0-11.82,8,8.88,8.88,0,0,0,2,6.64,1,1,0,0,1-.77,1.64Z"/><path class="cls-19" d="M176.6,404.76a1,1,0,0,1-1-.91,11.25,11.25,0,0,1,19.61-8.48,1,1,0,1,1-1.52,1.3,9.25,9.25,0,0,0-16.1,7,1,1,0,0,1-.9,1.09Z"/><path class="cls-19" d="M233.71,415.27a1,1,0,0,1-.46-1.89,6,6,0,0,0,2.49-7.91,6,6,0,0,0-4.56-3.29,1,1,0,0,1,.27-2,8,8,0,0,1,2.74,15A1,1,0,0,1,233.71,415.27Z"/></g></svg>