<svg width="512" height="512" viewBox="0 0 512 512" xmlns="http://www.w3.org/2000/svg" xmlns:xlink="http://www.w3.org/1999/xlink"><title>Illustration Copy 2</title><defs><path d="M47.802 272.642C-14.49 210-14.49 109.054 47.802 46.906c62.256-62.49 163.18-62.49 225.436-.304 62.597 62.452 62.597 163.145 0 226.04-62.255 62.135-163.18 62.135-225.436 0z" id="a"/><mask id="g" x="0" y="0" width="319.104" height="319.244" fill="#fff"><use xlink:href="#a"/></mask><path d="M183.277 277.927c5.483-9.51 10.48-19.14 14.943-28.875 7.683 11.325 15.304 24.97 18.211 32.911-14.187 25.825-32.818 53.187-46.793 68.593-2.008-10.15-6.405-24.002-11.303-35.054 8.52-11.197 16.988-23.778 24.942-37.575z" id="b"/><mask id="h" x="0" y="0" width="58.096" height="101.504" fill="#fff"><use xlink:href="#b"/></mask><path d="M92.449 222.13c.124-.75.252-1.497.382-2.244-11.635 5.297-24.692 12.667-31.067 17.732-2.972 27.335-3.117 58.931-.471 79.382 6.607-6.097 17.396-14.023 28.41-20.822.07-.043.14-.081.213-.115-2.486-21.883-1.911-46.534 2.34-72.761l.193-1.173z" id="c"/><mask id="i" x="0" y="0" width="33.416" height="97.114" fill="#fff"><use xlink:href="#c"/></mask><path d="M125.066 328.34a239.723 239.723 0 0 1 15.82 6.423c2.668 1.068 4.464-.601 4.914-1.094.743-.815 7.853-9.028 11.158-13.253 9.435-12.063 18.867-25.843 27.67-41.112 32.667-56.66 48.062-117.597 36.576-179.33-2.6-13.875-8.546-28.792-17.19-44.596a2.079 2.079 0 0 0-1.49-1.056 2.072 2.072 0 0 0-1.413-.038c-12.041 3.984-22.557 12.345-38.118 28.124-41.21 41.897-64.29 89.978-72.804 141.24-5.854 35.247-4.312 67.49 1.087 94.42a2.083 2.083 0 0 0 2.054 1.675c7.297 1.176 15.018 3.1 22.785 5.552-.14.54-.272 1.046-.36 1.375-.198.738-.285 1.312-.246 1.92.163 2.543 2.498 4.523 5.028 4.223 1.018-.12 1.971-.616 2.704-1.373.534-.55.895-1.149 1.37-2.137l.198-.415c.071-.15.125-.262.178-.367.023-.048.05-.109.079-.18z" id="d"/><mask id="j" x="0" y="0" width="138.529" height="280.935" fill="#fff"><use xlink:href="#d"/></mask><path d="M86.669 277.537s67.108 15.819 82.156 26.278c7.078-10.459 7.015-10.473 7.015-10.473s-49.67-22.698-89.336-28.792c-.24 12.105.165 12.987.165 12.987z" id="e"/><mask id="k" x="0" y="0" width="89.413" height="39.264" fill="#fff"><use xlink:href="#e"/></mask><path d="M148.012 194.92c-9.35-9.402-9.35-24.553 0-33.88 9.344-9.379 24.49-9.379 33.834-.046 9.395 9.373 9.395 24.486 0 33.925-9.343 9.326-24.49 9.326-33.834 0z" id="f"/><mask id="l" x="0" y="0" width="47.892" height="47.913" fill="#fff"><use xlink:href="#f"/></mask></defs><g fill="none" fill-rule="evenodd"><path fill="#FFF" d="M0 0h512v512H0z"/><path d="M179.634 445.473A15.925 15.925 0 0 1 171 448c-6.715 0-12.464-4.137-14.837-10.001L156 438c-6.075 0-11-4.925-11-11s4.925-11 11-11c1.046 0 2.057.146 3.015.418C159.318 410.614 164.12 406 170 406c1.44 0 2.816.277 4.077.78-.05-.42-.077-.847-.077-1.28 0-5.799 4.701-10.5 10.5-10.5 2.864 0 5.46 1.146 7.354 3.005A25.886 25.886 0 0 1 204 395c7.617 0 14.469 3.275 19.224 8.495a8 8 0 0 1 7.455 13.995c4.245 1.347 7.321 5.32 7.321 10.01 0 2.6-.945 4.979-2.51 6.813 4.318 1.106 7.51 5.024 7.51 9.687 0 5.523-4.477 10-10 10a9.994 9.994 0 0 1-3.046-.472A15.932 15.932 0 0 1 220 457a15.97 15.97 0 0 1-12.5-6.012A15.97 15.97 0 0 1 195 457c-7.284 0-13.431-4.867-15.366-11.527z" fill="#FFF"/><g transform="translate(92.5 57.5)"><path d="M47.802 272.642C-14.49 210-14.49 109.054 47.802 46.906c62.256-62.49 163.18-62.49 225.436-.304 62.597 62.452 62.597 163.145 0 226.04-62.255 62.135-163.18 62.135-225.436 0z" fill="#2491BB"/><g stroke="#FFF" stroke-width="2" stroke-linecap="round" opacity=".7" stroke-linejoin="round"><path d="M287.864 132.27c-9.865 39.65-26.077 85.361-40.03 110.22M286.884 66.695c-5.406 27.886-14.998 60.21-23.781 77.976M159.249 2.098c-6.255 16.272-11.776 36.215-12.982 48.318M175.863 4.174c-3.087 7.263-5.9 16.2-6.637 21.656M65.766 79.889c-18.057 36.976-35.14 82.736-40.467 110.947M59.146 152.143c-13.933 31.252-26.802 69.777-30.41 93.376"/></g><use stroke-opacity=".4" stroke="#203A44" mask="url(#g)" stroke-width="4" stroke-linecap="round" stroke-linejoin="round" xlink:href="#a"/><use stroke-opacity=".4" stroke="#203A44" mask="url(#h)" stroke-width="4" fill="#56D882" xlink:href="#b"/><path d="M211.133 270.504c2.302 4.373 4.16 8.352 5.298 11.46-14.187 25.824-32.818 53.186-46.793 68.592-.812-4.104-2.015-8.813-3.483-13.699 13.686-15.55 31.339-41.612 44.978-66.353z" fill="#203A44" opacity=".2"/><use stroke-opacity=".4" stroke="#203A44" mask="url(#i)" stroke-width="4" fill="#56D882" xlink:href="#c"/><path d="M75.198 305.868c4.541-3.278 9.5-6.6 14.505-9.69.07-.043.14-.081.213-.115-2.486-21.883-1.911-46.534 2.34-72.761a307.268 307.268 0 0 1 .575-3.416c-.597.272-1.198.55-1.802.832-9.227 29.904-14.363 58.69-15.83 85.15z" fill="#203A44" opacity=".2"/><use stroke="#226E8B" mask="url(#j)" stroke-width="4" fill="#FFF" fill-rule="nonzero" xlink:href="#d"/><path d="M133.476 331.591c2.5 1.021 4.975 2.081 7.41 3.172 2.668 1.068 4.464-.601 4.914-1.094.743-.815 7.853-9.028 11.158-13.253 9.435-12.063 18.867-25.843 27.67-41.112 32.667-56.66 48.062-117.597 36.576-179.33-2.071-11.05-6.263-22.758-12.25-35.05 3.565 10.131 6.006 19.823 7.175 29.028 8.41 66.94-10.951 131.567-47.945 190.662-9.97 15.926-20.505 30.217-30.948 42.664a199.138 199.138 0 0 1-3.76 4.313z" fill="#203A44" fill-rule="nonzero" opacity=".2"/><use stroke-opacity=".4" stroke="#203A44" mask="url(#k)" stroke-width="4" fill="#73D4FA" xlink:href="#e"/><use stroke-opacity=".4" stroke="#203A44" mask="url(#l)" stroke-width="4" stroke-linecap="round" stroke-linejoin="round" fill="#73D4FA" xlink:href="#f"/><path d="M151.006 172.479c1.258-1.833 6.12-7.948 15.222-7.86 1.061.012 2.095.13 3.105.314" stroke="#FFF" stroke-width="2" stroke-linecap="round" stroke-linejoin="round"/><path d="M144.133 396.077c5.297-1.787 8.206-7.58 6.5-13.026-1.57-5.005-5.774-6.583-7-6.949.799-.997 3.339-4.698 1.766-9.698-1.733-5.517-7.558-8.62-12.973-6.913M123.558 392.293c4.386-.903 7.264-5.225 6.44-9.722-.76-4.132-3.948-5.797-4.887-6.207.732-.716 3.113-3.41 2.35-7.539-.839-4.555-5.167-7.59-9.639-6.763M84.125 351.57c-3.546-4.132-9.838-4.645-14.134-1.117-3.946 3.244-3.837 7.615-3.72 8.856-1.193-.358-5.461-1.3-9.402 1.943-4.35 3.578-5.026 9.97-1.51 14.237M98.802 341.023c-3.546-4.132-9.838-4.645-14.134-1.117-3.946 3.244-3.837 7.615-3.72 8.855" stroke="#226E8B" stroke-width="2" stroke-linecap="round" stroke-linejoin="round"/><path d="M138.053 359.274c3.298-1.726 4.608-5.84 2.919-9.244-1.555-3.128-4.484-3.727-5.328-3.84" stroke="#226E8B" stroke-width="2" stroke-linecap="round" stroke-linejoin="round"/></g></g></svg>