<?xml version="1.0" standalone="no"?>
<!DOCTYPE svg PUBLIC "-//W3C//DTD SVG 20010904//EN"
 "http://www.w3.org/TR/2001/REC-SVG-20010904/DTD/svg10.dtd">
<svg version="1.0" xmlns="http://www.w3.org/2000/svg"
 width="16.000000pt" height="16.000000pt" viewBox="0 0 16.000000 16.000000"
 preserveAspectRatio="xMidYMid meet">
<metadata>
Created by potrace 1.11, written by Peter Selinger 2001-2013
</metadata>
<g transform="translate(0.000000,16.000000) scale(0.003119,-0.003119)"
fill="#000000" stroke="none">
<path d="M2198 4345 c-1 -1 -30 -5 -63 -9 -269 -25 -513 -170 -665 -395 -47
-70 -106 -204 -116 -263 -6 -34 -10 -38 -67 -58 -34 -13 -85 -35 -114 -51
l-52 -28 -37 34 c-108 99 -282 132 -427 81 -147 -52 -250 -169 -281 -320 -47
-223 77 -434 297 -505 22 -8 37 -19 38 -29 6 -136 30 -240 77 -345 137 -302
421 -489 768 -506 16 -1 30 -16 49 -53 87 -169 289 -431 470 -613 253 -254
622 -524 792 -580 48 -16 55 -16 108 0 101 29 267 128 475 283 63 48 121 92
128 99 17 17 14 17 64 -12 65 -39 149 -76 183 -82 62 -10 210 67 419 217 61
44 123 90 137 102 15 13 66 57 114 98 200 171 427 456 536 671 46 93 92 209
85 216 -2 2 -7 -5 -11 -17 -4 -12 -29 -59 -55 -105 -167 -289 -419 -568 -714
-790 -220 -167 -411 -275 -487 -278 -77 -2 -242 94 -476 276 -322 250 -586
559 -738 865 -216 431 -173 806 120 1062 72 62 213 133 310 156 80 18 218 24
285 12 25 -5 55 -10 68 -13 34 -6 132 -44 177 -68 70 -38 108 -68 190 -152
l81 -82 54 60 c146 163 344 251 560 248 52 0 104 -2 115 -3 17 -3 20 2 17 37
-13 211 -96 397 -246 549 -141 144 -320 235 -519 264 -60 9 -244 8 -287 -2
-14 -4 -37 -8 -53 -11 -82 -15 -206 -70 -297 -131 -63 -42 -170 -142 -217
-203 l-19 -23 -29 42 c-66 95 -255 242 -360 280 -16 6 -39 15 -50 20 -41 19
-149 41 -228 46 -45 3 -87 7 -94 9 -6 2 -13 2 -15 0z"/>
<path d="M98 4120 c-142 -75 -116 -287 40 -331 81 -23 168 17 209 95 18 34 19
116 2 149 -48 94 -162 133 -251 87z"/>
<path d="M451 2089 c-182 -55 -271 -281 -175 -446 81 -141 256 -194 401 -123
187 92 231 332 89 483 -59 65 -115 90 -206 93 -41 2 -90 -1 -109 -7z"/>
</g>
</svg>
