<svg xmlns="http://www.w3.org/2000/svg" viewBox="0 0 512 91.29"><title>inverted</title><path d="M128.77,65.3c-3.17,3.39-8,5.51-14.48,5.51-11.55,0-17.67-7.73-17.67-16.84s6-16.85,17.6-16.85c11.23,0,16.91,7.13,16.91,16.46a20.33,20.33,0,0,1-.29,3.45H107.35c.92,3.87,4,5.69,7.9,5.69A17.62,17.62,0,0,0,124.18,60ZM121.23,51a6.67,6.67,0,0,0-.17-1.55c-.57-2.92-2.92-4.19-6.55-4.19-4.34,0-6.59,2.48-7.06,5.48l0,.26Z" style="fill:#fff"/><path d="M144.08,70.1l-13-32.23h11l7.51,21,7.51-21h11l-13,32.23Z" style="fill:#fff"/><path d="M200.29,65.3c-3.17,3.39-8,5.51-14.49,5.51-11.55,0-17.67-7.73-17.67-16.84s6-16.85,17.6-16.85c11.23,0,16.91,7.13,16.91,16.46a20.33,20.33,0,0,1-.29,3.45H178.86c.92,3.87,4,5.69,7.9,5.69A17.62,17.62,0,0,0,195.7,60ZM192.74,51a6.58,6.58,0,0,0-.17-1.55c-.57-2.92-2.92-4.19-6.54-4.19-4.34,0-6.59,2.48-7.06,5.48l0,.26Z" style="fill:#fff"/><path d="M226.31,45.74h-1.95c-1.78,0-4.3.53-6.65,3.81V70.1H206.86V37.87h9.54l.53,4.26c2.27-2.82,5.11-5,9.08-5.07h.3Z" style="fill:#fff"/><path d="M249.63,76c-1.84,4.45-4.44,7-7.56,8.51s-6.85,1.74-10.77,1.74V78.16c3.33,0,5.5-.39,7-1.22a7.92,7.92,0,0,0,3.16-4.19l1-2.64h-1.22L228.17,37.87h11l7.39,20.53L254,37.87h11Z" style="fill:#fff"/><path d="M291.39,70.1l-.48-3.81c-2.4,2.95-6.55,4.45-10.71,4.45-7.65,0-15-5-15-16.82,0-11.24,7.41-16.8,15.28-16.8a14.24,14.24,0,0,1,9.61,3.59V24.54h10.85V70.1Zm-1.31-20.48a7.48,7.48,0,0,0-6.73-3.89c-4.52,0-7.32,2.72-7.32,8.24s2.87,8.25,7.46,8.25a7,7,0,0,0,6.59-3.89Z" style="fill:#fff"/><path d="M307,40.91a32.31,32.31,0,0,1,14.86-3.78c8.24,0,15.59,3.76,15.59,12.51V70.1h-9.54l-.47-3.73A13.09,13.09,0,0,1,317.24,71c-6.08,0-12.07-4-12.07-11.12,0-7.67,6.94-11.06,13.85-11.06a19.63,19.63,0,0,1,7.59,1.47V49.4c-.14-3.34-3.21-4.67-6.76-4.67a24.24,24.24,0,0,0-10.33,2.64Zm19.63,15.88A11.61,11.61,0,0,0,321,55.4c-3,0-5.7,1.12-5.7,3.78,0,2.47,2.44,3.75,5.2,3.75a7.88,7.88,0,0,0,6.16-2.56Z" style="fill:#fff"/><path d="M360.23,76c-1.84,4.45-4.44,7-7.56,8.51s-6.85,1.74-10.77,1.74V78.16c3.33,0,5.5-.39,7-1.22a7.92,7.92,0,0,0,3.16-4.19l1-2.64h-1.22L338.77,37.87h11l7.39,20.53,7.45-20.53h11Z" style="fill:#fff"/><path d="M389.52,41.35c2.59-2.47,5.37-4.3,9.37-4.3,6,0,12.57,3.67,12.57,12.51V70.1H400.61V51.87c0-4.58-2.29-6.14-5-6.14-1.69,0-3.44.4-6.07,3.94V70.1H378.67V24.54h10.85Z" style="fill:#fff"/><path d="M447.7,65.3c-3.17,3.39-8,5.51-14.49,5.51-11.55,0-17.67-7.73-17.67-16.84s6-16.85,17.6-16.85c11.23,0,16.91,7.13,16.91,16.46a20.33,20.33,0,0,1-.29,3.45H426.28c.92,3.87,4,5.69,7.9,5.69A17.62,17.62,0,0,0,443.11,60ZM440.16,51a6.58,6.58,0,0,0-.17-1.55c-.57-2.92-2.92-4.19-6.54-4.19-4.34,0-6.59,2.48-7.06,5.48l0,.26Z" style="fill:#fff"/><path d="M473.73,45.74h-1.95c-1.78,0-4.3.53-6.65,3.81V70.1H454.28V37.87h9.54l.53,4.26c2.27-2.82,5.11-5,9.08-5.07h.3Z" style="fill:#fff"/><path d="M512,54c0,9.24-6.27,16.83-18.43,16.83S475.14,63.06,475.14,54s6.36-16.86,18.43-16.86C505.43,37.13,512,44.61,512,54Zm-18.43-8.25c-4.48,0-7.58,2.9-7.58,8.25s3.1,8.25,7.58,8.25,7.58-2.78,7.58-8.25-3.09-8.25-7.58-8.25Z" style="fill:#fff"/><path d="M96.58,29.6a18.64,18.64,0,0,1,2.56-2.91,21.22,21.22,0,0,0-6.93-1.63A19.19,19.19,0,0,1,96.58,29.6Z" style="fill:#fff"/><g style="opacity:0.7000000000000001"><path d="M8,58.32a7.67,7.67,0,1,0,10.84,0A7.66,7.66,0,0,0,8,58.32Z" style="fill:#fff"/><path d="M7.59,6.36a4.47,4.47,0,0,0-6.31,0,4.5,4.5,0,0,0,6.37,6.36A4.46,4.46,0,0,0,7.59,6.36Z" style="fill:#fff"/><path d="M75.61,66.3c-8.92-9.79-13.4-18.87-13.32-27A17.76,17.76,0,0,1,66.9,27.59a20.67,20.67,0,0,0-10.58-2.93l-.6,0c-.44-.54-.91-1.06-1.42-1.56a21.41,21.41,0,0,0-26.39-3c-.11-.12-.22-.25-.34-.37A10.87,10.87,0,1,0,17.73,38,21.38,21.38,0,0,0,39.31,59.74,71.15,71.15,0,0,0,50.16,74.82c6,6.6,19.08,16.41,22.86,16.47,3,0,12.17-6.15,18.83-11.94A81.21,81.21,0,0,1,75.61,66.3Z" style="fill:#fff"/></g><path d="M75.61,66.3c-8.92-9.79-13.4-18.87-13.32-27,.09-10,8.55-18.08,18.84-18A18.8,18.8,0,0,1,96.58,29.6a18.78,18.78,0,0,1,15.61-7.95,19.17,19.17,0,0,1,3.18.32C115.24,10.13,105.37.48,93.15.35A22.59,22.59,0,0,0,74.37,9.91,22.57,22.57,0,0,0,55.79,0C43.41-.12,33.23,9.59,33.13,21.61c-.1,9.74,5.3,20.66,16,32.44C55.64,61.16,69.7,71.74,73.78,71.8c1.11,0,3-.79,5.3-2.06C77.78,68.55,76.59,67.38,75.61,66.3Z" style="fill:#fff"/></svg>