<svg xmlns="http://www.w3.org/2000/svg" viewBox="0 0 256 208.9"><title>mark-standard-padded</title><g style="isolation:isolate"><path d="M59,120.05a9.43,9.43,0,1,0,13.34,0A9.42,9.42,0,0,0,59,120.05Z" style="fill:#56d882;mix-blend-mode:multiply"/><path d="M58.48,56.1a5.45,5.45,0,1,0,.07,7.78A5.5,5.5,0,0,0,58.48,56.1Z" style="fill:#56d882;mix-blend-mode:multiply"/><path d="M192.91,130.36c-6.75,7.14-21.38,17.69-25.52,17.67-1.12,0-3-.82-5.22-2.11h0c-1.12-.64-2.33-1.41-3.6-2.26l-.23-.16c-1.17-.79-2.38-1.66-3.6-2.58l-.42-.32-1-.78-.64-.5-.93-.73-1.42-1.15-.68-.57-1-.81-.63-.55-1.12-1-.38-.34q-.73-.66-1.41-1.31l-.39-.37-1-1-.38-.38c-.42-.43-.82-.85-1.19-1.26-.79-.87-1.54-1.73-2.28-2.58l-.66-.78q-.77-.91-1.49-1.82l-.66-.83q-.74-1-1.43-1.89l-.47-.64c-.61-.86-1.2-1.71-1.76-2.55h0c-.54-.83-1.05-1.66-1.54-2.48l-.34-.59q-.56-1-1.07-1.93l-.32-.61q-.54-1.05-1-2.09l-.15-.33c-.37-.84-.72-1.67-1-2.5h0a32.1,32.1,0,0,1-2.19-11.53,21.86,21.86,0,0,1,5.69-14.46,25.44,25.44,0,0,0-13-3.6c-.25,0-.49,0-.74,0-.55-.66-1.12-1.3-1.74-1.92A26.34,26.34,0,0,0,83.49,73c-.14-.15-.27-.31-.42-.46A13.38,13.38,0,1,0,71,95.1a26.3,26.3,0,0,0,26.55,26.69,87.55,87.55,0,0,0,13.35,18.56c7.41,8.12,23.48,20.2,28.14,20.27,3.37,0,12.93-6.22,20.8-12.69,3.21,2.09,6,3.48,7.42,3.5,4,0,18-10.09,24.46-16.93,8-8.43,13.06-16.44,15.19-23.91C204.08,116.87,199.43,123.49,192.91,130.36Z" style="fill:#56d882"/><path d="M142.18,129.87c-11-12-16.49-23.22-16.4-33.18.11-12.31,10.52-22.24,23.18-22.11a23.14,23.14,0,0,1,19,10.13,23.11,23.11,0,0,1,19.21-9.78,23.59,23.59,0,0,1,3.92.39c-.16-14.57-12.31-26.45-27.35-26.6a27.8,27.8,0,0,0-23.11,11.75,27.77,27.77,0,0,0-22.87-12.19C102.55,48.14,90,60.08,89.9,74.88c-.12,12,6.52,25.42,19.72,39.91,8,8.75,25.29,21.77,30.31,21.84,1.37,0,3.71-1,6.52-2.53C144.85,132.63,143.38,131.19,142.18,129.87Z" style="fill:#1bab6b"/></g></svg>