<svg xmlns="http://www.w3.org/2000/svg" viewBox="0 0 512 131.29"><defs><style>.cls-1{opacity:0.6;}.cls-2{fill:#fff;}.cls-3{opacity:0.7;}</style></defs><title>powered-by-inverted</title><g id="Layer_2" data-name="Layer 2"><g id="Layer_1-2" data-name="Layer 1"><g class="cls-1"><path class="cls-2" d="M176.32,41V8.87h4.34V12.2a9.49,9.49,0,0,1,7.62-3.91c6.08,0,10.37,4.58,10.37,12.2s-4.29,12.25-10.37,12.25a9.29,9.29,0,0,1-7.62-4V41Zm10.8-28.88a8,8,0,0,0-6.46,3.42v9.88a8.11,8.11,0,0,0,6.46,3.42c4.34,0,7-3.52,7-8.39S191.46,12.15,187.12,12.15Z"/><path class="cls-2" d="M202.69,20.49c0-6.7,4.53-12.2,11.77-12.2s11.77,5.5,11.77,12.2-4.48,12.25-11.77,12.25S202.69,27.24,202.69,20.49Zm19,0c0-4.39-2.56-8.34-7.23-8.34s-7.23,4-7.23,8.34,2.6,8.39,7.23,8.39S221.69,24.93,221.69,20.49Z"/><path class="cls-2" d="M246.18,14.27l-5.74,17.89H236L228.63,8.87h4.53l5.3,17.74L244.3,8.87h3.76l5.83,17.74,5.3-17.74h4.53L256.4,32.16h-4.48Z"/><path class="cls-2" d="M277.81,8.29c7,0,11.33,5.45,11.33,12.59v1.06H270.72a7.64,7.64,0,0,0,7.91,7.23,9.9,9.9,0,0,0,6.9-2.75l2,2.84a13.09,13.09,0,0,1-9.35,3.47c-6.94,0-12.05-4.92-12.05-12.25C266.14,13.74,271,8.29,277.81,8.29ZM270.67,18.8H284.9a6.89,6.89,0,0,0-7.09-6.94C273.13,11.86,270.91,15.62,270.67,18.8Z"/><path class="cls-2" d="M294.59,8.87h4.34v3.57a9.89,9.89,0,0,1,7.62-4.1v4.39a6.88,6.88,0,0,0-1.5-.14A8.23,8.23,0,0,0,298.93,16v16.2h-4.34Z"/><path class="cls-2" d="M321.11,8.29c7,0,11.33,5.45,11.33,12.59v1.06H314a7.64,7.64,0,0,0,7.91,7.23,9.9,9.9,0,0,0,6.9-2.75l2,2.84a13.09,13.09,0,0,1-9.35,3.47c-6.94,0-12.05-4.92-12.05-12.25C309.44,13.74,314.31,8.29,321.11,8.29ZM314,18.8H328.2a6.89,6.89,0,0,0-7.09-6.94C316.43,11.86,314.21,15.62,314,18.8Z"/><path class="cls-2" d="M354.47,28.83a9.63,9.63,0,0,1-7.62,3.91c-6.08,0-10.42-4.58-10.42-12.2s4.34-12.25,10.42-12.25a9.48,9.48,0,0,1,7.62,4V0h4.34V32.16h-4.34Zm0-13.26A8,8,0,0,0,348,12.15c-4.34,0-7,3.52-7,8.39s2.7,8.34,7,8.34a8,8,0,0,0,6.46-3.38Z"/><path class="cls-2" d="M378.19,0h4.34V12.25a9.35,9.35,0,0,1,7.62-4c6.08,0,10.37,4.77,10.37,12.25s-4.34,12.2-10.37,12.2a9.56,9.56,0,0,1-7.62-3.91v3.33h-4.34ZM389,28.88c4.34,0,7-3.47,7-8.34s-2.7-8.39-7-8.39a8,8,0,0,0-6.46,3.47v9.89A7.94,7.94,0,0,0,389,28.88Z"/><path class="cls-2" d="M407.51,37.75a3.22,3.22,0,0,0,3.38-2.27l1.35-3.09-9.6-23.53h4.63l7.28,18.27,7.28-18.27h4.68L415,36.6c-1.5,3.66-4.05,5-7.43,5a12.56,12.56,0,0,1-2.7-.34l.67-3.91A5.29,5.29,0,0,0,407.51,37.75Z"/></g><path class="cls-2" d="M128.77,105.31c-3.17,3.39-8,5.51-14.48,5.51-11.55,0-17.67-7.73-17.67-16.84s6-16.85,17.6-16.85c11.23,0,16.91,7.13,16.91,16.46a20.33,20.33,0,0,1-.29,3.45H107.35c.92,3.87,4,5.69,7.9,5.69a17.62,17.62,0,0,0,8.93-2.72ZM121.23,91a6.67,6.67,0,0,0-.17-1.55c-.57-2.92-2.92-4.19-6.55-4.19-4.34,0-6.59,2.48-7.06,5.48l0,.26Z"/><path class="cls-2" d="M144.08,110.1l-13-32.23h11l7.51,21,7.51-21h11l-13,32.23Z"/><path class="cls-2" d="M200.29,105.31c-3.17,3.39-8,5.51-14.49,5.51-11.55,0-17.67-7.73-17.67-16.84s6-16.85,17.6-16.85c11.23,0,16.91,7.13,16.91,16.46a20.33,20.33,0,0,1-.29,3.45H178.86c.92,3.87,4,5.69,7.9,5.69A17.62,17.62,0,0,0,195.7,100ZM192.74,91a6.58,6.58,0,0,0-.17-1.55c-.57-2.92-2.92-4.19-6.54-4.19-4.34,0-6.59,2.48-7.06,5.48l0,.26Z"/><path class="cls-2" d="M226.31,85.74h-1.95c-1.78,0-4.3.53-6.65,3.81V110.1H206.86V77.87h9.54l.53,4.26c2.27-2.82,5.11-5,9.08-5.07h.3Z"/><path class="cls-2" d="M249.63,116c-1.84,4.45-4.44,7-7.56,8.51s-6.85,1.74-10.77,1.74v-8.06c3.33,0,5.5-.39,7-1.22a7.92,7.92,0,0,0,3.16-4.19l1-2.64h-1.22L228.17,77.87h11l7.39,20.53L254,77.87h11Z"/><path class="cls-2" d="M291.39,110.1l-.48-3.81c-2.4,2.95-6.55,4.45-10.71,4.45-7.65,0-15-5-15-16.82,0-11.24,7.41-16.8,15.28-16.8a14.24,14.24,0,0,1,9.61,3.59V64.54h10.85V110.1Zm-1.31-20.48a7.48,7.48,0,0,0-6.73-3.89c-4.52,0-7.32,2.72-7.32,8.24s2.87,8.25,7.46,8.25a7,7,0,0,0,6.59-3.89Z"/><path class="cls-2" d="M307,80.91a32.31,32.31,0,0,1,14.86-3.78c8.24,0,15.59,3.76,15.59,12.51V110.1h-9.54l-.47-3.73a13.09,13.09,0,0,1-10.21,4.6c-6.08,0-12.07-4-12.07-11.12,0-7.67,6.94-11.06,13.85-11.06a19.63,19.63,0,0,1,7.59,1.47v-.85c-.14-3.34-3.21-4.67-6.76-4.67a24.24,24.24,0,0,0-10.33,2.64Zm19.63,15.88A11.61,11.61,0,0,0,321,95.4c-3,0-5.7,1.12-5.7,3.78,0,2.47,2.44,3.75,5.2,3.75a7.88,7.88,0,0,0,6.16-2.56Z"/><path class="cls-2" d="M360.23,116c-1.84,4.45-4.44,7-7.56,8.51s-6.85,1.74-10.77,1.74v-8.06c3.33,0,5.5-.39,7-1.22a7.92,7.92,0,0,0,3.16-4.19l1-2.64h-1.22L338.77,77.87h11l7.39,20.53,7.45-20.53h11Z"/><path class="cls-2" d="M389.52,81.35c2.59-2.47,5.37-4.3,9.37-4.3,6,0,12.57,3.67,12.57,12.51V110.1H400.61V91.87c0-4.58-2.29-6.14-5-6.14-1.69,0-3.44.4-6.07,3.94V110.1H378.67V64.54h10.85Z"/><path class="cls-2" d="M447.7,105.31c-3.17,3.39-8,5.51-14.49,5.51-11.55,0-17.67-7.73-17.67-16.84s6-16.85,17.6-16.85c11.23,0,16.91,7.13,16.91,16.46a20.33,20.33,0,0,1-.29,3.45H426.28c.92,3.87,4,5.69,7.9,5.69a17.62,17.62,0,0,0,8.93-2.72ZM440.16,91a6.58,6.58,0,0,0-.17-1.55c-.57-2.92-2.92-4.19-6.54-4.19-4.34,0-6.59,2.48-7.06,5.48l0,.26Z"/><path class="cls-2" d="M473.73,85.74h-1.95c-1.78,0-4.3.53-6.65,3.81V110.1H454.28V77.87h9.54l.53,4.26c2.27-2.82,5.11-5,9.08-5.07h.3Z"/><path class="cls-2" d="M512,94c0,9.24-6.27,16.83-18.43,16.83S475.14,103.06,475.14,94s6.36-16.86,18.43-16.86C505.43,77.13,512,84.61,512,94Zm-18.43-8.25c-4.48,0-7.58,2.9-7.58,8.25s3.1,8.25,7.58,8.25,7.58-2.78,7.58-8.25-3.09-8.25-7.58-8.25Z"/><path class="cls-2" d="M96.58,69.61a18.64,18.64,0,0,1,2.56-2.91,21.22,21.22,0,0,0-6.93-1.63A19.19,19.19,0,0,1,96.58,69.61Z"/><g class="cls-3"><path class="cls-2" d="M8,98.32a7.67,7.67,0,1,0,10.84,0A7.66,7.66,0,0,0,8,98.32Z"/><path class="cls-2" d="M7.59,46.36a4.47,4.47,0,0,0-6.31,0,4.5,4.5,0,1,0,6.31,0Z"/><path class="cls-2" d="M75.61,106.3c-8.92-9.79-13.4-18.87-13.32-27A17.76,17.76,0,0,1,66.9,67.59a20.67,20.67,0,0,0-10.58-2.93l-.6,0c-.44-.54-.91-1.06-1.42-1.56a21.41,21.41,0,0,0-26.39-3c-.11-.12-.22-.25-.34-.37A10.87,10.87,0,1,0,17.73,78,21.38,21.38,0,0,0,39.31,99.74a71.15,71.15,0,0,0,10.85,15.08c6,6.6,19.08,16.41,22.86,16.47,3,0,12.17-6.15,18.83-11.94A81.21,81.21,0,0,1,75.61,106.3Z"/></g><path class="cls-2" d="M75.61,106.3c-8.92-9.79-13.4-18.87-13.32-27,.09-10,8.55-18.08,18.84-18a18.8,18.8,0,0,1,15.46,8.23,18.78,18.78,0,0,1,15.61-7.95,19.17,19.17,0,0,1,3.18.32c-.13-11.84-10-21.49-22.23-21.62a22.59,22.59,0,0,0-18.78,9.55A22.57,22.57,0,0,0,55.79,40c-12.38-.12-22.55,9.59-22.66,21.61-.1,9.74,5.3,20.66,16,32.44,6.49,7.11,20.55,17.69,24.63,17.75,1.11,0,3-.79,5.3-2.06C77.78,108.55,76.59,107.38,75.61,106.3Z"/></g></g></svg>