<svg xmlns="http://www.w3.org/2000/svg" viewBox="0 0 577.47 155.76"><title>standard-padded</title><path d="M161.5,97.54c-3.17,3.39-8,5.51-14.48,5.51-11.55,0-17.67-7.73-17.67-16.84s6-16.85,17.6-16.85c11.23,0,16.91,7.13,16.91,16.46a20.33,20.33,0,0,1-.29,3.45H140.08C141,93.14,144,95,148,95a17.62,17.62,0,0,0,8.93-2.72ZM154,83.2a6.67,6.67,0,0,0-.17-1.55c-.57-2.92-2.92-4.19-6.55-4.19-4.34,0-6.59,2.48-7.06,5.48l0,.26Z" style="fill:#213b45"/><path d="M176.81,102.34l-13-32.23h11l7.51,21,7.51-21h11l-13,32.23Z" style="fill:#213b45"/><path d="M233,97.54c-3.17,3.39-8,5.51-14.49,5.51-11.55,0-17.67-7.73-17.67-16.84s6-16.85,17.6-16.85c11.23,0,16.91,7.13,16.91,16.46a20.33,20.33,0,0,1-.29,3.45H211.6c.92,3.87,4,5.69,7.9,5.69a17.62,17.62,0,0,0,8.93-2.72ZM225.48,83.2a6.58,6.58,0,0,0-.17-1.55c-.57-2.92-2.92-4.19-6.54-4.19-4.34,0-6.59,2.48-7.06,5.48l0,.26Z" style="fill:#213b45"/><path d="M259,78H257.1c-1.78,0-4.3.53-6.65,3.81v20.56H239.6V70.1h9.54l.53,4.26c2.27-2.82,5.11-5,9.08-5.07h.3Z" style="fill:#213b45"/><path d="M282.37,108.2c-1.84,4.45-4.44,7-7.56,8.51S268,118.45,264,118.45v-8.06c3.33,0,5.5-.39,7-1.22a7.92,7.92,0,0,0,3.16-4.19l1-2.64H274L260.91,70.1h11l7.39,20.53,7.45-20.53h11Z" style="fill:#213b45"/><path d="M324.13,102.34l-.48-3.81c-2.4,2.95-6.55,4.45-10.71,4.45-7.65,0-15-5-15-16.82,0-11.24,7.41-16.8,15.28-16.8A14.24,14.24,0,0,1,322.82,73V56.77h10.85v45.57Zm-1.31-20.48A7.48,7.48,0,0,0,316.09,78c-4.52,0-7.32,2.72-7.32,8.24s2.87,8.25,7.46,8.25a7,7,0,0,0,6.59-3.89Z" style="fill:#213b45"/><path d="M339.75,73.14a32.31,32.31,0,0,1,14.86-3.78c8.24,0,15.59,3.76,15.59,12.51v20.46h-9.54l-.47-3.73a13.09,13.09,0,0,1-10.21,4.6c-6.08,0-12.07-4-12.07-11.12,0-7.67,6.94-11.06,13.85-11.06a19.63,19.63,0,0,1,7.59,1.47v-.85c-.14-3.34-3.21-4.67-6.76-4.67a24.24,24.24,0,0,0-10.33,2.64ZM359.38,89a11.61,11.61,0,0,0-5.65-1.38c-3,0-5.7,1.12-5.7,3.78,0,2.47,2.44,3.75,5.2,3.75a7.88,7.88,0,0,0,6.16-2.56Z" style="fill:#213b45"/><path d="M393,108.2c-1.84,4.45-4.44,7-7.56,8.51s-6.85,1.74-10.77,1.74v-8.06c3.33,0,5.5-.39,7-1.22a7.92,7.92,0,0,0,3.16-4.19l1-2.64h-1.22L371.51,70.1h11l7.39,20.53,7.45-20.53h11Z" style="fill:#213b45"/><path d="M422.26,73.58c2.59-2.47,5.37-4.3,9.37-4.3,6,0,12.57,3.67,12.57,12.51v20.54H433.34V84.1c0-4.58-2.29-6.14-5-6.14-1.69,0-3.44.4-6.07,3.94v20.42H411.41V56.77h10.85Z" style="fill:#213b45"/><path d="M480.44,97.54c-3.17,3.39-8,5.51-14.49,5.51-11.55,0-17.67-7.73-17.67-16.84s6-16.85,17.6-16.85c11.23,0,16.91,7.13,16.91,16.46a20.33,20.33,0,0,1-.29,3.45H459c.92,3.87,4,5.69,7.9,5.69a17.62,17.62,0,0,0,8.93-2.72ZM472.9,83.2a6.58,6.58,0,0,0-.17-1.55c-.57-2.92-2.92-4.19-6.54-4.19-4.34,0-6.59,2.48-7.06,5.48l0,.26Z" style="fill:#213b45"/><path d="M506.46,78h-1.95c-1.78,0-4.3.53-6.65,3.81v20.56H487V70.1h9.54l.53,4.26c2.27-2.82,5.11-5,9.08-5.07h.3Z" style="fill:#213b45"/><path d="M544.74,86.22c0,9.24-6.27,16.83-18.43,16.83s-18.43-7.75-18.43-16.83,6.36-16.86,18.43-16.86C538.16,69.36,544.74,76.84,544.74,86.22ZM526.3,78c-4.48,0-7.58,2.9-7.58,8.25s3.1,8.25,7.58,8.25,7.58-2.78,7.58-8.25S530.8,78,526.31,78Z" style="fill:#213b45"/><path d="M34.06,44.86a4.43,4.43,0,1,1,6.32.05A4.47,4.47,0,0,1,34.06,44.86Z" style="fill:#fff"/><path d="M129.32,61.84a18.64,18.64,0,0,1,2.56-2.91,21.22,21.22,0,0,0-6.93-1.63A19.19,19.19,0,0,1,129.32,61.84Z" style="fill:#fff"/><path d="M40.78,90.56a7.67,7.67,0,1,0,10.84,0A7.66,7.66,0,0,0,40.78,90.56Z" style="fill:#56d882"/><path d="M40.32,38.59a4.43,4.43,0,1,0,.06,6.32A4.47,4.47,0,0,0,40.32,38.59Z" style="fill:#56d882"/><path d="M108.34,98.54c-8.92-9.79-13.4-18.87-13.32-27a17.76,17.76,0,0,1,4.62-11.75A20.67,20.67,0,0,0,89.05,56.9l-.6,0c-.44-.54-.91-1.06-1.42-1.56a21.41,21.41,0,0,0-26.39-3c-.11-.12-.22-.25-.34-.37a10.87,10.87,0,1,0-9.84,18.33A21.38,21.38,0,0,0,72,92a71.15,71.15,0,0,0,10.85,15.08c6,6.6,19.08,16.41,22.86,16.47,3,0,12.17-6.15,18.83-11.94A81.21,81.21,0,0,1,108.34,98.54Z" style="fill:#56d882"/><path d="M108.34,98.54c-8.92-9.79-13.4-18.87-13.32-27,.09-10,8.55-18.08,18.84-18a18.8,18.8,0,0,1,15.46,8.23,18.78,18.78,0,0,1,15.61-7.95,19.17,19.17,0,0,1,3.18.32c-.13-11.84-10-21.49-22.23-21.62a22.59,22.59,0,0,0-18.78,9.55,22.57,22.57,0,0,0-18.58-9.91C76.14,32.12,66,41.82,65.86,53.85c-.1,9.74,5.3,20.66,16,32.44C88.37,93.39,102.44,104,106.52,104c1.11,0,3-.79,5.3-2.06C110.51,100.78,109.32,99.61,108.34,98.54Z" style="fill:#1bab6b"/></svg>